Hoogli-Medium.ufo
<glyph name="exclam" format="1">
  <advance width="317"/>
  <unicode hex="0021"/>
  <outline>
    <contour>
      <point x="172" y="236"/>
      <point x="188" y="249"/>
      <point x="188" y="264" type="curve" smooth="yes"/>
      <point x="195" y="550" type="line" smooth="yes"/>
      <point x="196" y="565"/>
      <point x="180" y="578"/>
      <point x="164" y="579" type="curve" smooth="yes"/>
      <point x="149" y="579"/>
      <point x="133" y="566"/>
      <point x="133" y="551" type="curve" smooth="yes"/>
      <point x="126" y="265" type="line" smooth="yes"/>
      <point x="125" y="251"/>
      <point x="141" y="237"/>
      <point x="157" y="237" type="curve" smooth="yes"/>
    </contour>
    <contour>
      <point x="188" y="-17"/>
      <point x="210" y="-2"/>
      <point x="210" y="41" type="curve" smooth="yes"/>
      <point x="210" y="77"/>
      <point x="186" y="100"/>
      <point x="157" y="100" type="curve" smooth="yes"/>
      <point x="126" y="100"/>
      <point x="105" y="77"/>
      <point x="105" y="41" type="curve" smooth="yes"/>
      <point x="105" y="-1"/>
      <point x="134" y="-17"/>
      <point x="158" y="-17" type="curve" smooth="yes"/>
    </contour>
  </outline>
</glyph>
<glyph name="numbersign" format="1">
  <advance width="600"/>
  <unicode hex="0023"/>
  <outline>
    <contour>
      <point x="311" y="-14"/>
      <point x="330" y="-7"/>
      <point x="336" y="7" type="curve" smooth="yes"/>
      <point x="521" y="504" type="line" smooth="yes"/>
      <point x="526" y="518"/>
      <point x="517" y="535"/>
      <point x="502" y="541" type="curve" smooth="yes"/>
      <point x="487" y="545"/>
      <point x="468" y="539"/>
      <point x="463" y="524" type="curve" smooth="yes"/>
      <point x="278" y="28" type="line" smooth="yes"/>
      <point x="273" y="14"/>
      <point x="282" y="-3"/>
      <point x="297" y="-9" type="curve" smooth="yes"/>
    </contour>
    <contour>
      <point x="473" y="149" type="line" smooth="yes"/>
      <point x="489" y="149"/>
      <point x="502" y="162"/>
      <point x="502" y="177" type="curve" smooth="yes"/>
      <point x="502" y="192"/>
      <point x="489" y="205"/>
      <point x="473" y="205" type="curve" smooth="yes"/>
      <point x="49" y="205" type="line" smooth="yes"/>
      <point x="33" y="205"/>
      <point x="20" y="192"/>
      <point x="20" y="177" type="curve" smooth="yes"/>
      <point x="20" y="162"/>
      <point x="33" y="149"/>
      <point x="49" y="149" type="curve" smooth="yes"/>
    </contour>
    <contour>
      <point x="101" y="-14"/>
      <point x="120" y="-7"/>
      <point x="126" y="7" type="curve" smooth="yes"/>
      <point x="311" y="504" type="line" smooth="yes"/>
      <point x="316" y="518"/>
      <point x="307" y="535"/>
      <point x="292" y="541" type="curve" smooth="yes"/>
      <point x="277" y="545"/>
      <point x="258" y="539"/>
      <point x="253" y="524" type="curve" smooth="yes"/>
      <point x="68" y="28" type="line" smooth="yes"/>
      <point x="63" y="14"/>
      <point x="72" y="-3"/>
      <point x="87" y="-9" type="curve" smooth="yes"/>
    </contour>
    <contour>
      <point x="546" y="354" type="line" smooth="yes"/>
      <point x="562" y="354"/>
      <point x="575" y="367"/>
      <point x="575" y="382" type="curve" smooth="yes"/>
      <point x="575" y="398"/>
      <point x="562" y="411"/>
      <point x="546" y="411" type="curve" smooth="yes"/>
      <point x="121" y="411" type="line" smooth="yes"/>
      <point x="105" y="411"/>
      <point x="92" y="398"/>
      <point x="92" y="382" type="curve" smooth="yes"/>
      <point x="92" y="367"/>
      <point x="105" y="354"/>
      <point x="121" y="354" type="curve" smooth="yes"/>
    </contour>
  </outline>
</glyph>
<glyph name="ampersand" format="1">
  <advance width="640"/>
  <unicode hex="0026"/>
  <outline>
    <contour>
      <point x="315" y="-19"/>
      <point x="380" y="16"/>
      <point x="467" y="136" type="curve" smooth="yes"/>
      <point x="557" y="262" type="line" smooth="yes"/>
      <point x="567" y="274"/>
      <point x="563" y="293"/>
      <point x="550" y="302" type="curve" smooth="yes"/>
      <point x="537" y="311"/>
      <point x="518" y="308"/>
      <point x="509" y="295" type="curve" smooth="yes"/>
      <point x="419" y="171" type="line" smooth="yes"/>
      <point x="350" y="74"/>
      <point x="301" y="38"/>
      <point x="232" y="38" type="curve" smooth="yes"/>
      <point x="166" y="38"/>
      <point x="115" y="76"/>
      <point x="115" y="130" type="curve" smooth="yes"/>
      <point x="115" y="190"/>
      <point x="153" y="232"/>
      <point x="284" y="284" type="curve" smooth="yes"/>
      <point x="365" y="318"/>
      <point x="400" y="365"/>
      <point x="400" y="424" type="curve" smooth="yes"/>
      <point x="400" y="494"/>
      <point x="339" y="551"/>
      <point x="258" y="551" type="curve" smooth="yes"/>
      <point x="179" y="551"/>
      <point x="119" y="500"/>
      <point x="119" y="420" type="curve" smooth="yes"/>
      <point x="119" y="357"/>
      <point x="164" y="308"/>
      <point x="234" y="248" type="curve" smooth="yes"/>
      <point x="530" y="-4" type="line" smooth="yes"/>
      <point x="542" y="-14"/>
      <point x="561" y="-12"/>
      <point x="571" y="0" type="curve" smooth="yes"/>
      <point x="581" y="11"/>
      <point x="580" y="29"/>
      <point x="568" y="40" type="curve" smooth="yes"/>
      <point x="274" y="290" type="line" smooth="yes"/>
      <point x="220" y="337"/>
      <point x="181" y="372"/>
      <point x="181" y="420" type="curve" smooth="yes"/>
      <point x="181" y="464"/>
      <point x="213" y="494"/>
      <point x="258" y="494" type="curve" smooth="yes"/>
      <point x="303" y="494"/>
      <point x="338" y="464"/>
      <point x="338" y="424" type="curve" smooth="yes"/>
      <point x="338" y="386"/>
      <point x="312" y="358"/>
      <point x="261" y="337" type="curve" smooth="yes"/>
      <point x="85" y="267"/>
      <point x="53" y="205"/>
      <point x="53" y="130" type="curve" smooth="yes"/>
      <point x="53" y="48"/>
      <point x="124" y="-19"/>
      <point x="232" y="-19" type="curve" smooth="yes"/>
    </contour>
  </outline>
</glyph>
<glyph name="asterisk" format="1">
  <advance width="427"/>
  <unicode hex="002A"/>
  <outline>
    <contour>
      <point x="351" y="455" type="line" smooth="yes"/>
      <point x="364" y="462"/>
      <point x="369" y="480"/>
      <point x="361" y="493" type="curve" smooth="yes"/>
      <point x="353" y="506"/>
      <point x="335" y="511"/>
      <point x="321" y="503" type="curve" smooth="yes"/>
      <point x="76" y="363" type="line" smooth="yes"/>
      <point x="58.58" y="352.28"/>
      <point x="55.28" y="342.42"/>
      <point x="66" y="325" type="curve" smooth="yes"/>
      <point x="74" y="312"/>
      <point x="92" y="307"/>
      <point x="106" y="315" type="curve" smooth="yes"/>
    </contour>
    <contour>
      <point x="335" y="307"/>
      <point x="353" y="312"/>
      <point x="361" y="325" type="curve" smooth="yes"/>
      <point x="369" y="338"/>
      <point x="364" y="355"/>
      <point x="351" y="363" type="curve" smooth="yes"/>
      <point x="106" y="503" type="line" smooth="yes"/>
      <point x="92" y="511"/>
      <point x="74" y="506"/>
      <point x="66" y="493" type="curve" smooth="yes"/>
      <point x="58" y="480"/>
      <point x="63" y="462"/>
      <point x="76" y="455" type="curve" smooth="yes"/>
      <point x="321" y="315" type="line" smooth="yes"/>
    </contour>
    <contour>
      <point x="229" y="257"/>
      <point x="242" y="269"/>
      <point x="242" y="284" type="curve" smooth="yes"/>
      <point x="242" y="539" type="line" smooth="yes"/>
      <point x="242" y="554"/>
      <point x="229" y="566"/>
      <point x="213" y="566" type="curve" smooth="yes"/>
      <point x="197" y="566"/>
      <point x="184" y="554"/>
      <point x="184" y="539" type="curve" smooth="yes"/>
      <point x="184" y="284" type="line" smooth="yes"/>
      <point x="184" y="269"/>
      <point x="197" y="257"/>
      <point x="213" y="257" type="curve" smooth="yes"/>
    </contour>
  </outline>
</glyph>
<glyph name="plus" format="1">
  <advance width="531"/>
  <unicode hex="002B"/>
  <outline>
    <contour>
      <point x="442" y="237" type="line" smooth="yes"/>
      <point x="458" y="237"/>
      <point x="471" y="250"/>
      <point x="471" y="265" type="curve" smooth="yes"/>
      <point x="471" y="280"/>
      <point x="458" y="293"/>
      <point x="442" y="293" type="curve" smooth="yes"/>
      <point x="88" y="293" type="line" smooth="yes"/>
      <point x="72" y="293"/>
      <point x="59" y="280"/>
      <point x="59" y="265" type="curve" smooth="yes"/>
      <point x="59" y="250"/>
      <point x="72" y="237"/>
      <point x="88" y="237" type="curve" smooth="yes"/>
    </contour>
    <contour>
      <point x="281" y="69"/>
      <point x="296" y="81"/>
      <point x="296" y="97" type="curve" smooth="yes"/>
      <point x="296" y="432" type="line" smooth="yes"/>
      <point x="296" y="448"/>
      <point x="281" y="460"/>
      <point x="265" y="460" type="curve" smooth="yes"/>
      <point x="249" y="460"/>
      <point x="234" y="448"/>
      <point x="234" y="432" type="curve" smooth="yes"/>
      <point x="234" y="97" type="line" smooth="yes"/>
      <point x="234" y="81"/>
      <point x="249" y="69"/>
      <point x="265" y="69" type="curve" smooth="yes"/>
    </contour>
  </outline>
</glyph>
<glyph name="hyphen" format="1">
  <advance width="405"/>
  <unicode hex="002D"/>
  <outline>
    <contour>
      <point x="304" y="192" type="line" smooth="yes"/>
      <point x="320" y="192"/>
      <point x="333" y="204"/>
      <point x="333" y="220" type="curve" smooth="yes"/>
      <point x="333" y="236"/>
      <point x="320" y="248"/>
      <point x="304" y="248" type="curve" smooth="yes"/>
      <point x="101" y="248" type="line" smooth="yes"/>
      <point x="85" y="248"/>
      <point x="72" y="236"/>
      <point x="72" y="220" type="curve" smooth="yes"/>
      <point x="72" y="204"/>
      <point x="85" y="192"/>
      <point x="101" y="192" type="curve" smooth="yes"/>
    </contour>
  </outline>
</glyph>
<glyph name="period" format="1">
  <advance width="210"/>
  <unicode hex="002E"/>
  <outline>
    <contour>
      <point x="135" y="-5"/>
      <point x="159" y="9"/>
      <point x="159" y="53" type="curve" smooth="yes"/>
      <point x="159" y="88"/>
      <point x="134" y="110"/>
      <point x="106" y="110" type="curve" smooth="yes"/>
      <point x="74" y="110"/>
      <point x="54" y="89"/>
      <point x="54" y="53" type="curve" smooth="yes"/>
      <point x="54" y="11"/>
      <point x="81" y="-5"/>
      <point x="107" y="-5" type="curve" smooth="yes"/>
    </contour>
  </outline>
</glyph>
<glyph name="one" format="1">
  <advance width="318"/>
  <unicode hex="0031"/>
  <outline>
    <contour>
      <point x="218" y="-11"/>
      <point x="233" y="2"/>
      <point x="233" y="18" type="curve" smooth="yes"/>
      <point x="233" y="508" type="line" smooth="yes"/>
      <point x="233" y="524"/>
      <point x="218" y="536"/>
      <point x="202" y="536" type="curve" smooth="yes"/>
      <point x="186" y="536"/>
      <point x="171" y="524"/>
      <point x="171" y="508" type="curve" smooth="yes"/>
      <point x="171" y="18" type="line" smooth="yes"/>
      <point x="171" y="2"/>
      <point x="186" y="-11"/>
      <point x="202" y="-11" type="curve" smooth="yes"/>
    </contour>
    <contour>
      <point x="216" y="490" type="line" smooth="yes"/>
      <point x="230" y="498"/>
      <point x="235" y="515"/>
      <point x="228" y="529" type="curve" smooth="yes"/>
      <point x="220" y="542"/>
      <point x="202" y="547"/>
      <point x="188" y="540" type="curve" smooth="yes"/>
      <point x="52" y="468" type="line" smooth="yes"/>
      <point x="38" y="460"/>
      <point x="32" y="443"/>
      <point x="40" y="429" type="curve" smooth="yes"/>
      <point x="48" y="416"/>
      <point x="66" y="410"/>
      <point x="80" y="418" type="curve" smooth="yes"/>
    </contour>
  </outline>
</glyph>
<glyph name="three" format="1">
  <advance width="512"/>
  <unicode hex="0033"/>
  <outline>
    <contour>
      <point x="402" y="-15"/>
      <point x="466" y="60"/>
      <point x="466" y="154" type="curve" smooth="yes"/>
      <point x="466" y="246"/>
      <point x="395" y="315"/>
      <point x="266" y="315" type="curve" smooth="yes"/>
      <point x="213" y="315"/>
      <point x="170" y="306"/>
      <point x="144" y="298" type="curve" smooth="yes"/>
      <point x="129" y="292"/>
      <point x="121" y="276"/>
      <point x="126" y="261" type="curve" smooth="yes"/>
      <point x="132" y="247"/>
      <point x="148" y="239"/>
      <point x="164" y="244" type="curve" smooth="yes"/>
      <point x="184" y="251"/>
      <point x="221" y="258"/>
      <point x="266" y="258" type="curve" smooth="yes"/>
      <point x="349" y="258"/>
      <point x="404" y="218"/>
      <point x="404" y="154" type="curve" smooth="yes"/>
      <point x="404" y="87"/>
      <point x="352" y="42"/>
      <point x="255" y="42" type="curve" smooth="yes"/>
      <point x="194" y="42"/>
      <point x="143" y="53"/>
      <point x="101" y="71" type="curve" smooth="yes"/>
      <point x="87" y="77"/>
      <point x="69" y="71"/>
      <point x="63" y="56" type="curve" smooth="yes"/>
      <point x="56" y="42"/>
      <point x="64" y="25"/>
      <point x="78" y="19" type="curve" smooth="yes"/>
      <point x="125" y="0"/>
      <point x="185" y="-15"/>
      <point x="255" y="-15" type="curve" smooth="yes"/>
    </contour>
    <contour>
      <point x="431" y="486" type="line" smooth="yes"/>
      <point x="442" y="497"/>
      <point x="442" y="516"/>
      <point x="432" y="527" type="curve" smooth="yes"/>
      <point x="420" y="538"/>
      <point x="401" y="539"/>
      <point x="389" y="529" type="curve" smooth="yes"/>
      <point x="138" y="297" type="line" smooth="yes"/>
      <point x="127" y="286"/>
      <point x="127" y="267"/>
      <point x="137" y="256" type="curve" smooth="yes"/>
      <point x="148" y="245"/>
      <point x="168" y="244"/>
      <point x="180" y="255" type="curve" smooth="yes"/>
    </contour>
    <contour>
      <point x="420" y="487" type="line" smooth="yes"/>
      <point x="436" y="487"/>
      <point x="449" y="500"/>
      <point x="449" y="515" type="curve" smooth="yes"/>
      <point x="449" y="531"/>
      <point x="436" y="543"/>
      <point x="420" y="543" type="curve" smooth="yes"/>
      <point x="108" y="543" type="line" smooth="yes"/>
      <point x="92" y="543"/>
      <point x="79" y="531"/>
      <point x="79" y="515" type="curve" smooth="yes"/>
      <point x="79" y="500"/>
      <point x="92" y="487"/>
      <point x="108" y="487" type="curve" smooth="yes"/>
    </contour>
  </outline>
</glyph>
<glyph name="four" format="1">
  <advance width="532"/>
  <unicode hex="0034"/>
  <outline>
    <contour>
      <point x="45" y="113"/>
      <point x="64" y="115"/>
      <point x="74" y="126" type="curve" smooth="yes"/>
      <point x="388" y="498" type="line" smooth="yes"/>
      <point x="398" y="510"/>
      <point x="396" y="528"/>
      <point x="384" y="538" type="curve" smooth="yes"/>
      <point x="371" y="547"/>
      <point x="352" y="546"/>
      <point x="342" y="535" type="curve" smooth="yes"/>
      <point x="28" y="163" type="line" smooth="yes"/>
      <point x="18" y="151"/>
      <point x="20" y="132"/>
      <point x="32" y="123" type="curve" smooth="yes"/>
    </contour>
    <contour>
      <point x="486" y="116" type="line" smooth="yes"/>
      <point x="502" y="116"/>
      <point x="515" y="129"/>
      <point x="515" y="145" type="curve" smooth="yes"/>
      <point x="515" y="160"/>
      <point x="502" y="173"/>
      <point x="486" y="173" type="curve" smooth="yes"/>
      <point x="62" y="173" type="line" smooth="yes"/>
      <point x="46" y="173"/>
      <point x="33" y="160"/>
      <point x="33" y="145" type="curve" smooth="yes"/>
      <point x="33" y="129"/>
      <point x="46" y="116"/>
      <point x="62" y="116" type="curve" smooth="yes"/>
    </contour>
    <contour>
      <point x="388" y="-11"/>
      <point x="403" y="2"/>
      <point x="403" y="18" type="curve" smooth="yes"/>
      <point x="403" y="525" type="line" smooth="yes"/>
      <point x="403" y="540"/>
      <point x="388" y="553"/>
      <point x="372" y="553" type="curve" smooth="yes"/>
      <point x="356" y="553"/>
      <point x="341" y="540"/>
      <point x="341" y="525" type="curve" smooth="yes"/>
      <point x="341" y="18" type="line" smooth="yes"/>
      <point x="341" y="2"/>
      <point x="356" y="-11"/>
      <point x="372" y="-11" type="curve" smooth="yes"/>
    </contour>
  </outline>
</glyph>
<glyph name="five" format="1">
  <advance width="521"/>
  <unicode hex="0035"/>
  <outline>
    <contour>
      <point x="408" y="-15"/>
      <point x="472" y="65"/>
      <point x="472" y="165" type="curve" smooth="yes"/>
      <point x="472" y="260"/>
      <point x="399" y="334"/>
      <point x="271" y="334" type="curve" smooth="yes"/>
      <point x="195" y="334"/>
      <point x="141" y="314"/>
      <point x="104" y="298" type="curve" smooth="yes"/>
      <point x="90" y="291"/>
      <point x="83" y="274"/>
      <point x="90" y="259" type="curve" smooth="yes"/>
      <point x="97" y="246"/>
      <point x="115" y="239"/>
      <point x="130" y="246" type="curve" smooth="yes"/>
      <point x="161" y="261"/>
      <point x="207" y="276"/>
      <point x="271" y="276" type="curve" smooth="yes"/>
      <point x="355" y="276"/>
      <point x="410" y="231"/>
      <point x="410" y="165" type="curve" smooth="yes"/>
      <point x="410" y="95"/>
      <point x="364" y="42"/>
      <point x="266" y="42" type="curve" smooth="yes"/>
      <point x="201" y="42"/>
      <point x="142" y="56"/>
      <point x="100" y="76" type="curve" smooth="yes"/>
      <point x="86" y="82"/>
      <point x="68" y="76"/>
      <point x="61" y="62" type="curve" smooth="yes"/>
      <point x="54" y="48"/>
      <point x="61" y="31"/>
      <point x="76" y="24" type="curve" smooth="yes"/>
      <point x="124" y="3"/>
      <point x="192" y="-15"/>
      <point x="266" y="-15" type="curve" smooth="yes"/>
    </contour>
    <contour>
      <point x="130" y="248"/>
      <point x="147" y="260"/>
      <point x="148" y="275" type="curve" smooth="yes"/>
      <point x="168" y="506" type="line" smooth="yes"/>
      <point x="170" y="521"/>
      <point x="155" y="535"/>
      <point x="140" y="536" type="curve" smooth="yes"/>
      <point x="124" y="538"/>
      <point x="107" y="526"/>
      <point x="106" y="511" type="curve" smooth="yes"/>
      <point x="86" y="281" type="line" smooth="yes"/>
      <point x="84" y="265"/>
      <point x="99" y="251"/>
      <point x="114" y="249" type="curve" smooth="yes"/>
    </contour>
    <contour>
      <point x="408" y="487" type="line" smooth="yes"/>
      <point x="424" y="487"/>
      <point x="437" y="500"/>
      <point x="437" y="515" type="curve" smooth="yes"/>
      <point x="437" y="531"/>
      <point x="424" y="543"/>
      <point x="408" y="543" type="curve" smooth="yes"/>
      <point x="138" y="543" type="line" smooth="yes"/>
      <point x="122" y="543"/>
      <point x="109" y="531"/>
      <point x="109" y="515" type="curve" smooth="yes"/>
      <point x="109" y="500"/>
      <point x="122" y="487"/>
      <point x="138" y="487" type="curve" smooth="yes"/>
    </contour>
  </outline>
</glyph>
<glyph name="eight" format="1">
  <advance width="560"/>
  <unicode hex="0038"/>
  <outline>
    <contour>
      <point x="449" y="-19"/>
      <point x="504" y="61"/>
      <point x="504" y="148" type="curve" smooth="yes"/>
      <point x="504" y="244"/>
      <point x="422" y="315"/>
      <point x="281" y="315" type="curve" smooth="yes"/>
      <point x="132" y="315"/>
      <point x="56" y="244"/>
      <point x="56" y="147" type="curve" smooth="yes"/>
      <point x="56" y="61"/>
      <point x="123" y="-19"/>
      <point x="281" y="-19" type="curve" smooth="yes"/>
    </contour>
    <contour>
      <point x="178" y="38"/>
      <point x="118" y="84"/>
      <point x="118" y="147" type="curve" smooth="yes"/>
      <point x="118" y="217"/>
      <point x="182" y="258"/>
      <point x="281" y="258" type="curve" smooth="yes"/>
      <point x="374" y="258"/>
      <point x="442" y="217"/>
      <point x="442" y="148" type="curve" smooth="yes"/>
      <point x="442" y="84"/>
      <point x="391" y="38"/>
      <point x="281" y="38" type="curve" smooth="yes"/>
    </contour>
    <contour>
      <point x="417" y="258"/>
      <point x="477" y="328"/>
      <point x="477" y="407" type="curve" smooth="yes"/>
      <point x="477" y="490"/>
      <point x="407" y="551"/>
      <point x="281" y="551" type="curve" smooth="yes"/>
      <point x="149" y="551"/>
      <point x="83" y="490"/>
      <point x="83" y="407" type="curve" smooth="yes"/>
      <point x="83" y="328"/>
      <point x="138" y="258"/>
      <point x="281" y="258" type="curve" smooth="yes"/>
    </contour>
    <contour>
      <point x="193" y="315"/>
      <point x="145" y="352"/>
      <point x="145" y="407" type="curve" smooth="yes"/>
      <point x="145" y="464"/>
      <point x="201" y="494"/>
      <point x="281" y="494" type="curve" smooth="yes"/>
      <point x="357" y="494"/>
      <point x="415" y="464"/>
      <point x="415" y="407" type="curve" smooth="yes"/>
      <point x="415" y="352"/>
      <point x="365" y="315"/>
      <point x="281" y="315" type="curve" smooth="yes"/>
    </contour>
  </outline>
</glyph>
<glyph name="semicolon" format="1">
  <advance width="216"/>
  <unicode hex="003B"/>
  <outline>
    <contour>
      <point x="60" y="-133"/>
      <point x="80" y="-130"/>
      <point x="89" y="-118" type="curve" smooth="yes"/>
      <point x="120" y="-77"/>
      <point x="140" y="-24"/>
      <point x="140" y="29" type="curve" smooth="yes"/>
      <point x="140" y="53"/>
      <point x="137" y="74"/>
      <point x="132" y="89" type="curve" smooth="yes"/>
      <point x="128" y="104"/>
      <point x="109" y="111"/>
      <point x="94" y="107" type="curve" smooth="yes"/>
      <point x="79" y="103"/>
      <point x="69" y="86"/>
      <point x="73" y="71" type="curve" smooth="yes"/>
      <point x="76" y="61"/>
      <point x="78" y="46"/>
      <point x="78" y="29" type="curve" smooth="yes"/>
      <point x="78" y="-12"/>
      <point x="64" y="-52"/>
      <point x="41" y="-84" type="curve" smooth="yes"/>
      <point x="31" y="-96"/>
      <point x="35" y="-115"/>
      <point x="48" y="-124" type="curve" smooth="yes"/>
    </contour>
    <contour>
      <point x="134" y="268"/>
      <point x="159" y="283"/>
      <point x="159" y="326" type="curve" smooth="yes"/>
      <point x="159" y="359"/>
      <point x="134" y="384"/>
      <point x="106" y="384" type="curve" smooth="yes"/>
      <point x="74" y="384"/>
      <point x="54" y="360"/>
      <point x="54" y="326" type="curve" smooth="yes"/>
      <point x="54" y="284"/>
      <point x="82" y="268"/>
      <point x="107" y="268" type="curve" smooth="yes"/>
    </contour>
  </outline>
</glyph>
<glyph name="equal" format="1">
  <advance width="531"/>
  <unicode hex="003D"/>
  <outline>
    <contour>
      <point x="442" y="332" type="line" smooth="yes"/>
      <point x="458" y="332"/>
      <point x="471" y="345"/>
      <point x="471" y="360" type="curve" smooth="yes"/>
      <point x="471" y="376"/>
      <point x="458" y="389"/>
      <point x="442" y="389" type="curve" smooth="yes"/>
      <point x="88" y="389" type="line" smooth="yes"/>
      <point x="72" y="389"/>
      <point x="59" y="376"/>
      <point x="59" y="360" type="curve" smooth="yes"/>
      <point x="59" y="345"/>
      <point x="72" y="332"/>
      <point x="88" y="332" type="curve" smooth="yes"/>
    </contour>
    <contour>
      <point x="442" y="129" type="line" smooth="yes"/>
      <point x="458" y="129"/>
      <point x="471" y="142"/>
      <point x="471" y="157" type="curve" smooth="yes"/>
      <point x="471" y="173"/>
      <point x="458" y="186"/>
      <point x="442" y="186" type="curve" smooth="yes"/>
      <point x="88" y="186" type="line" smooth="yes"/>
      <point x="72" y="186"/>
      <point x="59" y="173"/>
      <point x="59" y="157" type="curve" smooth="yes"/>
      <point x="59" y="142"/>
      <point x="72" y="129"/>
      <point x="88" y="129" type="curve" smooth="yes"/>
    </contour>
  </outline>
</glyph>
<glyph name="B" format="1">
  <advance width="528"/>
  <unicode hex="0042"/>
  <outline>
    <contour>
      <point x="279" y="-11" type="line" smooth="yes"/>
      <point x="359" y="-11"/>
      <point x="407" y="12"/>
      <point x="440" y="42" type="curve" smooth="yes"/>
      <point x="469" y="71"/>
      <point x="485" y="110"/>
      <point x="485" y="148" type="curve" smooth="yes"/>
      <point x="485" y="189"/>
      <point x="469" y="225"/>
      <point x="436" y="258" type="curve" smooth="yes"/>
      <point x="402" y="291"/>
      <point x="346" y="313"/>
      <point x="282" y="313" type="curve" smooth="yes"/>
      <point x="126" y="313" type="line" smooth="yes"/>
      <point x="110" y="313"/>
      <point x="97" y="300"/>
      <point x="97" y="284" type="curve" smooth="yes"/>
      <point x="97" y="269"/>
      <point x="110" y="256"/>
      <point x="126" y="256" type="curve" smooth="yes"/>
      <point x="282" y="256" type="line" smooth="yes"/>
      <point x="328" y="256"/>
      <point x="370" y="241"/>
      <point x="394" y="217" type="curve" smooth="yes"/>
      <point x="415" y="197"/>
      <point x="423" y="174"/>
      <point x="423" y="148" type="curve" smooth="yes"/>
      <point x="423" y="125"/>
      <point x="416" y="101"/>
      <point x="398" y="83" type="curve" smooth="yes"/>
      <point x="375" y="61"/>
      <point x="338" y="46"/>
      <point x="279" y="46" type="curve" smooth="yes"/>
      <point x="116" y="46" type="line"/>
      <point x="147" y="18" type="line"/>
      <point x="147" y="515" type="line"/>
      <point x="116" y="487" type="line"/>
      <point x="262" y="487" type="line" smooth="yes"/>
      <point x="304" y="487"/>
      <point x="334" y="474"/>
      <point x="351" y="457" type="curve" smooth="yes"/>
      <point x="364" y="443"/>
      <point x="373" y="421"/>
      <point x="373" y="402" type="curve" smooth="yes"/>
      <point x="373" y="380"/>
      <point x="365" y="358"/>
      <point x="351" y="345" type="curve" smooth="yes"/>
      <point x="336" y="330"/>
      <point x="306" y="315"/>
      <point x="272" y="313" type="curve" smooth="yes"/>
      <point x="256" y="312"/>
      <point x="243" y="298"/>
      <point x="245" y="283" type="curve" smooth="yes"/>
      <point x="246" y="267"/>
      <point x="260" y="255"/>
      <point x="276" y="256" type="curve" smooth="yes"/>
      <point x="327" y="260"/>
      <point x="370" y="282"/>
      <point x="393" y="304" type="curve" smooth="yes"/>
      <point x="417" y="328"/>
      <point x="435" y="363"/>
      <point x="435" y="402" type="curve" smooth="yes"/>
      <point x="435" y="436"/>
      <point x="417" y="474"/>
      <point x="393" y="497" type="curve" smooth="yes"/>
      <point x="366" y="523"/>
      <point x="325" y="543"/>
      <point x="262" y="543" type="curve" smooth="yes"/>
      <point x="116" y="543" type="line" smooth="yes"/>
      <point x="99" y="543"/>
      <point x="85" y="531"/>
      <point x="85" y="515" type="curve" smooth="yes"/>
      <point x="85" y="18" type="line" smooth="yes"/>
      <point x="85" y="2"/>
      <point x="99" y="-11"/>
      <point x="116" y="-11" type="curve" smooth="yes"/>
    </contour>
  </outline>
</glyph>
<glyph name="C" format="1">
  <advance width="568"/>
  <unicode hex="0043"/>
  <outline>
    <contour>
      <point x="404" y="-21"/>
      <point x="457" y="-7"/>
      <point x="499" y="14" type="curve" smooth="yes"/>
      <point x="513" y="21"/>
      <point x="519" y="39"/>
      <point x="512" y="52" type="curve" smooth="yes"/>
      <point x="505" y="66"/>
      <point x="486" y="72"/>
      <point x="473" y="65" type="curve" smooth="yes"/>
      <point x="437" y="46"/>
      <point x="393" y="36"/>
      <point x="344" y="36" type="curve" smooth="yes"/>
      <point x="194" y="36"/>
      <point x="108" y="136"/>
      <point x="108" y="263" type="curve" smooth="yes"/>
      <point x="108" y="401"/>
      <point x="213" y="496"/>
      <point x="338" y="496" type="curve" smooth="yes"/>
      <point x="387" y="496"/>
      <point x="435" y="486"/>
      <point x="467" y="469" type="curve" smooth="yes"/>
      <point x="481" y="462"/>
      <point x="499" y="468"/>
      <point x="507" y="481" type="curve" smooth="yes"/>
      <point x="514" y="494"/>
      <point x="509" y="512"/>
      <point x="495" y="520" type="curve" smooth="yes"/>
      <point x="456" y="540"/>
      <point x="398" y="553"/>
      <point x="338" y="553" type="curve" smooth="yes"/>
      <point x="183" y="553"/>
      <point x="46" y="437"/>
      <point x="46" y="263" type="curve" smooth="yes"/>
      <point x="46" y="102"/>
      <point x="156" y="-21"/>
      <point x="344" y="-21" type="curve" smooth="yes"/>
    </contour>
    <contour>
      <point x="325" y="553" type="move" name="top"/>
    </contour>
    <contour>
      <point x="316" y="-16" type="move" name="bottom"/>
    </contour>
  </outline>
</glyph>
<glyph name="D" format="1">
  <advance width="617"/>
  <unicode hex="0044"/>
  <outline>
    <contour>
      <point x="301" y="-11" type="line" smooth="yes"/>
      <point x="462" y="-11"/>
      <point x="570" y="110"/>
      <point x="570" y="267" type="curve" smooth="yes"/>
      <point x="570" y="432"/>
      <point x="442" y="543"/>
      <point x="301" y="543" type="curve" smooth="yes"/>
      <point x="116" y="543" type="line" smooth="yes"/>
      <point x="99" y="543"/>
      <point x="85" y="531"/>
      <point x="85" y="515" type="curve" smooth="yes"/>
      <point x="85" y="18" type="line" smooth="yes"/>
      <point x="85" y="2"/>
      <point x="99" y="-11"/>
      <point x="116" y="-11" type="curve" smooth="yes"/>
    </contour>
    <contour>
      <point x="147" y="515" type="line"/>
      <point x="116" y="487" type="line"/>
      <point x="301" y="487" type="line" smooth="yes"/>
      <point x="412" y="487"/>
      <point x="508" y="393"/>
      <point x="508" y="267" type="curve" smooth="yes"/>
      <point x="508" y="146"/>
      <point x="430" y="46"/>
      <point x="301" y="46" type="curve" smooth="yes"/>
      <point x="116" y="46" type="line"/>
      <point x="147" y="18" type="line"/>
    </contour>
    <contour>
      <point x="261" y="544" type="move" name="top"/>
    </contour>
  </outline>
</glyph>
<glyph name="E" format="1">
  <advance width="485"/>
  <unicode hex="0045"/>
  <outline>
    <contour>
      <point x="132" y="-11"/>
      <point x="147" y="2"/>
      <point x="147" y="18" type="curve" smooth="yes"/>
      <point x="147" y="515" type="line" smooth="yes"/>
      <point x="147" y="531"/>
      <point x="132" y="543"/>
      <point x="116" y="543" type="curve" smooth="yes"/>
      <point x="100" y="543"/>
      <point x="85" y="531"/>
      <point x="85" y="515" type="curve" smooth="yes"/>
      <point x="85" y="18" type="line" smooth="yes"/>
      <point x="85" y="2"/>
      <point x="100" y="-11"/>
      <point x="116" y="-11" type="curve" smooth="yes"/>
    </contour>
    <contour>
      <point x="409" y="-11" type="line" smooth="yes"/>
      <point x="425" y="-11"/>
      <point x="438" y="2"/>
      <point x="438" y="18" type="curve" smooth="yes"/>
      <point x="438" y="33"/>
      <point x="425" y="46"/>
      <point x="409" y="46" type="curve" smooth="yes"/>
      <point x="125" y="46" type="line" smooth="yes"/>
      <point x="109" y="46"/>
      <point x="96" y="33"/>
      <point x="96" y="18" type="curve" smooth="yes"/>
      <point x="96" y="2"/>
      <point x="109" y="-11"/>
      <point x="125" y="-11" type="curve" smooth="yes"/>
    </contour>
    <contour>
      <point x="362" y="257" type="line" smooth="yes"/>
      <point x="378" y="257"/>
      <point x="391" y="270"/>
      <point x="391" y="285" type="curve" smooth="yes"/>
      <point x="391" y="301"/>
      <point x="378" y="314"/>
      <point x="362" y="314" type="curve" smooth="yes"/>
      <point x="125" y="314" type="line" smooth="yes"/>
      <point x="109" y="314"/>
      <point x="96" y="301"/>
      <point x="96" y="285" type="curve" smooth="yes"/>
      <point x="96" y="270"/>
      <point x="109" y="257"/>
      <point x="125" y="257" type="curve" smooth="yes"/>
    </contour>
    <contour>
      <point x="407" y="487" type="line" smooth="yes"/>
      <point x="423" y="487"/>
      <point x="436" y="500"/>
      <point x="436" y="515" type="curve" smooth="yes"/>
      <point x="436" y="531"/>
      <point x="423" y="543"/>
      <point x="407" y="543" type="curve" smooth="yes"/>
      <point x="125" y="543" type="line" smooth="yes"/>
      <point x="109" y="543"/>
      <point x="96" y="531"/>
      <point x="96" y="515" type="curve" smooth="yes"/>
      <point x="96" y="500"/>
      <point x="109" y="487"/>
      <point x="125" y="487" type="curve" smooth="yes"/>
    </contour>
    <contour>
      <point x="411" y="18" type="move" name="ogonek"/>
    </contour>
    <contour>
      <point x="251" y="544" type="move" name="top"/>
    </contour>
  </outline>
</glyph>
<glyph name="F" format="1">
  <advance width="473"/>
  <unicode hex="0046"/>
  <outline>
    <contour>
      <point x="132" y="-11"/>
      <point x="147" y="2"/>
      <point x="147" y="18" type="curve" smooth="yes"/>
      <point x="147" y="515" type="line" smooth="yes"/>
      <point x="147" y="531"/>
      <point x="132" y="543"/>
      <point x="116" y="543" type="curve" smooth="yes"/>
      <point x="100" y="543"/>
      <point x="85" y="531"/>
      <point x="85" y="515" type="curve" smooth="yes"/>
      <point x="85" y="18" type="line" smooth="yes"/>
      <point x="85" y="2"/>
      <point x="100" y="-11"/>
      <point x="116" y="-11" type="curve" smooth="yes"/>
    </contour>
    <contour>
      <point x="362" y="238" type="line" smooth="yes"/>
      <point x="378" y="238"/>
      <point x="391" y="251"/>
      <point x="391" y="266" type="curve" smooth="yes"/>
      <point x="391" y="281"/>
      <point x="378" y="294"/>
      <point x="362" y="294" type="curve" smooth="yes"/>
      <point x="125" y="294" type="line" smooth="yes"/>
      <point x="109" y="294"/>
      <point x="96" y="281"/>
      <point x="96" y="266" type="curve" smooth="yes"/>
      <point x="96" y="251"/>
      <point x="109" y="238"/>
      <point x="125" y="238" type="curve" smooth="yes"/>
    </contour>
    <contour>
      <point x="415" y="487" type="line" smooth="yes"/>
      <point x="431" y="487"/>
      <point x="444" y="500"/>
      <point x="444" y="515" type="curve" smooth="yes"/>
      <point x="444" y="531"/>
      <point x="431" y="543"/>
      <point x="415" y="543" type="curve" smooth="yes"/>
      <point x="125" y="543" type="line" smooth="yes"/>
      <point x="109" y="543"/>
      <point x="96" y="531"/>
      <point x="96" y="515" type="curve" smooth="yes"/>
      <point x="96" y="500"/>
      <point x="109" y="487"/>
      <point x="125" y="487" type="curve" smooth="yes"/>
    </contour>
  </outline>
</glyph>
<glyph name="G" format="1">
  <advance width="623"/>
  <unicode hex="0047"/>
  <outline>
    <contour>
      <point x="423" y="-21"/>
      <point x="486" y="2"/>
      <point x="540" y="35" type="curve" smooth="yes"/>
      <point x="553" y="43"/>
      <point x="557" y="61"/>
      <point x="549" y="74" type="curve" smooth="yes"/>
      <point x="540" y="87"/>
      <point x="521" y="91"/>
      <point x="508" y="82" type="curve" smooth="yes"/>
      <point x="463" y="55"/>
      <point x="409" y="36"/>
      <point x="336" y="36" type="curve" smooth="yes"/>
      <point x="191" y="36"/>
      <point x="108" y="138"/>
      <point x="108" y="263" type="curve" smooth="yes"/>
      <point x="108" y="401"/>
      <point x="204" y="496"/>
      <point x="339" y="496" type="curve" smooth="yes"/>
      <point x="394" y="496"/>
      <point x="441" y="486"/>
      <point x="481" y="470" type="curve" smooth="yes"/>
      <point x="496" y="464"/>
      <point x="514" y="472"/>
      <point x="519" y="486" type="curve" smooth="yes"/>
      <point x="525" y="501"/>
      <point x="517" y="518"/>
      <point x="502" y="523" type="curve" smooth="yes"/>
      <point x="455" y="540"/>
      <point x="402" y="553"/>
      <point x="339" y="553" type="curve" smooth="yes"/>
      <point x="172" y="553"/>
      <point x="46" y="437"/>
      <point x="46" y="263" type="curve" smooth="yes"/>
      <point x="46" y="104"/>
      <point x="153" y="-21"/>
      <point x="336" y="-21" type="curve" smooth="yes"/>
    </contour>
    <contour>
      <point x="513" y="219" type="line" smooth="yes"/>
      <point x="529" y="219"/>
      <point x="542" y="232"/>
      <point x="542" y="248" type="curve" smooth="yes"/>
      <point x="542" y="263"/>
      <point x="529" y="276"/>
      <point x="513" y="276" type="curve" smooth="yes"/>
      <point x="352" y="276" type="line" smooth="yes"/>
      <point x="336" y="276"/>
      <point x="323" y="263"/>
      <point x="323" y="248" type="curve" smooth="yes"/>
      <point x="323" y="232"/>
      <point x="336" y="219"/>
      <point x="352" y="219" type="curve" smooth="yes"/>
    </contour>
    <contour>
      <point x="541" y="40"/>
      <point x="556" y="53"/>
      <point x="556" y="68" type="curve" smooth="yes"/>
      <point x="556" y="248" type="line" smooth="yes"/>
      <point x="556" y="263"/>
      <point x="541" y="276"/>
      <point x="525" y="276" type="curve" smooth="yes"/>
      <point x="509" y="276"/>
      <point x="494" y="263"/>
      <point x="494" y="248" type="curve" smooth="yes"/>
      <point x="494" y="68" type="line" smooth="yes"/>
      <point x="494" y="53"/>
      <point x="509" y="40"/>
      <point x="525" y="40" type="curve" smooth="yes"/>
    </contour>
    <contour>
      <point x="309" y="552" type="move" name="top"/>
    </contour>
    <contour>
      <point x="323" y="-18" type="move" name="bottom"/>
    </contour>
  </outline>
</glyph>
<glyph name="H" format="1">
  <advance width="637"/>
  <unicode hex="0048"/>
  <outline>
    <contour>
      <point x="536" y="-11"/>
      <point x="551" y="2"/>
      <point x="551" y="18" type="curve" smooth="yes"/>
      <point x="551" y="515" type="line" smooth="yes"/>
      <point x="551" y="531"/>
      <point x="536" y="543"/>
      <point x="520" y="543" type="curve" smooth="yes"/>
      <point x="504" y="543"/>
      <point x="489" y="531"/>
      <point x="489" y="515" type="curve" smooth="yes"/>
      <point x="489" y="18" type="line" smooth="yes"/>
      <point x="489" y="2"/>
      <point x="504" y="-11"/>
      <point x="520" y="-11" type="curve" smooth="yes"/>
    </contour>
    <contour>
      <point x="132" y="-11"/>
      <point x="147" y="2"/>
      <point x="147" y="18" type="curve" smooth="yes"/>
      <point x="147" y="515" type="line" smooth="yes"/>
      <point x="147" y="531"/>
      <point x="132" y="543"/>
      <point x="116" y="543" type="curve" smooth="yes"/>
      <point x="100" y="543"/>
      <point x="85" y="531"/>
      <point x="85" y="515" type="curve" smooth="yes"/>
      <point x="85" y="18" type="line" smooth="yes"/>
      <point x="85" y="2"/>
      <point x="100" y="-11"/>
      <point x="116" y="-11" type="curve" smooth="yes"/>
    </contour>
    <contour>
      <point x="519" y="256" type="line" smooth="yes"/>
      <point x="535" y="256"/>
      <point x="548" y="269"/>
      <point x="548" y="284" type="curve" smooth="yes"/>
      <point x="548" y="300"/>
      <point x="535" y="313"/>
      <point x="519" y="313" type="curve" smooth="yes"/>
      <point x="120" y="313" type="line" smooth="yes"/>
      <point x="104" y="313"/>
      <point x="91" y="300"/>
      <point x="91" y="284" type="curve" smooth="yes"/>
      <point x="91" y="269"/>
      <point x="104" y="256"/>
      <point x="120" y="256" type="curve" smooth="yes"/>
    </contour>
  </outline>
</glyph>
<glyph name="I" format="1">
  <advance width="243"/>
  <unicode hex="0049"/>
  <outline>
    <contour>
      <point x="137" y="-11"/>
      <point x="152" y="2"/>
      <point x="152" y="18" type="curve" smooth="yes"/>
      <point x="152" y="515" type="line" smooth="yes"/>
      <point x="152" y="531"/>
      <point x="137" y="543"/>
      <point x="121" y="543" type="curve" smooth="yes"/>
      <point x="105" y="543"/>
      <point x="90" y="531"/>
      <point x="90" y="515" type="curve" smooth="yes"/>
      <point x="90" y="18" type="line" smooth="yes"/>
      <point x="90" y="2"/>
      <point x="105" y="-11"/>
      <point x="121" y="-11" type="curve" smooth="yes"/>
    </contour>
    <contour>
      <point x="124" y="39" type="move" name="ogonek"/>
    </contour>
    <contour>
      <point x="121" y="-11" type="move" name="bottom"/>
    </contour>
    <contour>
      <point x="121" y="543" type="move" name="top"/>
    </contour>
  </outline>
</glyph>
<glyph name="L" format="1">
  <advance width="456"/>
  <unicode hex="004C"/>
  <outline>
    <contour>
      <point x="132" y="-11"/>
      <point x="147" y="2"/>
      <point x="147" y="18" type="curve" smooth="yes"/>
      <point x="147" y="515" type="line" smooth="yes"/>
      <point x="147" y="531"/>
      <point x="132" y="543"/>
      <point x="116" y="543" type="curve" smooth="yes"/>
      <point x="100" y="543"/>
      <point x="85" y="531"/>
      <point x="85" y="515" type="curve" smooth="yes"/>
      <point x="85" y="18" type="line" smooth="yes"/>
      <point x="85" y="2"/>
      <point x="100" y="-11"/>
      <point x="116" y="-11" type="curve" smooth="yes"/>
    </contour>
    <contour>
      <point x="401" y="-11" type="line" smooth="yes"/>
      <point x="417" y="-11"/>
      <point x="430" y="2"/>
      <point x="430" y="18" type="curve" smooth="yes"/>
      <point x="430" y="33"/>
      <point x="417" y="46"/>
      <point x="401" y="46" type="curve" smooth="yes"/>
      <point x="125" y="46" type="line" smooth="yes"/>
      <point x="109" y="46"/>
      <point x="96" y="33"/>
      <point x="96" y="18" type="curve" smooth="yes"/>
      <point x="96" y="2"/>
      <point x="109" y="-11"/>
      <point x="125" y="-11" type="curve" smooth="yes"/>
    </contour>
    <contour>
      <point x="116" y="543" type="move" name="top"/>
    </contour>
    <contour>
      <point x="256" y="-9" type="move" name="bottom"/>
    </contour>
  </outline>
</glyph>
<glyph name="M" format="1">
  <advance width="835"/>
  <unicode hex="004D"/>
  <outline>
    <contour>
      <point x="441" y="16"/>
      <point x="450" y="34"/>
      <point x="442" y="48" type="curve" smooth="yes"/>
      <point x="372" y="192"/>
      <point x="273" y="393"/>
      <point x="208" y="524" type="curve" smooth="yes"/>
      <point x="201" y="537"/>
      <point x="182" y="544"/>
      <point x="168" y="537" type="curve" smooth="yes"/>
      <point x="154" y="530"/>
      <point x="146" y="512"/>
      <point x="154" y="498" type="curve" smooth="yes"/>
      <point x="219" y="367"/>
      <point x="318" y="166"/>
      <point x="388" y="23" type="curve" smooth="yes"/>
      <point x="395" y="9"/>
      <point x="413" y="3"/>
      <point x="428" y="9" type="curve" smooth="yes"/>
    </contour>
    <contour>
      <point x="110" y="-14"/>
      <point x="126" y="-2"/>
      <point x="128" y="13" type="curve" smooth="yes"/>
      <point x="141" y="130"/>
      <point x="174" y="373"/>
      <point x="200" y="519" type="curve" smooth="yes"/>
      <point x="203" y="534"/>
      <point x="190" y="549"/>
      <point x="174" y="552" type="curve" smooth="yes"/>
      <point x="158" y="554"/>
      <point x="141" y="544"/>
      <point x="138" y="529" type="curve" smooth="yes"/>
      <point x="112" y="382"/>
      <point x="79" y="137"/>
      <point x="66" y="19" type="curve" smooth="yes"/>
      <point x="64" y="3"/>
      <point x="78" y="-11"/>
      <point x="94" y="-13" type="curve" smooth="yes"/>
    </contour>
    <contour>
      <point x="422" y="15"/>
      <point x="441" y="21"/>
      <point x="447" y="35" type="curve" smooth="yes"/>
      <point x="510" y="174"/>
      <point x="593" y="355"/>
      <point x="670" y="504" type="curve" smooth="yes"/>
      <point x="678" y="518"/>
      <point x="670" y="535"/>
      <point x="656" y="542" type="curve" smooth="yes"/>
      <point x="642" y="549"/>
      <point x="623" y="544"/>
      <point x="616" y="530" type="curve" smooth="yes"/>
      <point x="539" y="380"/>
      <point x="454" y="199"/>
      <point x="391" y="59" type="curve" smooth="yes"/>
      <point x="384" y="45"/>
      <point x="393" y="27"/>
      <point x="407" y="21" type="curve" smooth="yes"/>
    </contour>
    <contour>
      <point x="756" y="-10"/>
      <point x="770" y="4"/>
      <point x="768" y="21" type="curve" smooth="yes"/>
      <point x="749" y="157"/>
      <point x="714" y="370"/>
      <point x="682" y="531" type="curve" smooth="yes"/>
      <point x="679" y="546"/>
      <point x="661" y="556"/>
      <point x="645" y="553" type="curve" smooth="yes"/>
      <point x="630" y="550"/>
      <point x="617" y="534"/>
      <point x="620" y="519" type="curve" smooth="yes"/>
      <point x="652" y="361"/>
      <point x="687" y="148"/>
      <point x="706" y="11" type="curve" smooth="yes"/>
      <point x="708" y="-3"/>
      <point x="725" y="-14"/>
      <point x="741" y="-13" type="curve" smooth="yes"/>
    </contour>
  </outline>
</glyph>
<glyph name="V" format="1">
  <advance width="588"/>
  <unicode hex="0056"/>
  <outline>
    <contour>
      <point x="295" y="-25"/>
      <point x="315" y="-20"/>
      <point x="322" y="-5" type="curve" smooth="yes"/>
      <point x="368" y="81"/>
      <point x="500" y="358"/>
      <point x="552" y="505" type="curve" smooth="yes"/>
      <point x="557" y="520"/>
      <point x="548" y="537"/>
      <point x="533" y="542" type="curve" smooth="yes"/>
      <point x="517" y="546"/>
      <point x="499" y="539"/>
      <point x="494" y="525" type="curve" smooth="yes"/>
      <point x="442" y="379"/>
      <point x="314" y="107"/>
      <point x="268" y="21" type="curve" smooth="yes"/>
      <point x="261" y="8"/>
      <point x="267" y="-10"/>
      <point x="282" y="-17" type="curve" smooth="yes"/>
    </contour>
    <contour>
      <point x="320" y="-3"/>
      <point x="326" y="14"/>
      <point x="319" y="27" type="curve" smooth="yes"/>
      <point x="277" y="103"/>
      <point x="137" y="400"/>
      <point x="95" y="525" type="curve" smooth="yes"/>
      <point x="90" y="539"/>
      <point x="72" y="547"/>
      <point x="57" y="543" type="curve" smooth="yes"/>
      <point x="42" y="539"/>
      <point x="32" y="522"/>
      <point x="36" y="507" type="curve" smooth="yes"/>
      <point x="79" y="379"/>
      <point x="223" y="77"/>
      <point x="265" y="0" type="curve" smooth="yes"/>
      <point x="273" y="-14"/>
      <point x="292" y="-19"/>
      <point x="306" y="-11" type="curve" smooth="yes"/>
    </contour>
  </outline>
</glyph>
<glyph name="X" format="1">
  <advance width="565"/>
  <unicode hex="0058"/>
  <outline>
    <contour>
      <point x="520" y="3"/>
      <point x="524" y="22"/>
      <point x="514" y="35" type="curve" smooth="yes"/>
      <point x="452" y="120"/>
      <point x="215" y="387"/>
      <point x="114" y="531" type="curve" smooth="yes"/>
      <point x="105" y="544"/>
      <point x="87" y="547"/>
      <point x="74" y="538" type="curve" smooth="yes"/>
      <point x="61" y="530"/>
      <point x="56" y="512"/>
      <point x="65" y="499" type="curve" smooth="yes"/>
      <point x="166" y="355"/>
      <point x="403" y="88"/>
      <point x="466" y="1" type="curve" smooth="yes"/>
      <point x="475" y="-11"/>
      <point x="494" y="-15"/>
      <point x="507" y="-5" type="curve" smooth="yes"/>
    </contour>
    <contour>
      <point x="71" y="-14"/>
      <point x="91" y="-12"/>
      <point x="100" y="0" type="curve" smooth="yes"/>
      <point x="183" y="110"/>
      <point x="404" y="362"/>
      <point x="494" y="499" type="curve" smooth="yes"/>
      <point x="503" y="512"/>
      <point x="498" y="531"/>
      <point x="485" y="539" type="curve" smooth="yes"/>
      <point x="472" y="547"/>
      <point x="452" y="544"/>
      <point x="443" y="531" type="curve" smooth="yes"/>
      <point x="354" y="394"/>
      <point x="135" y="145"/>
      <point x="52" y="35" type="curve" smooth="yes"/>
      <point x="43" y="22"/>
      <point x="46" y="4"/>
      <point x="59" y="-5" type="curve" smooth="yes"/>
    </contour>
  </outline>
</glyph>
<glyph name="Z" format="1">
  <advance width="565"/>
  <unicode hex="005A"/>
  <outline>
    <contour>
      <point x="82" y="-7"/>
      <point x="102" y="-3"/>
      <point x="110" y="10" type="curve" smooth="yes"/>
      <point x="165" y="94"/>
      <point x="431" y="402"/>
      <point x="497" y="499" type="curve" smooth="yes"/>
      <point x="506" y="512"/>
      <point x="501" y="531"/>
      <point x="488" y="539" type="curve" smooth="yes"/>
      <point x="475" y="547"/>
      <point x="456" y="544"/>
      <point x="447" y="531" type="curve" smooth="yes"/>
      <point x="381" y="433"/>
      <point x="114" y="125"/>
      <point x="59" y="42" type="curve" smooth="yes"/>
      <point x="51" y="28"/>
      <point x="56" y="10"/>
      <point x="69" y="2" type="curve" smooth="yes"/>
    </contour>
    <contour>
      <point x="485" y="-11" type="line" smooth="yes"/>
      <point x="501" y="-11"/>
      <point x="514" y="2"/>
      <point x="514" y="18" type="curve" smooth="yes"/>
      <point x="514" y="33"/>
      <point x="501" y="46"/>
      <point x="485" y="46" type="curve" smooth="yes"/>
      <point x="80" y="46" type="line" smooth="yes"/>
      <point x="64" y="46"/>
      <point x="51" y="33"/>
      <point x="51" y="18" type="curve" smooth="yes"/>
      <point x="51" y="2"/>
      <point x="64" y="-11"/>
      <point x="80" y="-11" type="curve" smooth="yes"/>
    </contour>
    <contour>
      <point x="461" y="487" type="line" smooth="yes"/>
      <point x="477" y="487"/>
      <point x="490" y="500"/>
      <point x="490" y="515" type="curve" smooth="yes"/>
      <point x="490" y="531"/>
      <point x="477" y="543"/>
      <point x="461" y="543" type="curve" smooth="yes"/>
      <point x="94" y="543" type="line" smooth="yes"/>
      <point x="78" y="543"/>
      <point x="65" y="531"/>
      <point x="65" y="515" type="curve" smooth="yes"/>
      <point x="65" y="500"/>
      <point x="78" y="487"/>
      <point x="94" y="487" type="curve" smooth="yes"/>
    </contour>
    <contour>
      <point x="274" y="544" type="move" name="top"/>
    </contour>
  </outline>
</glyph>
<glyph name="bracketleft" format="1">
  <advance width="326"/>
  <unicode hex="005B"/>
  <outline>
    <contour>
      <point x="232" y="-112" type="line" smooth="yes"/>
      <point x="248" y="-112"/>
      <point x="261" y="-99"/>
      <point x="261" y="-84" type="curve" smooth="yes"/>
      <point x="261" y="-68"/>
      <point x="248" y="-56"/>
      <point x="232" y="-56" type="curve" smooth="yes"/>
      <point x="90" y="-56" type="line"/>
      <point x="121" y="-84" type="line"/>
      <point x="121" y="613" type="line"/>
      <point x="90" y="585" type="line"/>
      <point x="232" y="585" type="line" smooth="yes"/>
      <point x="248" y="585"/>
      <point x="261" y="597"/>
      <point x="261" y="613" type="curve" smooth="yes"/>
      <point x="261" y="628"/>
      <point x="248" y="641"/>
      <point x="232" y="641" type="curve" smooth="yes"/>
      <point x="90" y="641" type="line" smooth="yes"/>
      <point x="73" y="641"/>
      <point x="59" y="628"/>
      <point x="59" y="613" type="curve" smooth="yes"/>
      <point x="59" y="-84" type="line" smooth="yes"/>
      <point x="59" y="-99"/>
      <point x="73" y="-112"/>
      <point x="90" y="-112" type="curve" smooth="yes"/>
    </contour>
  </outline>
</glyph>
<glyph name="backslash" format="1">
  <advance width="389"/>
  <unicode hex="005C"/>
  <outline>
    <contour>
      <point x="353" y="-87"/>
      <point x="362" y="-70"/>
      <point x="357" y="-55" type="curve" smooth="yes"/>
      <point x="96" y="642" type="line" smooth="yes"/>
      <point x="90" y="657"/>
      <point x="71" y="664"/>
      <point x="57" y="659" type="curve" smooth="yes"/>
      <point x="42" y="653"/>
      <point x="33" y="636"/>
      <point x="38" y="622" type="curve" smooth="yes"/>
      <point x="299" y="-75" type="line" smooth="yes"/>
      <point x="304" y="-90"/>
      <point x="323" y="-96"/>
      <point x="338" y="-92" type="curve" smooth="yes"/>
    </contour>
  </outline>
</glyph>
<glyph name="asciicircum" format="1">
  <advance width="489"/>
  <unicode hex="005E"/>
  <outline>
    <contour>
      <point x="424" y="226"/>
      <point x="431" y="244"/>
      <point x="424" y="257" type="curve" smooth="yes"/>
      <point x="380" y="339"/>
      <point x="329" y="437"/>
      <point x="277" y="532" type="curve" smooth="yes"/>
      <point x="270" y="545"/>
      <point x="250" y="550"/>
      <point x="236" y="543" type="curve" smooth="yes"/>
      <point x="222" y="536"/>
      <point x="216" y="518"/>
      <point x="223" y="504" type="curve" smooth="yes"/>
      <point x="275" y="410"/>
      <point x="326" y="312"/>
      <point x="370" y="230" type="curve" smooth="yes"/>
      <point x="377" y="216"/>
      <point x="397" y="211"/>
      <point x="410" y="218" type="curve" smooth="yes"/>
    </contour>
    <contour>
      <point x="94" y="211"/>
      <point x="113" y="216"/>
      <point x="120" y="230" type="curve" smooth="yes"/>
      <point x="163" y="312"/>
      <point x="217" y="410"/>
      <point x="267" y="505" type="curve" smooth="yes"/>
      <point x="274" y="518"/>
      <point x="267" y="536"/>
      <point x="253" y="543" type="curve" smooth="yes"/>
      <point x="240" y="550"/>
      <point x="220" y="545"/>
      <point x="213" y="531" type="curve" smooth="yes"/>
      <point x="163" y="437"/>
      <point x="109" y="339"/>
      <point x="66" y="256" type="curve" smooth="yes"/>
      <point x="59" y="243"/>
      <point x="65" y="226"/>
      <point x="80" y="218" type="curve" smooth="yes"/>
    </contour>
  </outline>
</glyph>
<glyph name="underscore" format="1">
  <advance width="494"/>
  <unicode hex="005F"/>
  <outline>
    <contour>
      <point x="465" y="-120" type="line" smooth="yes"/>
      <point x="481" y="-120"/>
      <point x="494" y="-107"/>
      <point x="494" y="-92" type="curve" smooth="yes"/>
      <point x="494" y="-76"/>
      <point x="481" y="-63"/>
      <point x="465" y="-63" type="curve" smooth="yes"/>
      <point x="29" y="-63" type="line" smooth="yes"/>
      <point x="13" y="-63"/>
      <point x="0" y="-76"/>
      <point x="0" y="-92" type="curve" smooth="yes"/>
      <point x="0" y="-107"/>
      <point x="13" y="-120"/>
      <point x="29" y="-120" type="curve" smooth="yes"/>
    </contour>
  </outline>
</glyph>
<glyph name="e" format="1">
  <advance width="471"/>
  <unicode hex="0065"/>
  <outline>
    <contour>
      <point x="308" y="-8"/>
      <point x="348" y="3"/>
      <point x="378" y="12" type="curve" smooth="yes"/>
      <point x="393" y="17"/>
      <point x="401" y="35"/>
      <point x="395" y="49" type="curve" smooth="yes"/>
      <point x="390" y="63"/>
      <point x="373" y="70"/>
      <point x="358" y="65" type="curve" smooth="yes"/>
      <point x="333" y="56"/>
      <point x="300" y="49"/>
      <point x="266" y="49" type="curve" smooth="yes"/>
      <point x="169" y="49"/>
      <point x="100" y="97"/>
      <point x="100" y="191" type="curve" smooth="yes"/>
      <point x="100" y="280"/>
      <point x="162" y="344"/>
      <point x="245" y="344" type="curve" smooth="yes"/>
      <point x="310" y="344"/>
      <point x="357" y="297"/>
      <point x="357" y="259" type="curve" smooth="yes"/>
      <point x="357" y="233"/>
      <point x="337" y="223"/>
      <point x="302" y="223" type="curve" smooth="yes"/>
      <point x="82" y="223" type="line" smooth="yes"/>
      <point x="66" y="223"/>
      <point x="53" y="211"/>
      <point x="53" y="195" type="curve" smooth="yes"/>
      <point x="53" y="180"/>
      <point x="66" y="167"/>
      <point x="82" y="167" type="curve" smooth="yes"/>
      <point x="302" y="167" type="line" smooth="yes"/>
      <point x="393" y="167"/>
      <point x="419" y="206"/>
      <point x="419" y="259" type="curve" smooth="yes"/>
      <point x="419" y="318"/>
      <point x="354" y="400"/>
      <point x="245" y="400" type="curve" smooth="yes"/>
      <point x="131" y="400"/>
      <point x="38" y="318"/>
      <point x="38" y="191" type="curve" smooth="yes"/>
      <point x="38" y="62"/>
      <point x="131" y="-8"/>
      <point x="266" y="-8" type="curve" smooth="yes"/>
    </contour>
    <contour>
      <point x="369" y="41" type="move" name="ogonek"/>
    </contour>
    <contour>
      <point x="243" y="-8" type="move" name="bottom"/>
    </contour>
    <contour>
      <point x="236" y="401" type="move" name="top"/>
    </contour>
  </outline>
</glyph>
<glyph name="f" format="1">
  <advance width="308"/>
  <unicode hex="0066"/>
  <outline>
    <contour>
      <point x="144" y="-12"/>
      <point x="159" y="1"/>
      <point x="159" y="17" type="curve" smooth="yes"/>
      <point x="159" y="442" type="line" smooth="yes"/>
      <point x="159" y="499"/>
      <point x="187" y="534"/>
      <point x="272" y="539" type="curve" smooth="yes"/>
      <point x="288" y="540"/>
      <point x="301" y="553"/>
      <point x="300" y="568" type="curve" smooth="yes"/>
      <point x="299" y="584"/>
      <point x="285" y="596"/>
      <point x="270" y="595" type="curve" smooth="yes"/>
      <point x="134" y="588"/>
      <point x="97" y="529"/>
      <point x="97" y="442" type="curve" smooth="yes"/>
      <point x="97" y="17" type="line" smooth="yes"/>
      <point x="97" y="1"/>
      <point x="112" y="-12"/>
      <point x="128" y="-12" type="curve" smooth="yes"/>
    </contour>
    <contour>
      <point x="273" y="339" type="line" smooth="yes"/>
      <point x="289" y="339"/>
      <point x="302" y="352"/>
      <point x="302" y="367" type="curve" smooth="yes"/>
      <point x="302" y="383"/>
      <point x="289" y="396"/>
      <point x="273" y="396" type="curve" smooth="yes"/>
      <point x="35" y="396" type="line" smooth="yes"/>
      <point x="19" y="396"/>
      <point x="6" y="383"/>
      <point x="6" y="367" type="curve" smooth="yes"/>
      <point x="6" y="352"/>
      <point x="19" y="339"/>
      <point x="35" y="339" type="curve" smooth="yes"/>
    </contour>
  </outline>
</glyph>
<glyph name="g" format="1">
  <advance width="512"/>
  <unicode hex="0067"/>
  <outline>
    <contour>
      <point x="356" y="-189"/>
      <point x="441" y="-86"/>
      <point x="441" y="72" type="curve" smooth="yes"/>
      <point x="441" y="376" type="line" smooth="yes"/>
      <point x="441" y="392"/>
      <point x="426" y="405"/>
      <point x="410" y="405" type="curve" smooth="yes"/>
      <point x="394" y="405"/>
      <point x="379" y="392"/>
      <point x="379" y="376" type="curve" smooth="yes"/>
      <point x="379" y="72" type="line" smooth="yes"/>
      <point x="379" y="-51"/>
      <point x="314" y="-132"/>
      <point x="167" y="-132" type="curve" smooth="yes"/>
      <point x="151" y="-132"/>
      <point x="138" y="-145"/>
      <point x="138" y="-160" type="curve" smooth="yes"/>
      <point x="138" y="-175"/>
      <point x="151" y="-189"/>
      <point x="167" y="-189" type="curve" smooth="yes"/>
    </contour>
    <contour>
      <point x="302" y="10"/>
      <point x="381" y="50"/>
      <point x="434" y="132" type="curve" smooth="yes"/>
      <point x="443" y="145"/>
      <point x="438" y="163"/>
      <point x="425" y="172" type="curve" smooth="yes"/>
      <point x="412" y="180"/>
      <point x="392" y="176"/>
      <point x="383" y="164" type="curve" smooth="yes"/>
      <point x="343" y="101"/>
      <point x="284" y="67"/>
      <point x="224" y="67" type="curve" smooth="yes"/>
      <point x="163" y="67"/>
      <point x="106" y="107"/>
      <point x="106" y="192" type="curve" smooth="yes"/>
      <point x="106" y="286"/>
      <point x="181" y="348"/>
      <point x="260" y="348" type="curve" smooth="yes"/>
      <point x="313" y="348"/>
      <point x="347" y="336"/>
      <point x="397" y="312" type="curve" smooth="yes"/>
      <point x="412" y="306"/>
      <point x="430" y="312"/>
      <point x="436" y="326" type="curve" smooth="yes"/>
      <point x="443" y="340"/>
      <point x="436" y="357"/>
      <point x="423" y="364" type="curve" smooth="yes"/>
      <point x="363" y="392"/>
      <point x="322" y="405"/>
      <point x="260" y="405" type="curve" smooth="yes"/>
      <point x="151" y="405"/>
      <point x="44" y="324"/>
      <point x="44" y="192" type="curve" smooth="yes"/>
      <point x="44" y="62"/>
      <point x="135" y="10"/>
      <point x="224" y="10" type="curve" smooth="yes"/>
    </contour>
    <contour>
      <point x="262" y="407" type="move" name="top"/>
    </contour>
  </outline>
</glyph>
<glyph name="l" format="1">
  <advance width="218"/>
  <unicode hex="006C"/>
  <outline>
    <contour>
      <point x="125" y="-12"/>
      <point x="140" y="1"/>
      <point x="140" y="17" type="curve" smooth="yes"/>
      <point x="140" y="542" type="line" smooth="yes"/>
      <point x="140" y="557"/>
      <point x="125" y="570"/>
      <point x="109" y="570" type="curve" smooth="yes"/>
      <point x="93" y="570"/>
      <point x="78" y="557"/>
      <point x="78" y="542" type="curve" smooth="yes"/>
      <point x="78" y="17" type="line" smooth="yes"/>
      <point x="78" y="1"/>
      <point x="93" y="-12"/>
      <point x="109" y="-12" type="curve" smooth="yes"/>
    </contour>
    <contour>
      <point x="109" y="570" type="move" name="top"/>
    </contour>
    <contour>
      <point x="108" y="-11" type="move" name="bottom"/>
    </contour>
  </outline>
</glyph>
<glyph name="p" format="1">
  <advance width="512"/>
  <unicode hex="0070"/>
  <outline>
    <contour>
      <point x="384" y="-3"/>
      <point x="470" y="84"/>
      <point x="470" y="201" type="curve" smooth="yes"/>
      <point x="470" y="336"/>
      <point x="377" y="405"/>
      <point x="278" y="405" type="curve" smooth="yes"/>
      <point x="201" y="405"/>
      <point x="133" y="358"/>
      <point x="79" y="283" type="curve" smooth="yes"/>
      <point x="70" y="271"/>
      <point x="74" y="253"/>
      <point x="88" y="244" type="curve" smooth="yes"/>
      <point x="100" y="235"/>
      <point x="119" y="238"/>
      <point x="128" y="251" type="curve" smooth="yes"/>
      <point x="169" y="306"/>
      <point x="219" y="348"/>
      <point x="278" y="348" type="curve" smooth="yes"/>
      <point x="349" y="348"/>
      <point x="408" y="294"/>
      <point x="408" y="201" type="curve" smooth="yes"/>
      <point x="408" y="119"/>
      <point x="352" y="54"/>
      <point x="265" y="54" type="curve" smooth="yes"/>
      <point x="215" y="54"/>
      <point x="164" y="79"/>
      <point x="122" y="113" type="curve" smooth="yes"/>
      <point x="109" y="123"/>
      <point x="90" y="121"/>
      <point x="80" y="109" type="curve" smooth="yes"/>
      <point x="70" y="97"/>
      <point x="72" y="78"/>
      <point x="84" y="68" type="curve" smooth="yes"/>
      <point x="138" y="26"/>
      <point x="203" y="-3"/>
      <point x="265" y="-3" type="curve" smooth="yes"/>
    </contour>
    <contour>
      <point x="119" y="-198"/>
      <point x="134" y="-185"/>
      <point x="134" y="-170" type="curve" smooth="yes"/>
      <point x="134" y="376" type="line" smooth="yes"/>
      <point x="134" y="392"/>
      <point x="119" y="405"/>
      <point x="103" y="405" type="curve" smooth="yes"/>
      <point x="87" y="405"/>
      <point x="72" y="392"/>
      <point x="72" y="376" type="curve" smooth="yes"/>
      <point x="72" y="-170" type="line" smooth="yes"/>
      <point x="72" y="-185"/>
      <point x="87" y="-198"/>
      <point x="103" y="-198" type="curve" smooth="yes"/>
    </contour>
  </outline>
</glyph>
<glyph name="q" format="1">
  <advance width="514"/>
  <unicode hex="0071"/>
  <outline>
    <contour>
      <point x="306" y="-3"/>
      <point x="382" y="36"/>
      <point x="436" y="122" type="curve" smooth="yes"/>
      <point x="445" y="135"/>
      <point x="440" y="153"/>
      <point x="427" y="161" type="curve" smooth="yes"/>
      <point x="413" y="170"/>
      <point x="394" y="166"/>
      <point x="385" y="152" type="curve" smooth="yes"/>
      <point x="344" y="88"/>
      <point x="288" y="54"/>
      <point x="230" y="54" type="curve" smooth="yes"/>
      <point x="164" y="54"/>
      <point x="106" y="105"/>
      <point x="106" y="186" type="curve" smooth="yes"/>
      <point x="106" y="285"/>
      <point x="176" y="348"/>
      <point x="261" y="348" type="curve" smooth="yes"/>
      <point x="315" y="348"/>
      <point x="357" y="335"/>
      <point x="396" y="310" type="curve" smooth="yes"/>
      <point x="409" y="302"/>
      <point x="428" y="306"/>
      <point x="437" y="319" type="curve" smooth="yes"/>
      <point x="445" y="331"/>
      <point x="441" y="350"/>
      <point x="428" y="358" type="curve" smooth="yes"/>
      <point x="380" y="389"/>
      <point x="327" y="405"/>
      <point x="261" y="405" type="curve" smooth="yes"/>
      <point x="146" y="405"/>
      <point x="44" y="325"/>
      <point x="44" y="186" type="curve" smooth="yes"/>
      <point x="44" y="65"/>
      <point x="136" y="-3"/>
      <point x="230" y="-3" type="curve" smooth="yes"/>
    </contour>
    <contour>
      <point x="428" y="-198"/>
      <point x="443" y="-185"/>
      <point x="443" y="-170" type="curve" smooth="yes"/>
      <point x="443" y="376" type="line" smooth="yes"/>
      <point x="443" y="392"/>
      <point x="428" y="405"/>
      <point x="412" y="405" type="curve" smooth="yes"/>
      <point x="396" y="405"/>
      <point x="381" y="392"/>
      <point x="381" y="376" type="curve" smooth="yes"/>
      <point x="381" y="-170" type="line" smooth="yes"/>
      <point x="381" y="-185"/>
      <point x="396" y="-198"/>
      <point x="412" y="-198" type="curve" smooth="yes"/>
    </contour>
  </outline>
</glyph>
<glyph name="u" format="1">
  <advance width="496"/>
  <unicode hex="0075"/>
  <outline>
    <contour>
      <point x="284" y="-8"/>
      <point x="363" y="47"/>
      <point x="413" y="114" type="curve" smooth="yes"/>
      <point x="423" y="127"/>
      <point x="419" y="146"/>
      <point x="406" y="154" type="curve" smooth="yes"/>
      <point x="393" y="164"/>
      <point x="374" y="160"/>
      <point x="365" y="148" type="curve" smooth="yes"/>
      <point x="327" y="96"/>
      <point x="268" y="49"/>
      <point x="210" y="49" type="curve" smooth="yes"/>
      <point x="155" y="49"/>
      <point x="123" y="87"/>
      <point x="123" y="167" type="curve" smooth="yes"/>
      <point x="123" y="372" type="line" smooth="yes"/>
      <point x="123" y="388"/>
      <point x="108" y="401"/>
      <point x="92" y="401" type="curve" smooth="yes"/>
      <point x="76" y="401"/>
      <point x="61" y="388"/>
      <point x="61" y="372" type="curve" smooth="yes"/>
      <point x="61" y="167" type="line" smooth="yes"/>
      <point x="61" y="31"/>
      <point x="129" y="-8"/>
      <point x="210" y="-8" type="curve" smooth="yes"/>
    </contour>
    <contour>
      <point x="409" y="-8"/>
      <point x="424" y="5"/>
      <point x="424" y="21" type="curve" smooth="yes"/>
      <point x="424" y="372" type="line" smooth="yes"/>
      <point x="424" y="388"/>
      <point x="409" y="401"/>
      <point x="393" y="401" type="curve" smooth="yes"/>
      <point x="377" y="401"/>
      <point x="362" y="388"/>
      <point x="362" y="372" type="curve" smooth="yes"/>
      <point x="362" y="21" type="line" smooth="yes"/>
      <point x="362" y="5"/>
      <point x="377" y="-8"/>
      <point x="393" y="-8" type="curve" smooth="yes"/>
    </contour>
    <contour>
      <point x="396" y="30" type="move" name="ogonek"/>
    </contour>
    <contour>
      <point x="236" y="396" type="move" name="top"/>
    </contour>
  </outline>
</glyph>
<glyph name="v" format="1">
  <advance width="448"/>
  <unicode hex="0076"/>
  <outline>
    <contour>
      <point x="231" y="-12" type="line" smooth="yes"/>
      <point x="240" y="-12"/>
      <point x="252" y="-6"/>
      <point x="257" y="2" type="curve" smooth="yes"/>
      <point x="312" y="92"/>
      <point x="381" y="247"/>
      <point x="424" y="362" type="curve" smooth="yes"/>
      <point x="429" y="377"/>
      <point x="420" y="394"/>
      <point x="405" y="399" type="curve" smooth="yes"/>
      <point x="390" y="404"/>
      <point x="371" y="397"/>
      <point x="366" y="383" type="curve" smooth="yes"/>
      <point x="325" y="271"/>
      <point x="258" y="119"/>
      <point x="205" y="32" type="curve"/>
      <point x="231" y="45" type="line"/>
      <point x="227" y="45" type="line"/>
      <point x="253" y="32" type="line"/>
      <point x="199" y="120"/>
      <point x="143" y="228"/>
      <point x="82" y="383" type="curve" smooth="yes"/>
      <point x="76" y="397"/>
      <point x="57" y="405"/>
      <point x="42" y="399" type="curve" smooth="yes"/>
      <point x="28" y="394"/>
      <point x="18" y="376"/>
      <point x="24" y="362" type="curve" smooth="yes"/>
      <point x="87" y="202"/>
      <point x="145" y="92"/>
      <point x="201" y="2" type="curve" smooth="yes"/>
      <point x="206" y="-6"/>
      <point x="217" y="-12"/>
      <point x="227" y="-12" type="curve" smooth="yes"/>
    </contour>
  </outline>
</glyph>
<glyph name="w" format="1">
  <advance width="708"/>
  <unicode hex="0077"/>
  <outline>
    <contour>
      <point x="513" y="-12" type="line" smooth="yes"/>
      <point x="524" y="-12"/>
      <point x="536" y="-4"/>
      <point x="541" y="5" type="curve" smooth="yes"/>
      <point x="583" y="95"/>
      <point x="640" y="238"/>
      <point x="675" y="363" type="curve" smooth="yes"/>
      <point x="679" y="377"/>
      <point x="668" y="393"/>
      <point x="652" y="398" type="curve" smooth="yes"/>
      <point x="638" y="402"/>
      <point x="620" y="393"/>
      <point x="615" y="378" type="curve" smooth="yes"/>
      <point x="581" y="256"/>
      <point x="525" y="117"/>
      <point x="485" y="28" type="curve"/>
      <point x="513" y="45" type="line"/>
      <point x="511" y="45" type="line"/>
      <point x="538" y="30" type="line"/>
      <point x="490" y="118"/>
      <point x="435" y="235"/>
      <point x="387" y="371" type="curve" smooth="yes"/>
      <point x="381" y="385"/>
      <point x="363" y="392"/>
      <point x="348" y="388" type="curve" smooth="yes"/>
      <point x="333" y="382"/>
      <point x="324" y="366"/>
      <point x="329" y="351" type="curve" smooth="yes"/>
      <point x="379" y="212"/>
      <point x="436" y="93"/>
      <point x="484" y="3" type="curve" smooth="yes"/>
      <point x="488" y="-5"/>
      <point x="500" y="-12"/>
      <point x="511" y="-12" type="curve" smooth="yes"/>
    </contour>
    <contour>
      <point x="198" y="-11" type="line" smooth="yes"/>
      <point x="209" y="-11"/>
      <point x="221" y="-4"/>
      <point x="225" y="4" type="curve" smooth="yes"/>
      <point x="271" y="95"/>
      <point x="344" y="239"/>
      <point x="379" y="352" type="curve" smooth="yes"/>
      <point x="384" y="366"/>
      <point x="374" y="383"/>
      <point x="359" y="388" type="curve" smooth="yes"/>
      <point x="344" y="392"/>
      <point x="325" y="384"/>
      <point x="320" y="370" type="curve" smooth="yes"/>
      <point x="286" y="259"/>
      <point x="215" y="118"/>
      <point x="171" y="31" type="curve"/>
      <point x="198" y="46" type="line"/>
      <point x="196" y="46" type="line"/>
      <point x="224" y="30" type="line"/>
      <point x="181" y="118"/>
      <point x="132" y="245"/>
      <point x="93" y="379" type="curve" smooth="yes"/>
      <point x="89" y="394"/>
      <point x="71" y="403"/>
      <point x="56" y="399" type="curve" smooth="yes"/>
      <point x="41" y="394"/>
      <point x="30" y="378"/>
      <point x="34" y="364" type="curve" smooth="yes"/>
      <point x="73" y="224"/>
      <point x="125" y="95"/>
      <point x="168" y="5" type="curve" smooth="yes"/>
      <point x="173" y="-3"/>
      <point x="185" y="-11"/>
      <point x="196" y="-11" type="curve" smooth="yes"/>
    </contour>
    <contour>
      <point x="352" y="389" type="move" name="top"/>
    </contour>
  </outline>
</glyph>
<glyph name="x" format="1">
  <advance width="443"/>
  <unicode hex="0078"/>
  <outline>
    <contour>
      <point x="421" y="9"/>
      <point x="423" y="28"/>
      <point x="412" y="40" type="curve" smooth="yes"/>
      <point x="318" y="146"/>
      <point x="172" y="296"/>
      <point x="90" y="391" type="curve" smooth="yes"/>
      <point x="79" y="402"/>
      <point x="60" y="404"/>
      <point x="48" y="394" type="curve" smooth="yes"/>
      <point x="36" y="384"/>
      <point x="34" y="365"/>
      <point x="44" y="354" type="curve" smooth="yes"/>
      <point x="126" y="259"/>
      <point x="274" y="108"/>
      <point x="368" y="1" type="curve" smooth="yes"/>
      <point x="378" y="-10"/>
      <point x="397" y="-11"/>
      <point x="409" y="0" type="curve" smooth="yes"/>
    </contour>
    <contour>
      <point x="46" y="-11"/>
      <point x="65" y="-10"/>
      <point x="75" y="1" type="curve" smooth="yes"/>
      <point x="143" y="78"/>
      <point x="310" y="253"/>
      <point x="393" y="355" type="curve" smooth="yes"/>
      <point x="402" y="366"/>
      <point x="400" y="385"/>
      <point x="387" y="395" type="curve" smooth="yes"/>
      <point x="375" y="404"/>
      <point x="355" y="402"/>
      <point x="345" y="390" type="curve" smooth="yes"/>
      <point x="264" y="290"/>
      <point x="99" y="115"/>
      <point x="31" y="40" type="curve" smooth="yes"/>
      <point x="20" y="28"/>
      <point x="22" y="9"/>
      <point x="34" y="0" type="curve" smooth="yes"/>
    </contour>
  </outline>
</glyph>
<glyph name="z" format="1">
  <advance width="440"/>
  <unicode hex="007A"/>
  <outline>
    <contour>
      <point x="61" y="-2"/>
      <point x="80" y="0"/>
      <point x="91" y="11" type="curve" smooth="yes"/>
      <point x="389" y="354" type="line" smooth="yes"/>
      <point x="399" y="365"/>
      <point x="397" y="384"/>
      <point x="385" y="394" type="curve" smooth="yes"/>
      <point x="373" y="404"/>
      <point x="354" y="402"/>
      <point x="343" y="391" type="curve" smooth="yes"/>
      <point x="45" y="48" type="line" smooth="yes"/>
      <point x="35" y="37"/>
      <point x="37" y="18"/>
      <point x="49" y="8" type="curve" smooth="yes"/>
    </contour>
    <contour>
      <point x="378" y="-8" type="line" smooth="yes"/>
      <point x="394" y="-8"/>
      <point x="407" y="5"/>
      <point x="407" y="21" type="curve" smooth="yes"/>
      <point x="407" y="36"/>
      <point x="394" y="49"/>
      <point x="378" y="49" type="curve" smooth="yes"/>
      <point x="62" y="49" type="line" smooth="yes"/>
      <point x="46" y="49"/>
      <point x="33" y="36"/>
      <point x="33" y="21" type="curve" smooth="yes"/>
      <point x="33" y="5"/>
      <point x="46" y="-8"/>
      <point x="62" y="-8" type="curve" smooth="yes"/>
    </contour>
    <contour>
      <point x="360" y="344" type="line" smooth="yes"/>
      <point x="376" y="344"/>
      <point x="389" y="357"/>
      <point x="389" y="372" type="curve" smooth="yes"/>
      <point x="389" y="388"/>
      <point x="376" y="401"/>
      <point x="360" y="401" type="curve" smooth="yes"/>
      <point x="77" y="401" type="line" smooth="yes"/>
      <point x="61" y="401"/>
      <point x="48" y="388"/>
      <point x="48" y="372" type="curve" smooth="yes"/>
      <point x="48" y="357"/>
      <point x="61" y="344"/>
      <point x="77" y="344" type="curve" smooth="yes"/>
    </contour>
    <contour>
      <point x="216" y="401" type="move" name="top"/>
    </contour>
  </outline>
</glyph>
<glyph name="asciitilde" format="1">
  <advance width="617"/>
  <unicode hex="007E"/>
  <outline>
    <contour>
      <point x="465" y="171"/>
      <point x="506" y="207"/>
      <point x="556" y="310" type="curve" smooth="yes"/>
      <point x="564" y="324"/>
      <point x="555" y="341"/>
      <point x="542" y="348" type="curve" smooth="yes"/>
      <point x="527" y="355"/>
      <point x="509" y="349"/>
      <point x="502" y="335" type="curve" smooth="yes"/>
      <point x="470" y="270"/>
      <point x="449" y="228"/>
      <point x="407" y="228" type="curve" smooth="yes"/>
      <point x="378" y="228"/>
      <point x="359" y="249"/>
      <point x="333" y="278" type="curve" smooth="yes"/>
      <point x="296" y="320"/>
      <point x="266" y="347"/>
      <point x="220" y="347" type="curve" smooth="yes"/>
      <point x="167" y="347"/>
      <point x="123" y="311"/>
      <point x="79" y="220" type="curve" smooth="yes"/>
      <point x="71" y="206"/>
      <point x="79" y="189"/>
      <point x="93" y="182" type="curve" smooth="yes"/>
      <point x="107" y="175"/>
      <point x="126" y="181"/>
      <point x="133" y="194" type="curve" smooth="yes"/>
      <point x="161" y="250"/>
      <point x="183" y="290"/>
      <point x="220" y="290" type="curve" smooth="yes"/>
      <point x="250" y="290"/>
      <point x="266" y="265"/>
      <point x="289" y="240" type="curve" smooth="yes"/>
      <point x="329" y="195"/>
      <point x="364" y="171"/>
      <point x="407" y="171" type="curve" smooth="yes"/>
    </contour>
  </outline>
</glyph>
<glyph name="exclamdown" format="1">
  <advance width="317"/>
  <unicode hex="00A1"/>
  <outline>
    <contour>
      <point x="180" y="-22"/>
      <point x="196" y="-8"/>
      <point x="195" y="6" type="curve" smooth="yes"/>
      <point x="188" y="292" type="line" smooth="yes"/>
      <point x="188" y="307"/>
      <point x="172" y="320"/>
      <point x="157" y="320" type="curve" smooth="yes"/>
      <point x="141" y="319"/>
      <point x="125" y="306"/>
      <point x="126" y="291" type="curve" smooth="yes"/>
      <point x="133" y="6" type="line" smooth="yes"/>
      <point x="133" y="-10"/>
      <point x="149" y="-23"/>
      <point x="164" y="-23" type="curve" smooth="yes"/>
    </contour>
    <contour>
      <point x="186" y="457"/>
      <point x="210" y="480"/>
      <point x="210" y="515" type="curve" smooth="yes"/>
      <point x="210" y="558"/>
      <point x="188" y="573"/>
      <point x="158" y="573" type="curve" smooth="yes"/>
      <point x="134" y="573"/>
      <point x="105" y="557"/>
      <point x="105" y="515" type="curve" smooth="yes"/>
      <point x="105" y="479"/>
      <point x="126" y="457"/>
      <point x="157" y="457" type="curve" smooth="yes"/>
    </contour>
  </outline>
</glyph>
<glyph name="yen" format="1">
  <advance width="562"/>
  <unicode hex="00A5"/>
  <outline>
    <contour>
      <point x="318" y="266"/>
      <point x="365" y="312"/>
      <point x="390" y="344" type="curve" smooth="yes"/>
      <point x="428" y="384"/>
      <point x="486" y="472"/>
      <point x="509" y="521" type="curve" smooth="yes"/>
      <point x="506" y="531"/>
      <point x="493" y="538"/>
      <point x="483" y="534" type="curve" smooth="yes"/>
      <point x="458" y="513"/>
      <point x="414" y="467"/>
      <point x="390" y="443" type="curve" smooth="yes"/>
      <point x="352" y="393"/>
      <point x="294" y="308"/>
      <point x="268" y="269" type="curve" smooth="yes"/>
      <point x="270" y="259"/>
      <point x="281" y="250"/>
      <point x="293" y="252" type="curve" smooth="yes"/>
    </contour>
    <contour>
      <point x="471" y="94" type="line" smooth="yes"/>
      <point x="487" y="94"/>
      <point x="500" y="107"/>
      <point x="500" y="122" type="curve" smooth="yes"/>
      <point x="500" y="138"/>
      <point x="487" y="150"/>
      <point x="471" y="150" type="curve" smooth="yes"/>
      <point x="106" y="150" type="line" smooth="yes"/>
      <point x="90" y="150"/>
      <point x="77" y="138"/>
      <point x="77" y="122" type="curve" smooth="yes"/>
      <point x="77" y="107"/>
      <point x="90" y="94"/>
      <point x="106" y="94" type="curve" smooth="yes"/>
    </contour>
    <contour>
      <point x="305" y="-11"/>
      <point x="320" y="2"/>
      <point x="320" y="18" type="curve" smooth="yes"/>
      <point x="320" y="266" type="line" smooth="yes"/>
      <point x="320" y="281"/>
      <point x="305" y="294"/>
      <point x="289" y="294" type="curve" smooth="yes"/>
      <point x="273" y="294"/>
      <point x="258" y="281"/>
      <point x="258" y="266" type="curve" smooth="yes"/>
      <point x="258" y="18" type="line" smooth="yes"/>
      <point x="258" y="2"/>
      <point x="273" y="-11"/>
      <point x="289" y="-11" type="curve" smooth="yes"/>
    </contour>
    <contour>
      <point x="471" y="240" type="line" smooth="yes"/>
      <point x="487" y="240"/>
      <point x="500" y="253"/>
      <point x="500" y="268" type="curve" smooth="yes"/>
      <point x="500" y="283"/>
      <point x="487" y="296"/>
      <point x="471" y="296" type="curve" smooth="yes"/>
      <point x="106" y="296" type="line" smooth="yes"/>
      <point x="90" y="296"/>
      <point x="77" y="283"/>
      <point x="77" y="268" type="curve" smooth="yes"/>
      <point x="77" y="253"/>
      <point x="90" y="240"/>
      <point x="106" y="240" type="curve" smooth="yes"/>
    </contour>
    <contour>
      <point x="277" y="251"/>
      <point x="296" y="251"/>
      <point x="307" y="263" type="curve" smooth="yes"/>
      <point x="318" y="274"/>
      <point x="318" y="292"/>
      <point x="307" y="303" type="curve" smooth="yes"/>
      <point x="267" y="340"/>
      <point x="160" y="461"/>
      <point x="109" y="531" type="curve" smooth="yes"/>
      <point x="100" y="544"/>
      <point x="81" y="547"/>
      <point x="69" y="538" type="curve" smooth="yes"/>
      <point x="55" y="529"/>
      <point x="51" y="511"/>
      <point x="60" y="499" type="curve" smooth="yes"/>
      <point x="112" y="426"/>
      <point x="225" y="301"/>
      <point x="265" y="263" type="curve" smooth="yes"/>
    </contour>
  </outline>
</glyph>
<glyph name="copyright" format="1">
  <advance width="660"/>
  <unicode hex="00A9"/>
  <outline>
    <contour>
      <point x="516" y="-20"/>
      <point x="624" y="106"/>
      <point x="624" y="266" type="curve" smooth="yes"/>
      <point x="624" y="434"/>
      <point x="494" y="553"/>
      <point x="332" y="553" type="curve" smooth="yes"/>
      <point x="155" y="553"/>
      <point x="36" y="434"/>
      <point x="36" y="263" type="curve" smooth="yes"/>
      <point x="36" y="106"/>
      <point x="158" y="-20"/>
      <point x="332" y="-20" type="curve" smooth="yes"/>
    </contour>
    <contour>
      <point x="374" y="105"/>
      <point x="404" y="113"/>
      <point x="428" y="125" type="curve" smooth="yes"/>
      <point x="442" y="131"/>
      <point x="448" y="148"/>
      <point x="441" y="162" type="curve" smooth="yes"/>
      <point x="434" y="176"/>
      <point x="416" y="181"/>
      <point x="402" y="174" type="curve" smooth="yes"/>
      <point x="386" y="166"/>
      <point x="365" y="161"/>
      <point x="342" y="161" type="curve" smooth="yes"/>
      <point x="274" y="161"/>
      <point x="232" y="205"/>
      <point x="232" y="265" type="curve" smooth="yes"/>
      <point x="232" y="328"/>
      <point x="282" y="372"/>
      <point x="339" y="372" type="curve" smooth="yes"/>
      <point x="362" y="372"/>
      <point x="384" y="366"/>
      <point x="399" y="359" type="curve" smooth="yes"/>
      <point x="413" y="351"/>
      <point x="431" y="357"/>
      <point x="438" y="371" type="curve" smooth="yes"/>
      <point x="445" y="385"/>
      <point x="439" y="402"/>
      <point x="425" y="408" type="curve" smooth="yes"/>
      <point x="404" y="419"/>
      <point x="373" y="428"/>
      <point x="339" y="428" type="curve" smooth="yes"/>
      <point x="252" y="428"/>
      <point x="174" y="362"/>
      <point x="174" y="265" type="curve" smooth="yes"/>
      <point x="174" y="174"/>
      <point x="236" y="105"/>
      <point x="342" y="105" type="curve" smooth="yes"/>
    </contour>
    <contour>
      <point x="192" y="36"/>
      <point x="94" y="137"/>
      <point x="94" y="263" type="curve" smooth="yes"/>
      <point x="94" y="401"/>
      <point x="189" y="497"/>
      <point x="332" y="497" type="curve" smooth="yes"/>
      <point x="462" y="497"/>
      <point x="566" y="401"/>
      <point x="566" y="266" type="curve" smooth="yes"/>
      <point x="566" y="137"/>
      <point x="480" y="36"/>
      <point x="332" y="36" type="curve" smooth="yes"/>
    </contour>
  </outline>
</glyph>
<glyph name="logicalnot" format="1">
  <advance width="479"/>
  <unicode hex="00AC"/>
  <outline>
    <contour>
      <point x="378" y="225" type="line" smooth="yes"/>
      <point x="394" y="225"/>
      <point x="407" y="238"/>
      <point x="407" y="253" type="curve" smooth="yes"/>
      <point x="407" y="269"/>
      <point x="394" y="281"/>
      <point x="378" y="281" type="curve" smooth="yes"/>
      <point x="101" y="281" type="line" smooth="yes"/>
      <point x="85" y="281"/>
      <point x="72" y="269"/>
      <point x="72" y="253" type="curve" smooth="yes"/>
      <point x="72" y="238"/>
      <point x="85" y="225"/>
      <point x="101" y="225" type="curve" smooth="yes"/>
    </contour>
    <contour>
      <point x="394" y="114"/>
      <point x="409" y="128"/>
      <point x="409" y="143" type="curve" smooth="yes"/>
      <point x="409" y="247" type="line" smooth="yes"/>
      <point x="409" y="262"/>
      <point x="394" y="275"/>
      <point x="378" y="275" type="curve" smooth="yes"/>
      <point x="362" y="275"/>
      <point x="347" y="262"/>
      <point x="347" y="247" type="curve" smooth="yes"/>
      <point x="347" y="143" type="line" smooth="yes"/>
      <point x="347" y="128"/>
      <point x="362" y="114"/>
      <point x="378" y="114" type="curve" smooth="yes"/>
    </contour>
  </outline>
</glyph>
<glyph name="registered" format="1">
  <advance width="562"/>
  <unicode hex="00AE"/>
  <outline>
    <contour>
      <point x="420" y="171"/>
      <point x="521" y="268"/>
      <point x="521" y="401" type="curve" smooth="yes"/>
      <point x="521" y="532"/>
      <point x="423" y="630"/>
      <point x="278" y="630" type="curve" smooth="yes"/>
      <point x="141" y="630"/>
      <point x="47" y="538"/>
      <point x="47" y="404" type="curve" smooth="yes"/>
      <point x="47" y="278"/>
      <point x="141" y="171"/>
      <point x="285" y="171" type="curve" smooth="yes"/>
    </contour>
    <contour>
      <point x="392" y="301"/>
      <point x="393" y="319"/>
      <point x="383" y="330" type="curve" smooth="yes"/>
      <point x="333" y="385" type="line" smooth="yes"/>
      <point x="322" y="397"/>
      <point x="304" y="398"/>
      <point x="292" y="388" type="curve" smooth="yes"/>
      <point x="280" y="379"/>
      <point x="279" y="361"/>
      <point x="289" y="349" type="curve" smooth="yes"/>
      <point x="339" y="294" type="line" smooth="yes"/>
      <point x="349" y="282"/>
      <point x="368" y="281"/>
      <point x="380" y="291" type="curve" smooth="yes"/>
    </contour>
    <contour>
      <point x="175" y="226"/>
      <point x="105" y="309"/>
      <point x="105" y="404" type="curve" smooth="yes"/>
      <point x="105" y="504"/>
      <point x="175" y="574"/>
      <point x="278" y="574" type="curve" smooth="yes"/>
      <point x="387" y="574"/>
      <point x="463" y="501"/>
      <point x="463" y="401" type="curve" smooth="yes"/>
      <point x="463" y="300"/>
      <point x="388" y="226"/>
      <point x="285" y="226" type="curve" smooth="yes"/>
    </contour>
    <contour>
      <point x="239" y="284"/>
      <point x="252" y="297"/>
      <point x="252" y="312" type="curve" smooth="yes"/>
      <point x="252" y="492" type="line"/>
      <point x="223" y="464" type="line"/>
      <point x="283" y="464" type="line" smooth="yes"/>
      <point x="303" y="464"/>
      <point x="320" y="455"/>
      <point x="320" y="435" type="curve" smooth="yes"/>
      <point x="320" y="416"/>
      <point x="307" y="402"/>
      <point x="283" y="402" type="curve" smooth="yes"/>
      <point x="234" y="402" type="line" smooth="yes"/>
      <point x="218" y="402"/>
      <point x="205" y="389"/>
      <point x="205" y="374" type="curve" smooth="yes"/>
      <point x="205" y="359"/>
      <point x="218" y="346"/>
      <point x="234" y="346" type="curve" smooth="yes"/>
      <point x="283" y="346" type="line" smooth="yes"/>
      <point x="349" y="346"/>
      <point x="378" y="388"/>
      <point x="378" y="435" type="curve" smooth="yes"/>
      <point x="378" y="485"/>
      <point x="343" y="519"/>
      <point x="283" y="519" type="curve" smooth="yes"/>
      <point x="223" y="519" type="line" smooth="yes"/>
      <point x="207" y="519"/>
      <point x="194" y="507"/>
      <point x="194" y="492" type="curve" smooth="yes"/>
      <point x="194" y="312" type="line" smooth="yes"/>
      <point x="194" y="297"/>
      <point x="207" y="284"/>
      <point x="223" y="284" type="curve" smooth="yes"/>
    </contour>
  </outline>
</glyph>
<glyph name="plusminus" format="1">
  <advance width="531"/>
  <unicode hex="00B1"/>
  <outline>
    <contour>
      <point x="442" y="302" type="line" smooth="yes"/>
      <point x="458" y="302"/>
      <point x="471" y="315"/>
      <point x="471" y="330" type="curve" smooth="yes"/>
      <point x="471" y="346"/>
      <point x="458" y="359"/>
      <point x="442" y="359" type="curve" smooth="yes"/>
      <point x="88" y="359" type="line" smooth="yes"/>
      <point x="72" y="359"/>
      <point x="59" y="346"/>
      <point x="59" y="330" type="curve" smooth="yes"/>
      <point x="59" y="315"/>
      <point x="72" y="302"/>
      <point x="88" y="302" type="curve" smooth="yes"/>
    </contour>
    <contour>
      <point x="442" y="50" type="line" smooth="yes"/>
      <point x="458" y="50"/>
      <point x="471" y="63"/>
      <point x="471" y="78" type="curve" smooth="yes"/>
      <point x="471" y="94"/>
      <point x="458" y="107"/>
      <point x="442" y="107" type="curve" smooth="yes"/>
      <point x="88" y="107" type="line" smooth="yes"/>
      <point x="72" y="107"/>
      <point x="59" y="94"/>
      <point x="59" y="78" type="curve" smooth="yes"/>
      <point x="59" y="63"/>
      <point x="72" y="50"/>
      <point x="88" y="50" type="curve" smooth="yes"/>
    </contour>
    <contour>
      <point x="281" y="180"/>
      <point x="296" y="193"/>
      <point x="296" y="208" type="curve" smooth="yes"/>
      <point x="296" y="453" type="line" smooth="yes"/>
      <point x="296" y="468"/>
      <point x="281" y="481"/>
      <point x="265" y="481" type="curve" smooth="yes"/>
      <point x="249" y="481"/>
      <point x="234" y="468"/>
      <point x="234" y="453" type="curve" smooth="yes"/>
      <point x="234" y="208" type="line" smooth="yes"/>
      <point x="234" y="193"/>
      <point x="249" y="180"/>
      <point x="265" y="180" type="curve" smooth="yes"/>
    </contour>
  </outline>
</glyph>
<glyph name="paragraph" format="1">
  <advance width="558"/>
  <unicode hex="00B6"/>
  <outline>
    <contour>
      <point x="458" y="-11"/>
      <point x="473" y="2"/>
      <point x="473" y="18" type="curve" smooth="yes"/>
      <point x="473" y="515" type="line" smooth="yes"/>
      <point x="473" y="531"/>
      <point x="459" y="543"/>
      <point x="442" y="543" type="curve" smooth="yes"/>
      <point x="244" y="543" type="line" smooth="yes"/>
      <point x="119" y="543"/>
      <point x="37" y="466"/>
      <point x="37" y="357" type="curve" smooth="yes"/>
      <point x="37" y="255"/>
      <point x="104" y="170"/>
      <point x="244" y="170" type="curve" smooth="yes"/>
      <point x="303" y="170" type="line" smooth="yes"/>
      <point x="319" y="170"/>
      <point x="332" y="183"/>
      <point x="332" y="198" type="curve" smooth="yes"/>
      <point x="332" y="214"/>
      <point x="319" y="227"/>
      <point x="303" y="227" type="curve" smooth="yes"/>
      <point x="244" y="227" type="line" smooth="yes"/>
      <point x="148" y="227"/>
      <point x="99" y="285"/>
      <point x="99" y="357" type="curve" smooth="yes"/>
      <point x="99" y="433"/>
      <point x="157" y="487"/>
      <point x="244" y="487" type="curve" smooth="yes"/>
      <point x="442" y="487" type="line"/>
      <point x="411" y="515" type="line"/>
      <point x="411" y="18" type="line" smooth="yes"/>
      <point x="411" y="2"/>
      <point x="426" y="-11"/>
      <point x="442" y="-11" type="curve" smooth="yes"/>
    </contour>
    <contour>
      <point x="319" y="-11"/>
      <point x="334" y="2"/>
      <point x="334" y="18" type="curve" smooth="yes"/>
      <point x="334" y="513" type="line" smooth="yes"/>
      <point x="334" y="529"/>
      <point x="319" y="541"/>
      <point x="303" y="541" type="curve" smooth="yes"/>
      <point x="287" y="541"/>
      <point x="272" y="529"/>
      <point x="272" y="513" type="curve" smooth="yes"/>
      <point x="272" y="18" type="line" smooth="yes"/>
      <point x="272" y="2"/>
      <point x="287" y="-11"/>
      <point x="303" y="-11" type="curve" smooth="yes"/>
    </contour>
  </outline>
</glyph>
<glyph name="ordmasculine" format="1">
  <advance width="434"/>
  <unicode hex="00BA"/>
  <outline>
    <contour>
      <point x="306" y="249"/>
      <point x="365" y="311"/>
      <point x="365" y="392" type="curve" smooth="yes"/>
      <point x="365" y="472"/>
      <point x="306" y="539"/>
      <point x="217" y="539" type="curve" smooth="yes"/>
      <point x="125" y="539"/>
      <point x="68" y="472"/>
      <point x="68" y="392" type="curve" smooth="yes"/>
      <point x="68" y="311"/>
      <point x="128" y="249"/>
      <point x="217" y="249" type="curve" smooth="yes"/>
    </contour>
    <contour>
      <point x="351" y="131" type="line" smooth="yes"/>
      <point x="367" y="131"/>
      <point x="380" y="143"/>
      <point x="380" y="158" type="curve" smooth="yes"/>
      <point x="380" y="174"/>
      <point x="367" y="186"/>
      <point x="351" y="186" type="curve" smooth="yes"/>
      <point x="90" y="186" type="line" smooth="yes"/>
      <point x="74" y="186"/>
      <point x="61" y="174"/>
      <point x="61" y="158" type="curve" smooth="yes"/>
      <point x="61" y="143"/>
      <point x="74" y="131"/>
      <point x="90" y="131" type="curve" smooth="yes"/>
    </contour>
    <contour>
      <point x="162" y="305"/>
      <point x="126" y="342"/>
      <point x="126" y="392" type="curve" smooth="yes"/>
      <point x="126" y="441"/>
      <point x="159" y="483"/>
      <point x="217" y="483" type="curve" smooth="yes"/>
      <point x="272" y="483"/>
      <point x="307" y="441"/>
      <point x="307" y="392" type="curve" smooth="yes"/>
      <point x="307" y="342"/>
      <point x="272" y="305"/>
      <point x="217" y="305" type="curve" smooth="yes"/>
    </contour>
  </outline>
</glyph>
<glyph name="onehalf" format="1">
  <advance width="793"/>
  <unicode hex="00BD"/>
  <outline>
    <contour>
      <point x="204" y="-15"/>
      <point x="224" y="-10"/>
      <point x="231" y="3" type="curve" smooth="yes"/>
      <point x="529" y="501" type="line" smooth="yes"/>
      <point x="538" y="513"/>
      <point x="532" y="532"/>
      <point x="518" y="539" type="curve" smooth="yes"/>
      <point x="505" y="547"/>
      <point x="485" y="543"/>
      <point x="478" y="530" type="curve" smooth="yes"/>
      <point x="180" y="32" type="line" smooth="yes"/>
      <point x="171" y="20"/>
      <point x="177" y="1"/>
      <point x="191" y="-6" type="curve" smooth="yes"/>
    </contour>
    <contour>
      <point x="215" y="229"/>
      <point x="228" y="241"/>
      <point x="228" y="257" type="curve" smooth="yes"/>
      <point x="228" y="521" type="line" smooth="yes"/>
      <point x="228" y="536"/>
      <point x="215" y="549"/>
      <point x="199" y="549" type="curve" smooth="yes"/>
      <point x="184" y="549"/>
      <point x="170" y="536"/>
      <point x="170" y="521" type="curve" smooth="yes"/>
      <point x="170" y="257" type="line" smooth="yes"/>
      <point x="170" y="241"/>
      <point x="184" y="229"/>
      <point x="199" y="229" type="curve" smooth="yes"/>
    </contour>
    <contour>
      <point x="675" y="-10" type="line" smooth="yes"/>
      <point x="691" y="-10"/>
      <point x="704" y="2"/>
      <point x="704" y="18" type="curve" smooth="yes"/>
      <point x="704" y="33"/>
      <point x="691" y="45"/>
      <point x="675" y="45" type="curve" smooth="yes"/>
      <point x="476" y="45" type="line" smooth="yes"/>
      <point x="461" y="45"/>
      <point x="447" y="33"/>
      <point x="447" y="18" type="curve" smooth="yes"/>
      <point x="447" y="2"/>
      <point x="461" y="-10"/>
      <point x="476" y="-10" type="curve" smooth="yes"/>
    </contour>
    <contour>
      <point x="213" y="500" type="line" smooth="yes"/>
      <point x="227" y="507"/>
      <point x="232" y="525"/>
      <point x="225" y="538" type="curve" smooth="yes"/>
      <point x="218" y="551"/>
      <point x="199" y="557"/>
      <point x="186" y="550" type="curve" smooth="yes"/>
      <point x="100" y="504" type="line" smooth="yes"/>
      <point x="86" y="497"/>
      <point x="80" y="479"/>
      <point x="88" y="466" type="curve" smooth="yes"/>
      <point x="95" y="453"/>
      <point x="113" y="447"/>
      <point x="127" y="454" type="curve" smooth="yes"/>
    </contour>
    <contour>
      <point x="595" y="87" type="line" smooth="yes"/>
      <point x="668" y="154"/>
      <point x="684" y="181"/>
      <point x="684" y="219" type="curve" smooth="yes"/>
      <point x="684" y="261"/>
      <point x="655" y="308"/>
      <point x="576" y="308" type="curve" smooth="yes"/>
      <point x="540" y="308"/>
      <point x="511" y="298"/>
      <point x="479" y="279" type="curve" smooth="yes"/>
      <point x="466" y="270"/>
      <point x="462" y="252"/>
      <point x="471" y="240" type="curve" smooth="yes"/>
      <point x="480" y="227"/>
      <point x="498" y="223"/>
      <point x="511" y="232" type="curve" smooth="yes"/>
      <point x="532" y="245"/>
      <point x="552" y="252"/>
      <point x="576" y="252" type="curve" smooth="yes"/>
      <point x="606" y="252"/>
      <point x="626" y="239"/>
      <point x="626" y="219" type="curve" smooth="yes"/>
      <point x="626" y="191"/>
      <point x="605" y="174"/>
      <point x="556" y="128" type="curve" smooth="yes"/>
      <point x="463" y="43" type="line" smooth="yes"/>
      <point x="451" y="33"/>
      <point x="451" y="15"/>
      <point x="461" y="3" type="curve" smooth="yes"/>
      <point x="472" y="-8"/>
      <point x="491" y="-8"/>
      <point x="502" y="2" type="curve" smooth="yes"/>
    </contour>
  </outline>
</glyph>
<glyph name="questiondown" format="1">
  <advance width="364"/>
  <unicode hex="00BF"/>
  <outline>
    <contour>
      <point x="249" y="0"/>
      <point x="289" y="14"/>
      <point x="331" y="39" type="curve" smooth="yes"/>
      <point x="344" y="48"/>
      <point x="348" y="65"/>
      <point x="340" y="79" type="curve" smooth="yes"/>
      <point x="331" y="92"/>
      <point x="313" y="96"/>
      <point x="299" y="88" type="curve" smooth="yes"/>
      <point x="266" y="68"/>
      <point x="235" y="57"/>
      <point x="183" y="57" type="curve" smooth="yes"/>
      <point x="122" y="57"/>
      <point x="85" y="91"/>
      <point x="85" y="133" type="curve" smooth="yes"/>
      <point x="85" y="173"/>
      <point x="119" y="201"/>
      <point x="159" y="221" type="curve" smooth="yes"/>
      <point x="228" y="258"/>
      <point x="249" y="283"/>
      <point x="252" y="346" type="curve" smooth="yes"/>
      <point x="253" y="362"/>
      <point x="238" y="375"/>
      <point x="222" y="376" type="curve" smooth="yes"/>
      <point x="207" y="377"/>
      <point x="191" y="365"/>
      <point x="190" y="350" type="curve" smooth="yes"/>
      <point x="187" y="310"/>
      <point x="175" y="294"/>
      <point x="133" y="272" type="curve" smooth="yes"/>
      <point x="69" y="241"/>
      <point x="23" y="194"/>
      <point x="23" y="133" type="curve" smooth="yes"/>
      <point x="23" y="64"/>
      <point x="76" y="0"/>
      <point x="183" y="0" type="curve" smooth="yes"/>
    </contour>
    <contour>
      <point x="248" y="453"/>
      <point x="268" y="474"/>
      <point x="268" y="510" type="curve" smooth="yes"/>
      <point x="268" y="552"/>
      <point x="239" y="568"/>
      <point x="215" y="568" type="curve" smooth="yes"/>
      <point x="185" y="568"/>
      <point x="163" y="553"/>
      <point x="163" y="510" type="curve" smooth="yes"/>
      <point x="163" y="475"/>
      <point x="186" y="453"/>
      <point x="216" y="453" type="curve" smooth="yes"/>
    </contour>
  </outline>
</glyph>
<glyph name="Thorn" format="1">
  <advance width="504"/>
  <unicode hex="00DE"/>
  <outline>
    <contour>
      <point x="260" y="93" type="line" smooth="yes"/>
      <point x="402" y="93"/>
      <point x="467" y="174"/>
      <point x="467" y="268" type="curve" smooth="yes"/>
      <point x="467" y="371"/>
      <point x="386" y="446"/>
      <point x="260" y="446" type="curve" smooth="yes"/>
      <point x="128" y="446" type="line" smooth="yes"/>
      <point x="112" y="446"/>
      <point x="99" y="434"/>
      <point x="99" y="418" type="curve" smooth="yes"/>
      <point x="99" y="403"/>
      <point x="112" y="390"/>
      <point x="128" y="390" type="curve" smooth="yes"/>
      <point x="260" y="390" type="line" smooth="yes"/>
      <point x="346" y="390"/>
      <point x="405" y="340"/>
      <point x="405" y="268" type="curve" smooth="yes"/>
      <point x="405" y="202"/>
      <point x="356" y="149"/>
      <point x="260" y="149" type="curve" smooth="yes"/>
      <point x="143" y="149" type="line" smooth="yes"/>
      <point x="127" y="149"/>
      <point x="114" y="137"/>
      <point x="114" y="121" type="curve" smooth="yes"/>
      <point x="114" y="106"/>
      <point x="127" y="93"/>
      <point x="143" y="93" type="curve" smooth="yes"/>
    </contour>
    <contour>
      <point x="132" y="-11"/>
      <point x="147" y="2"/>
      <point x="147" y="18" type="curve" smooth="yes"/>
      <point x="147" y="515" type="line" smooth="yes"/>
      <point x="147" y="531"/>
      <point x="132" y="543"/>
      <point x="116" y="543" type="curve" smooth="yes"/>
      <point x="100" y="543"/>
      <point x="85" y="531"/>
      <point x="85" y="515" type="curve" smooth="yes"/>
      <point x="85" y="18" type="line" smooth="yes"/>
      <point x="85" y="2"/>
      <point x="100" y="-11"/>
      <point x="116" y="-11" type="curve" smooth="yes"/>
    </contour>
  </outline>
</glyph>
<glyph name="germandbls" format="1">
  <advance width="508"/>
  <unicode hex="00DF"/>
  <outline>
    <contour>
      <point x="125" y="-12"/>
      <point x="140" y="1"/>
      <point x="140" y="17" type="curve" smooth="yes"/>
      <point x="140" y="438" type="line" smooth="yes"/>
      <point x="140" y="494"/>
      <point x="169" y="538"/>
      <point x="236" y="540" type="curve" smooth="yes"/>
      <point x="305" y="541"/>
      <point x="338" y="495"/>
      <point x="338" y="449" type="curve" smooth="yes"/>
      <point x="338" y="399"/>
      <point x="321" y="369"/>
      <point x="244" y="318" type="curve" smooth="yes"/>
      <point x="231" y="309"/>
      <point x="226" y="291"/>
      <point x="236" y="278" type="curve" smooth="yes"/>
      <point x="244" y="266"/>
      <point x="263" y="262"/>
      <point x="276" y="270" type="curve" smooth="yes"/>
      <point x="383" y="341"/>
      <point x="400" y="383"/>
      <point x="400" y="449" type="curve" smooth="yes"/>
      <point x="400" y="523"/>
      <point x="349" y="597"/>
      <point x="236" y="596" type="curve" smooth="yes"/>
      <point x="131" y="594"/>
      <point x="78" y="529"/>
      <point x="78" y="438" type="curve" smooth="yes"/>
      <point x="78" y="17" type="line" smooth="yes"/>
      <point x="78" y="1"/>
      <point x="93" y="-12"/>
      <point x="109" y="-12" type="curve" smooth="yes"/>
    </contour>
    <contour>
      <point x="425" y="-17"/>
      <point x="478" y="41"/>
      <point x="478" y="120" type="curve" smooth="yes"/>
      <point x="478" y="180"/>
      <point x="442" y="235"/>
      <point x="360" y="275" type="curve" smooth="yes"/>
      <point x="273" y="316" type="line" smooth="yes"/>
      <point x="259" y="323"/>
      <point x="241" y="316"/>
      <point x="233" y="303" type="curve" smooth="yes"/>
      <point x="226" y="289"/>
      <point x="233" y="272"/>
      <point x="247" y="265" type="curve" smooth="yes"/>
      <point x="334" y="224" type="line" smooth="yes"/>
      <point x="389" y="198"/>
      <point x="416" y="161"/>
      <point x="416" y="120" type="curve" smooth="yes"/>
      <point x="416" y="73"/>
      <point x="383" y="40"/>
      <point x="325" y="40" type="curve" smooth="yes"/>
      <point x="301" y="40"/>
      <point x="279" y="45"/>
      <point x="265" y="50" type="curve" smooth="yes"/>
      <point x="250" y="56"/>
      <point x="233" y="48"/>
      <point x="227" y="33" type="curve" smooth="yes"/>
      <point x="221" y="19"/>
      <point x="230" y="2"/>
      <point x="245" y="-3" type="curve" smooth="yes"/>
      <point x="263" y="-10"/>
      <point x="293" y="-17"/>
      <point x="325" y="-17" type="curve" smooth="yes"/>
    </contour>
  </outline>
</glyph>
<glyph name="eth" format="1">
  <advance width="502"/>
  <unicode hex="00F0"/>
  <outline>
    <contour>
      <point x="368" y="-16"/>
      <point x="451" y="64"/>
      <point x="451" y="211" type="curve" smooth="yes"/>
      <point x="451" y="322"/>
      <point x="400" y="434"/>
      <point x="235" y="568" type="curve" smooth="yes"/>
      <point x="222" y="578"/>
      <point x="204" y="576"/>
      <point x="194" y="565" type="curve" smooth="yes"/>
      <point x="183" y="553"/>
      <point x="185" y="534"/>
      <point x="197" y="525" type="curve" smooth="yes"/>
      <point x="342" y="406"/>
      <point x="389" y="309"/>
      <point x="389" y="211" type="curve" smooth="yes"/>
      <point x="389" y="107"/>
      <point x="336" y="41"/>
      <point x="240" y="41" type="curve" smooth="yes"/>
      <point x="154" y="41"/>
      <point x="103" y="98"/>
      <point x="103" y="168" type="curve" smooth="yes"/>
      <point x="103" y="247"/>
      <point x="161" y="300"/>
      <point x="241" y="300" type="curve" smooth="yes"/>
      <point x="301" y="300"/>
      <point x="361" y="273"/>
      <point x="388" y="247" type="curve" smooth="yes"/>
      <point x="400" y="236"/>
      <point x="419" y="237"/>
      <point x="431" y="248" type="curve" smooth="yes"/>
      <point x="441" y="259"/>
      <point x="441" y="278"/>
      <point x="430" y="289" type="curve" smooth="yes"/>
      <point x="393" y="321"/>
      <point x="319" y="357"/>
      <point x="241" y="357" type="curve" smooth="yes"/>
      <point x="127" y="357"/>
      <point x="41" y="283"/>
      <point x="41" y="168" type="curve" smooth="yes"/>
      <point x="41" y="68"/>
      <point x="116" y="-16"/>
      <point x="240" y="-16" type="curve" smooth="yes"/>
    </contour>
    <contour>
      <point x="378" y="514" type="line" smooth="yes"/>
      <point x="391" y="521"/>
      <point x="396" y="539"/>
      <point x="388" y="552" type="curve" smooth="yes"/>
      <point x="380" y="565"/>
      <point x="362" y="569"/>
      <point x="349" y="562" type="curve" smooth="yes"/>
      <point x="177" y="460" type="line" smooth="yes"/>
      <point x="163" y="453"/>
      <point x="157" y="435"/>
      <point x="166" y="422" type="curve" smooth="yes"/>
      <point x="174" y="408"/>
      <point x="192" y="404"/>
      <point x="206" y="412" type="curve" smooth="yes"/>
    </contour>
  </outline>
</glyph>
<glyph name="thorn" format="1">
  <advance width="512"/>
  <unicode hex="00FE"/>
  <outline>
    <contour>
      <point x="384" y="-7"/>
      <point x="470" y="80"/>
      <point x="470" y="197" type="curve" smooth="yes"/>
      <point x="470" y="332"/>
      <point x="377" y="401"/>
      <point x="278" y="401" type="curve" smooth="yes"/>
      <point x="201" y="401"/>
      <point x="133" y="354"/>
      <point x="79" y="279" type="curve" smooth="yes"/>
      <point x="70" y="267"/>
      <point x="74" y="249"/>
      <point x="88" y="240" type="curve" smooth="yes"/>
      <point x="100" y="231"/>
      <point x="119" y="234"/>
      <point x="128" y="247" type="curve" smooth="yes"/>
      <point x="169" y="302"/>
      <point x="219" y="344"/>
      <point x="278" y="344" type="curve" smooth="yes"/>
      <point x="349" y="344"/>
      <point x="408" y="290"/>
      <point x="408" y="197" type="curve" smooth="yes"/>
      <point x="408" y="115"/>
      <point x="352" y="50"/>
      <point x="265" y="50" type="curve" smooth="yes"/>
      <point x="215" y="50"/>
      <point x="164" y="75"/>
      <point x="122" y="109" type="curve" smooth="yes"/>
      <point x="110" y="118"/>
      <point x="91" y="117"/>
      <point x="81" y="105" type="curve" smooth="yes"/>
      <point x="70" y="94"/>
      <point x="72" y="75"/>
      <point x="84" y="66" type="curve" smooth="yes"/>
      <point x="138" y="21"/>
      <point x="203" y="-7"/>
      <point x="265" y="-7" type="curve" smooth="yes"/>
    </contour>
    <contour>
      <point x="119" y="-203"/>
      <point x="134" y="-190"/>
      <point x="134" y="-175" type="curve" smooth="yes"/>
      <point x="134" y="545" type="line" smooth="yes"/>
      <point x="134" y="561"/>
      <point x="119" y="574"/>
      <point x="103" y="574" type="curve" smooth="yes"/>
      <point x="87" y="574"/>
      <point x="72" y="561"/>
      <point x="72" y="545" type="curve" smooth="yes"/>
      <point x="72" y="-175" type="line" smooth="yes"/>
      <point x="72" y="-190"/>
      <point x="87" y="-203"/>
      <point x="103" y="-203" type="curve" smooth="yes"/>
    </contour>
  </outline>
</glyph>
<glyph name="Dcroat" format="1">
  <advance width="632"/>
  <unicode hex="0110"/>
  <outline>
    <contour>
      <point x="317" y="-11" type="line" smooth="yes"/>
      <point x="479" y="-11"/>
      <point x="587" y="110"/>
      <point x="587" y="267" type="curve" smooth="yes"/>
      <point x="587" y="432"/>
      <point x="458" y="543"/>
      <point x="317" y="543" type="curve" smooth="yes"/>
      <point x="132" y="543" type="line" smooth="yes"/>
      <point x="115" y="543"/>
      <point x="101" y="531"/>
      <point x="101" y="515" type="curve" smooth="yes"/>
      <point x="101" y="18" type="line" smooth="yes"/>
      <point x="101" y="2"/>
      <point x="115" y="-11"/>
      <point x="132" y="-11" type="curve" smooth="yes"/>
    </contour>
    <contour>
      <point x="313" y="242" type="line" smooth="yes"/>
      <point x="329" y="242"/>
      <point x="342" y="256"/>
      <point x="342" y="271" type="curve" smooth="yes"/>
      <point x="342" y="286"/>
      <point x="329" y="299"/>
      <point x="313" y="299" type="curve" smooth="yes"/>
      <point x="54" y="299" type="line" smooth="yes"/>
      <point x="38" y="299"/>
      <point x="25" y="286"/>
      <point x="25" y="271" type="curve" smooth="yes"/>
      <point x="25" y="256"/>
      <point x="38" y="242"/>
      <point x="54" y="242" type="curve" smooth="yes"/>
    </contour>
    <contour>
      <point x="164" y="515" type="line"/>
      <point x="132" y="487" type="line"/>
      <point x="317" y="487" type="line" smooth="yes"/>
      <point x="429" y="487"/>
      <point x="524" y="393"/>
      <point x="524" y="267" type="curve" smooth="yes"/>
      <point x="524" y="146"/>
      <point x="446" y="46"/>
      <point x="317" y="46" type="curve" smooth="yes"/>
      <point x="132" y="46" type="line"/>
      <point x="164" y="18" type="line"/>
    </contour>
  </outline>
</glyph>
<glyph name="iogonek" format="1">
  <advance width="191"/>
  <unicode hex="012F"/>
  <outline>
    <contour>
      <point x="148" y="-225"/>
      <point x="161" y="-212"/>
      <point x="161" y="-197" type="curve" smooth="yes"/>
      <point x="161" y="-182"/>
      <point x="148" y="-171"/>
      <point x="132" y="-171" type="curve" smooth="yes"/>
      <point x="74" y="-171"/>
      <point x="40" y="-157"/>
      <point x="40" y="-132" type="curve" smooth="yes"/>
      <point x="40" y="-110"/>
      <point x="55" y="-87"/>
      <point x="116" y="-28" type="curve" smooth="yes"/>
      <point x="122" y="-22"/>
      <point x="126" y="-14"/>
      <point x="126" y="-6" type="curve" smooth="yes"/>
      <point x="126" y="32" type="line" smooth="yes"/>
      <point x="126" y="48"/>
      <point x="113" y="61"/>
      <point x="97" y="61" type="curve" smooth="yes"/>
      <point x="82" y="61"/>
      <point x="64" y="52"/>
      <point x="64" y="36" type="curve" smooth="yes"/>
      <point x="64" y="-6" type="line"/>
      <point x="79" y="15" type="line"/>
      <point x="-8" y="-67"/>
      <point x="-21" y="-104"/>
      <point x="-21" y="-136" type="curve" smooth="yes"/>
      <point x="-21" y="-183"/>
      <point x="20" y="-225"/>
      <point x="132" y="-225" type="curve" smooth="yes"/>
    </contour>
    <contour>
      <point x="111" y="-8"/>
      <point x="126" y="5"/>
      <point x="126" y="21" type="curve" smooth="yes"/>
      <point x="126" y="372" type="line" smooth="yes"/>
      <point x="126" y="388"/>
      <point x="111" y="401"/>
      <point x="95" y="401" type="curve" smooth="yes"/>
      <point x="79" y="401"/>
      <point x="64" y="388"/>
      <point x="64" y="372" type="curve" smooth="yes"/>
      <point x="64" y="21" type="line" smooth="yes"/>
      <point x="64" y="5"/>
      <point x="79" y="-8"/>
      <point x="95" y="-8" type="curve" smooth="yes"/>
    </contour>
    <contour>
      <point x="119" y="502"/>
      <point x="144" y="518"/>
      <point x="144" y="555" type="curve" smooth="yes"/>
      <point x="144" y="592"/>
      <point x="118" y="609"/>
      <point x="95" y="609" type="curve" smooth="yes"/>
      <point x="68" y="609"/>
      <point x="44" y="589"/>
      <point x="44" y="555" type="curve" smooth="yes"/>
      <point x="44" y="520"/>
      <point x="67" y="502"/>
      <point x="95" y="502" type="curve" smooth="yes"/>
    </contour>
    <contour>
      <point x="98" y="36" type="move" name="_ogonek"/>
    </contour>
  </outline>
</glyph>
<glyph name="dotlessi" format="1">
  <advance width="191"/>
  <unicode hex="0131"/>
  <outline>
    <contour>
      <point x="111" y="-8"/>
      <point x="126" y="5"/>
      <point x="126" y="21" type="curve" smooth="yes"/>
      <point x="126" y="372" type="line" smooth="yes"/>
      <point x="126" y="388"/>
      <point x="111" y="401"/>
      <point x="95" y="401" type="curve" smooth="yes"/>
      <point x="79" y="401"/>
      <point x="64" y="388"/>
      <point x="64" y="372" type="curve" smooth="yes"/>
      <point x="64" y="21" type="line" smooth="yes"/>
      <point x="64" y="5"/>
      <point x="79" y="-8"/>
      <point x="95" y="-8" type="curve" smooth="yes"/>
    </contour>
    <contour>
      <point x="98" y="36" type="move" name="ogonek"/>
    </contour>
    <contour>
      <point x="95" y="-8" type="move" name="bottom"/>
    </contour>
    <contour>
      <point x="95" y="401" type="move" name="top"/>
    </contour>
  </outline>
</glyph>
<glyph name="Lcaron" format="1">
  <advance width="456"/>
  <unicode hex="013D"/>
  <outline>
    <contour>
      <point x="132" y="-11"/>
      <point x="147" y="2"/>
      <point x="147" y="18" type="curve" smooth="yes"/>
      <point x="147" y="515" type="line" smooth="yes"/>
      <point x="147" y="531"/>
      <point x="132" y="543"/>
      <point x="116" y="543" type="curve" smooth="yes"/>
      <point x="100" y="543"/>
      <point x="85" y="531"/>
      <point x="85" y="515" type="curve" smooth="yes"/>
      <point x="85" y="18" type="line" smooth="yes"/>
      <point x="85" y="2"/>
      <point x="100" y="-11"/>
      <point x="116" y="-11" type="curve" smooth="yes"/>
    </contour>
    <contour>
      <point x="401" y="-11" type="line" smooth="yes"/>
      <point x="417" y="-11"/>
      <point x="430" y="2"/>
      <point x="430" y="18" type="curve" smooth="yes"/>
      <point x="430" y="33"/>
      <point x="417" y="46"/>
      <point x="401" y="46" type="curve" smooth="yes"/>
      <point x="125" y="46" type="line" smooth="yes"/>
      <point x="109" y="46"/>
      <point x="96" y="33"/>
      <point x="96" y="18" type="curve" smooth="yes"/>
      <point x="96" y="2"/>
      <point x="109" y="-11"/>
      <point x="125" y="-11" type="curve" smooth="yes"/>
    </contour>
    <contour>
      <point x="314" y="356"/>
      <point x="331" y="366"/>
      <point x="334" y="382" type="curve" smooth="yes"/>
      <point x="355" y="523" type="line" smooth="yes"/>
      <point x="357" y="539"/>
      <point x="344" y="553"/>
      <point x="328" y="556" type="curve" smooth="yes"/>
      <point x="312" y="558"/>
      <point x="295" y="548"/>
      <point x="293" y="532" type="curve" smooth="yes"/>
      <point x="272" y="391" type="line" smooth="yes"/>
      <point x="270" y="375"/>
      <point x="283" y="361"/>
      <point x="299" y="358" type="curve" smooth="yes"/>
    </contour>
  </outline>
</glyph>
<glyph name="lcaron" format="1">
  <advance width="343"/>
  <unicode hex="013E"/>
  <outline>
    <contour>
      <point x="125" y="-12"/>
      <point x="140" y="1"/>
      <point x="140" y="17" type="curve" smooth="yes"/>
      <point x="140" y="541" type="line" smooth="yes"/>
      <point x="140" y="556"/>
      <point x="125" y="569"/>
      <point x="109" y="569" type="curve" smooth="yes"/>
      <point x="93" y="569"/>
      <point x="78" y="556"/>
      <point x="78" y="541" type="curve" smooth="yes"/>
      <point x="78" y="17" type="line" smooth="yes"/>
      <point x="78" y="1"/>
      <point x="93" y="-12"/>
      <point x="109" y="-12" type="curve" smooth="yes"/>
    </contour>
    <contour>
      <point x="298" y="396"/>
      <point x="315" y="406"/>
      <point x="318" y="422" type="curve" smooth="yes"/>
      <point x="339" y="564" type="line" smooth="yes"/>
      <point x="341" y="579"/>
      <point x="328" y="594"/>
      <point x="312" y="596" type="curve" smooth="yes"/>
      <point x="296" y="598"/>
      <point x="279" y="588"/>
      <point x="277" y="572" type="curve" smooth="yes"/>
      <point x="256" y="430" type="line" smooth="yes"/>
      <point x="254" y="415"/>
      <point x="267" y="401"/>
      <point x="283" y="398" type="curve" smooth="yes"/>
    </contour>
  </outline>
</glyph>
<glyph name="tcaron" format="1">
  <advance width="346"/>
  <unicode hex="0165"/>
  <outline>
    <contour>
      <point x="295" y="-11"/>
      <point x="309" y="2"/>
      <point x="309" y="18" type="curve" smooth="yes"/>
      <point x="309" y="32"/>
      <point x="296" y="46"/>
      <point x="280" y="46" type="curve" smooth="yes"/>
      <point x="200" y="47"/>
      <point x="159" y="77"/>
      <point x="159" y="138" type="curve" smooth="yes"/>
      <point x="159" y="498" type="line" smooth="yes"/>
      <point x="159" y="514"/>
      <point x="144" y="527"/>
      <point x="128" y="527" type="curve" smooth="yes"/>
      <point x="112" y="527"/>
      <point x="97" y="514"/>
      <point x="97" y="498" type="curve" smooth="yes"/>
      <point x="97" y="138" type="line" smooth="yes"/>
      <point x="97" y="46"/>
      <point x="148" y="-8"/>
      <point x="280" y="-11" type="curve" smooth="yes"/>
    </contour>
    <contour>
      <point x="294" y="340" type="line" smooth="yes"/>
      <point x="310" y="340"/>
      <point x="323" y="353"/>
      <point x="323" y="368" type="curve" smooth="yes"/>
      <point x="323" y="384"/>
      <point x="310" y="397"/>
      <point x="294" y="397" type="curve" smooth="yes"/>
      <point x="35" y="397" type="line" smooth="yes"/>
      <point x="19" y="397"/>
      <point x="6" y="384"/>
      <point x="6" y="368" type="curve" smooth="yes"/>
      <point x="6" y="353"/>
      <point x="19" y="340"/>
      <point x="35" y="340" type="curve" smooth="yes"/>
    </contour>
    <contour>
      <point x="289" y="481"/>
      <point x="306" y="491"/>
      <point x="308" y="506" type="curve" smooth="yes"/>
      <point x="331" y="634" type="line" smooth="yes"/>
      <point x="334" y="648"/>
      <point x="323" y="663"/>
      <point x="307" y="666" type="curve" smooth="yes"/>
      <point x="292" y="670"/>
      <point x="275" y="660"/>
      <point x="272" y="644" type="curve" smooth="yes"/>
      <point x="249" y="517" type="line" smooth="yes"/>
      <point x="247" y="503"/>
      <point x="259" y="488"/>
      <point x="274" y="484" type="curve" smooth="yes"/>
    </contour>
  </outline>
</glyph>
<glyph name="acutecomb" format="1">
  <advance width="0"/>
  <unicode hex="0301"/>
  <outline>
    <contour>
      <point x="-14" y="473"/>
      <point x="5" y="474"/>
      <point x="16" y="485" type="curve" smooth="yes"/>
      <point x="44" y="517"/>
      <point x="71" y="550"/>
      <point x="100" y="581" type="curve" smooth="yes"/>
      <point x="111" y="592"/>
      <point x="109" y="611"/>
      <point x="98" y="621" type="curve" smooth="yes"/>
      <point x="86" y="632"/>
      <point x="67" y="630"/>
      <point x="56" y="619" type="curve" smooth="yes"/>
      <point x="27" y="588"/>
      <point x="-1" y="555"/>
      <point x="-29" y="523" type="curve" smooth="yes"/>
      <point x="-40" y="512"/>
      <point x="-38" y="493"/>
      <point x="-26" y="483" type="curve" smooth="yes"/>
    </contour>
    <contour>
      <point x="0" y="394" type="move" name="_top"/>
    </contour>
  </outline>
</glyph>
<glyph name="uni0302" format="1">
  <advance width="0"/>
  <unicode hex="0302"/>
  <outline>
    <contour>
      <point x="83" y="476"/>
      <point x="103" y="476"/>
      <point x="114" y="487" type="curve" smooth="yes"/>
      <point x="125" y="499"/>
      <point x="125" y="517"/>
      <point x="113" y="527" type="curve" smooth="yes"/>
      <point x="85" y="554"/>
      <point x="54" y="587"/>
      <point x="20" y="617" type="curve" smooth="yes"/>
      <point x="8" y="627"/>
      <point x="-11" y="627"/>
      <point x="-22" y="616" type="curve" smooth="yes"/>
      <point x="-33" y="604"/>
      <point x="-33" y="586"/>
      <point x="-21" y="575" type="curve" smooth="yes"/>
      <point x="12" y="545"/>
      <point x="44" y="514"/>
      <point x="72" y="487" type="curve" smooth="yes"/>
    </contour>
    <contour>
      <point x="-80" y="492"/>
      <point x="-58" y="504"/>
      <point x="-42" y="520" type="curve" smooth="yes"/>
      <point x="-19" y="543"/>
      <point x="2" y="574"/>
      <point x="14" y="599" type="curve" smooth="yes"/>
      <point x="12" y="609"/>
      <point x="1" y="618"/>
      <point x="-10" y="616" type="curve" smooth="yes"/>
      <point x="-27" y="610"/>
      <point x="-48" y="598"/>
      <point x="-63" y="583" type="curve" smooth="yes"/>
      <point x="-89" y="558"/>
      <point x="-109" y="527"/>
      <point x="-119" y="504" type="curve" smooth="yes"/>
      <point x="-117" y="494"/>
      <point x="-106" y="485"/>
      <point x="-95" y="487" type="curve" smooth="yes"/>
    </contour>
    <contour>
      <point x="0" y="394" type="move" name="_top"/>
    </contour>
  </outline>
</glyph>
<glyph name="uni0304" format="1">
  <advance width="0"/>
  <unicode hex="0304"/>
  <outline>
    <contour>
      <point x="105" y="511" type="line" smooth="yes"/>
      <point x="121" y="511"/>
      <point x="135" y="524"/>
      <point x="135" y="539" type="curve" smooth="yes"/>
      <point x="135" y="555"/>
      <point x="121" y="568"/>
      <point x="105" y="568" type="curve" smooth="yes"/>
      <point x="-106" y="568" type="line" smooth="yes"/>
      <point x="-122" y="568"/>
      <point x="-135" y="555"/>
      <point x="-135" y="539" type="curve" smooth="yes"/>
      <point x="-135" y="524"/>
      <point x="-122" y="511"/>
      <point x="-106" y="511" type="curve" smooth="yes"/>
    </contour>
    <contour>
      <point x="0" y="394" type="move" name="_top"/>
    </contour>
  </outline>
</glyph>
<glyph name="uni0307" format="1">
  <advance width="0"/>
  <unicode hex="0307"/>
  <outline>
    <contour>
      <point x="24" y="496"/>
      <point x="50" y="511"/>
      <point x="50" y="548" type="curve" smooth="yes"/>
      <point x="50" y="586"/>
      <point x="23" y="603"/>
      <point x="1" y="603" type="curve" smooth="yes"/>
      <point x="-27" y="603"/>
      <point x="-51" y="583"/>
      <point x="-51" y="548" type="curve" smooth="yes"/>
      <point x="-51" y="514"/>
      <point x="-27" y="496"/>
      <point x="1" y="496" type="curve" smooth="yes"/>
    </contour>
    <contour>
      <point x="0" y="394" type="move" name="_top"/>
    </contour>
  </outline>
</glyph>
<glyph name="uni0308" format="1">
  <advance width="0"/>
  <unicode hex="0308"/>
  <outline>
    <contour>
      <point x="119" y="491"/>
      <point x="143" y="505"/>
      <point x="143" y="543" type="curve" smooth="yes"/>
      <point x="143" y="581"/>
      <point x="118" y="598"/>
      <point x="95" y="598" type="curve" smooth="yes"/>
      <point x="72" y="598"/>
      <point x="46" y="581"/>
      <point x="46" y="543" type="curve" smooth="yes"/>
      <point x="46" y="505"/>
      <point x="71" y="491"/>
      <point x="95" y="491" type="curve" smooth="yes"/>
    </contour>
    <contour>
      <point x="-73" y="491"/>
      <point x="-48" y="503"/>
      <point x="-48" y="543" type="curve" smooth="yes"/>
      <point x="-48" y="584"/>
      <point x="-75" y="598"/>
      <point x="-95" y="598" type="curve" smooth="yes"/>
      <point x="-120" y="598"/>
      <point x="-144" y="581"/>
      <point x="-144" y="543" type="curve"/>
      <point x="-144" y="506"/>
      <point x="-121" y="491"/>
      <point x="-95" y="491" type="curve" smooth="yes"/>
    </contour>
    <contour>
      <point x="0" y="394" type="move" name="_top"/>
    </contour>
  </outline>
</glyph>
<glyph name="uni030A" format="1">
  <advance width="0"/>
  <unicode hex="030A"/>
  <outline>
    <contour>
      <point x="72" y="452"/>
      <point x="113" y="503"/>
      <point x="113" y="555" type="curve" smooth="yes"/>
      <point x="113" y="608"/>
      <point x="72" y="658"/>
      <point x="0" y="658" type="curve" smooth="yes"/>
      <point x="-70" y="658"/>
      <point x="-111" y="605"/>
      <point x="-111" y="555" type="curve" smooth="yes"/>
      <point x="-111" y="503"/>
      <point x="-70" y="452"/>
      <point x="0" y="452" type="curve" smooth="yes"/>
    </contour>
    <contour>
      <point x="-34" y="506"/>
      <point x="-55" y="529"/>
      <point x="-55" y="555" type="curve" smooth="yes"/>
      <point x="-55" y="580"/>
      <point x="-34" y="605"/>
      <point x="0" y="605" type="curve" smooth="yes"/>
      <point x="35" y="605"/>
      <point x="57" y="581"/>
      <point x="57" y="555" type="curve" smooth="yes"/>
      <point x="57" y="528"/>
      <point x="35" y="506"/>
      <point x="0" y="506" type="curve" smooth="yes"/>
    </contour>
    <contour>
      <point x="0" y="394" type="move" name="_top"/>
    </contour>
  </outline>
</glyph>
<glyph name="uni0326" format="1">
  <advance width="0"/>
  <unicode hex="0326"/>
  <outline>
    <contour>
      <point x="4" y="-243"/>
      <point x="39" y="-197"/>
      <point x="39" y="-150" type="curve" smooth="yes"/>
      <point x="39" y="-130"/>
      <point x="35" y="-111"/>
      <point x="26" y="-98" type="curve" smooth="yes"/>
      <point x="15" y="-84"/>
      <point x="-3" y="-80"/>
      <point x="-16" y="-88" type="curve" smooth="yes"/>
      <point x="-30" y="-96"/>
      <point x="-36" y="-114"/>
      <point x="-27" y="-127" type="curve" smooth="yes"/>
      <point x="-23" y="-134"/>
      <point x="-21" y="-142"/>
      <point x="-21" y="-152" type="curve" smooth="yes"/>
      <point x="-21" y="-180"/>
      <point x="-48" y="-206"/>
      <point x="-85" y="-221" type="curve" smooth="yes"/>
      <point x="-99" y="-227"/>
      <point x="-106" y="-244"/>
      <point x="-99" y="-258" type="curve" smooth="yes"/>
      <point x="-93" y="-272"/>
      <point x="-74" y="-277"/>
      <point x="-60" y="-271" type="curve" smooth="yes"/>
    </contour>
    <contour>
      <point x="-1" y="0" type="move" name="_bottom"/>
    </contour>
  </outline>
</glyph>
<glyph name="uni0335" format="1">
  <advance width="0"/>
  <unicode hex="0335"/>
  <outline>
    <contour>
      <point x="300" y="223" type="line" smooth="yes"/>
      <point x="316" y="223"/>
      <point x="329" y="236"/>
      <point x="329" y="251" type="curve" smooth="yes"/>
      <point x="329" y="267"/>
      <point x="316" y="279"/>
      <point x="300" y="279" type="curve" smooth="yes"/>
      <point x="9" y="279" type="line" smooth="yes"/>
      <point x="-7" y="279"/>
      <point x="-20" y="267"/>
      <point x="-20" y="251" type="curve" smooth="yes"/>
      <point x="-20" y="236"/>
      <point x="-7" y="223"/>
      <point x="9" y="223" type="curve" smooth="yes"/>
    </contour>
  </outline>
</glyph>
<glyph name="uni0338" format="1">
  <advance width="0"/>
  <unicode hex="0338"/>
  <outline>
    <contour>
      <point x="97" y="-33"/>
      <point x="116" y="-32"/>
      <point x="126" y="-20" type="curve" smooth="yes"/>
      <point x="556" y="497" type="line" smooth="yes"/>
      <point x="566" y="508"/>
      <point x="564" y="528"/>
      <point x="551" y="537" type="curve" smooth="yes"/>
      <point x="538" y="546"/>
      <point x="519" y="545"/>
      <point x="509" y="534" type="curve" smooth="yes"/>
      <point x="79" y="16" type="line" smooth="yes"/>
      <point x="69" y="5"/>
      <point x="71" y="-16"/>
      <point x="84" y="-24" type="curve" smooth="yes"/>
    </contour>
  </outline>
</glyph>
<glyph name="pi" format="1">
  <advance width="639"/>
  <unicode hex="03C0"/>
  <outline>
    <contour>
      <point x="525" y="-13"/>
      <point x="543" y="-8"/>
      <point x="552" y="5" type="curve" smooth="yes"/>
      <point x="560" y="18"/>
      <point x="556" y="36"/>
      <point x="542" y="44" type="curve" smooth="yes"/>
      <point x="492" y="74"/>
      <point x="474" y="119"/>
      <point x="474" y="221" type="curve" smooth="yes"/>
      <point x="474" y="405" type="line" smooth="yes"/>
      <point x="474" y="420"/>
      <point x="459" y="433"/>
      <point x="443" y="433" type="curve" smooth="yes"/>
      <point x="421.56" y="433.0"/>
      <point x="412.0" y="425.1"/>
      <point x="412" y="405" type="curve"/>
      <point x="412" y="221" type="line" smooth="yes"/>
      <point x="412" y="86"/>
      <point x="448" y="34"/>
      <point x="512" y="-4" type="curve" smooth="yes"/>
    </contour>
    <contour>
      <point x="207" y="-9"/>
      <point x="222" y="4"/>
      <point x="222" y="20" type="curve" smooth="yes"/>
      <point x="222" y="405" type="line" smooth="yes"/>
      <point x="222" y="420"/>
      <point x="207" y="433"/>
      <point x="191" y="433" type="curve" smooth="yes"/>
      <point x="169.56" y="433.0"/>
      <point x="160.0" y="425.1"/>
      <point x="160" y="405" type="curve"/>
      <point x="160" y="20" type="line" smooth="yes"/>
      <point x="160" y="4"/>
      <point x="175" y="-9"/>
      <point x="191" y="-9" type="curve" smooth="yes"/>
    </contour>
    <contour>
      <point x="555" y="382" type="line" smooth="yes"/>
      <point x="571" y="382"/>
      <point x="584" y="395"/>
      <point x="584" y="411" type="curve" smooth="yes"/>
      <point x="584.0" y="431.1"/>
      <point x="576.44" y="439.0"/>
      <point x="555" y="439" type="curve"/>
      <point x="83" y="439" type="line" smooth="yes"/>
      <point x="67" y="439"/>
      <point x="54" y="426"/>
      <point x="54" y="411" type="curve" smooth="yes"/>
      <point x="54" y="395"/>
      <point x="67" y="382"/>
      <point x="83" y="382" type="curve" smooth="yes"/>
    </contour>
  </outline>
</glyph>
<glyph name="uni0964" format="1">
  <advance width="322"/>
  <unicode hex="0964"/>
  <outline>
    <contour>
      <point x="229" y="-12"/>
      <point x="242" y="4"/>
      <point x="242" y="25" type="curve" smooth="yes"/>
      <point x="242" y="612" type="line" smooth="yes"/>
      <point x="242" y="633"/>
      <point x="228" y="649"/>
      <point x="211" y="649" type="curve" smooth="yes"/>
      <point x="194" y="649"/>
      <point x="181" y="633"/>
      <point x="181" y="612" type="curve" smooth="yes"/>
      <point x="181" y="25" type="line" smooth="yes"/>
      <point x="181" y="4"/>
      <point x="194" y="-12"/>
      <point x="211" y="-12" type="curve" smooth="yes"/>
    </contour>
  </outline>
</glyph>
<glyph name="uni0983" format="1">
  <advance width="350"/>
  <unicode hex="0983"/>
  <outline>
    <contour>
      <point x="238" y="359"/>
      <point x="295" y="397"/>
      <point x="295" y="469" type="curve" smooth="yes"/>
      <point x="295" y="540"/>
      <point x="240" y="587"/>
      <point x="176" y="587" type="curve" smooth="yes"/>
      <point x="116" y="587"/>
      <point x="62" y="547"/>
      <point x="62" y="480" type="curve" smooth="yes"/>
      <point x="62" y="411"/>
      <point x="118" y="359"/>
      <point x="183" y="359" type="curve" smooth="yes"/>
    </contour>
    <contour>
      <point x="238" y="57"/>
      <point x="295" y="96"/>
      <point x="295" y="167" type="curve" smooth="yes"/>
      <point x="295" y="234"/>
      <point x="246" y="286"/>
      <point x="175" y="286" type="curve" smooth="yes"/>
      <point x="104" y="286"/>
      <point x="62" y="233"/>
      <point x="62" y="177" type="curve" smooth="yes"/>
      <point x="62" y="110"/>
      <point x="118" y="57"/>
      <point x="183" y="57" type="curve" smooth="yes"/>
    </contour>
    <contour>
      <point x="156" y="116"/>
      <point x="123" y="136"/>
      <point x="123" y="172" type="curve" smooth="yes"/>
      <point x="123" y="200"/>
      <point x="141" y="227"/>
      <point x="178" y="227" type="curve" smooth="yes"/>
      <point x="210" y="227"/>
      <point x="237" y="205"/>
      <point x="237" y="172" type="curve" smooth="yes"/>
      <point x="237" y="140"/>
      <point x="210" y="116"/>
      <point x="182" y="116" type="curve" smooth="yes"/>
    </contour>
    <contour>
      <point x="146" y="418"/>
      <point x="123" y="446"/>
      <point x="123" y="476" type="curve" smooth="yes"/>
      <point x="123" y="504"/>
      <point x="142" y="528"/>
      <point x="177" y="528" type="curve" smooth="yes"/>
      <point x="214" y="528"/>
      <point x="237" y="500"/>
      <point x="237" y="471" type="curve" smooth="yes"/>
      <point x="237" y="442"/>
      <point x="215" y="418"/>
      <point x="182" y="418" type="curve" smooth="yes"/>
    </contour>
  </outline>
</glyph>
<glyph name="uni0987" format="1">
  <advance width="488"/>
  <unicode hex="0987"/>
  <outline>
    <contour>
      <point x="410" y="571" type="line"/>
      <point x="410" y="693"/>
      <point x="358" y="731"/>
      <point x="275" y="731" type="curve" smooth="yes"/>
      <point x="218" y="731"/>
      <point x="172" y="713"/>
      <point x="122" y="713" type="curve" smooth="yes"/>
      <point x="45" y="713"/>
      <point x="36" y="750"/>
      <point x="35" y="791" type="curve" smooth="yes"/>
      <point x="35" y="812"/>
      <point x="25" y="823"/>
      <point x="11" y="823" type="curve" smooth="yes"/>
      <point x="-5" y="823"/>
      <point x="-15" y="812"/>
      <point x="-15" y="783" type="curve" smooth="yes"/>
      <point x="-15" y="703"/>
      <point x="42" y="657"/>
      <point x="128" y="657" type="curve" smooth="yes"/>
      <point x="180" y="657"/>
      <point x="237" y="673"/>
      <point x="280" y="673" type="curve" smooth="yes"/>
      <point x="350" y="673"/>
      <point x="354" y="641"/>
      <point x="354" y="571" type="curve"/>
    </contour>
    <contour>
      <point x="447" y="-23"/>
      <point x="458" y="-11"/>
      <point x="458" y="4" type="curve" smooth="yes"/>
      <point x="458" y="23"/>
      <point x="439" y="26"/>
      <point x="403" y="38" type="curve" smooth="yes"/>
      <point x="343" y="57"/>
      <point x="313" y="102"/>
      <point x="271" y="157" type="curve" smooth="yes"/>
      <point x="230" y="210"/>
      <point x="195" y="241"/>
      <point x="146" y="241" type="curve" smooth="yes"/>
      <point x="103" y="241"/>
      <point x="75" y="212"/>
      <point x="75" y="179" type="curve" smooth="yes"/>
      <point x="75" y="138"/>
      <point x="113" y="105"/>
      <point x="174" y="105" type="curve" smooth="yes"/>
      <point x="296" y="105"/>
      <point x="411" y="202"/>
      <point x="411" y="314" type="curve" smooth="yes"/>
      <point x="411" y="424"/>
      <point x="330" y="492"/>
      <point x="228" y="492" type="curve" smooth="yes"/>
      <point x="158" y="492"/>
      <point x="78" y="460"/>
      <point x="78" y="385" type="curve" smooth="yes"/>
      <point x="78" y="342"/>
      <point x="110" y="304"/>
      <point x="162" y="304" type="curve" smooth="yes"/>
      <point x="211" y="304"/>
      <point x="242" y="341"/>
      <point x="242" y="382" type="curve" smooth="yes"/>
      <point x="242" y="426"/>
      <point x="206" y="449"/>
      <point x="178" y="449" type="curve" smooth="yes"/>
      <point x="157" y="449"/>
      <point x="139" y="443"/>
      <point x="127" y="429" type="curve"/>
      <point x="150" y="426" type="line"/>
      <point x="170" y="438"/>
      <point x="199" y="447"/>
      <point x="225" y="447" type="curve" smooth="yes"/>
      <point x="286" y="447"/>
      <point x="349" y="398"/>
      <point x="349" y="327" type="curve" smooth="yes"/>
      <point x="349" y="232"/>
      <point x="261" y="164"/>
      <point x="164" y="164" type="curve" smooth="yes"/>
      <point x="140" y="164"/>
      <point x="127" y="173"/>
      <point x="127" y="180" type="curve" smooth="yes"/>
      <point x="127" y="184"/>
      <point x="133" y="187"/>
      <point x="143" y="187" type="curve" smooth="yes"/>
      <point x="168" y="187"/>
      <point x="197" y="146"/>
      <point x="219" y="120" type="curve" smooth="yes"/>
      <point x="264" y="69"/>
      <point x="332" y="-23"/>
      <point x="418" y="-23" type="curve" smooth="yes"/>
    </contour>
    <contour>
      <point x="145" y="355"/>
      <point x="131" y="369"/>
      <point x="131" y="387" type="curve" smooth="yes"/>
      <point x="131" y="405"/>
      <point x="145" y="419"/>
      <point x="163" y="419" type="curve" smooth="yes"/>
      <point x="181" y="419"/>
      <point x="195" y="405"/>
      <point x="195" y="387" type="curve" smooth="yes"/>
      <point x="195" y="369"/>
      <point x="181" y="355"/>
      <point x="163" y="355" type="curve" smooth="yes"/>
    </contour>
    <contour>
      <point x="488" y="534" type="line" smooth="yes"/>
      <point x="504" y="534"/>
      <point x="518" y="546"/>
      <point x="518" y="561" type="curve" smooth="yes"/>
      <point x="518" y="576"/>
      <point x="504" y="587"/>
      <point x="488" y="587" type="curve" smooth="yes"/>
      <point x="0" y="587" type="line" smooth="yes"/>
      <point x="-17" y="587"/>
      <point x="-30" y="576"/>
      <point x="-30" y="561" type="curve" smooth="yes"/>
      <point x="-30" y="546"/>
      <point x="-17" y="534"/>
      <point x="0" y="534" type="curve" smooth="yes"/>
    </contour>
  </outline>
</glyph>
<glyph name="uni098B" format="1">
  <advance width="665"/>
  <unicode hex="098B"/>
  <outline>
    <contour>
      <point x="410" y="98" type="line"/>
      <point x="391" y="188"/>
      <point x="235" y="279"/>
      <point x="98" y="291" type="curve"/>
      <point x="108" y="274" type="line"/>
      <point x="330" y="347"/>
      <point x="402" y="402"/>
      <point x="402" y="472" type="curve" smooth="yes"/>
      <point x="402" y="536"/>
      <point x="343" y="589"/>
      <point x="291" y="589" type="curve" smooth="yes"/>
      <point x="206" y="589"/>
      <point x="228" y="465"/>
      <point x="148" y="465" type="curve" smooth="yes"/>
      <point x="132" y="465"/>
      <point x="114" y="471"/>
      <point x="105" y="475" type="curve"/>
      <point x="100" y="457" type="line"/>
      <point x="146" y="457"/>
      <point x="169" y="484"/>
      <point x="169" y="518" type="curve" smooth="yes"/>
      <point x="169" y="555"/>
      <point x="142" y="590"/>
      <point x="95" y="590" type="curve" smooth="yes"/>
      <point x="47" y="590"/>
      <point x="17" y="553"/>
      <point x="17" y="513" type="curve" smooth="yes"/>
      <point x="17" y="467"/>
      <point x="60" y="417"/>
      <point x="136" y="417" type="curve" smooth="yes"/>
      <point x="257" y="417"/>
      <point x="259" y="532"/>
      <point x="305" y="532" type="curve" smooth="yes"/>
      <point x="325" y="532"/>
      <point x="357" y="512"/>
      <point x="357" y="485" type="curve" smooth="yes"/>
      <point x="357" y="437"/>
      <point x="280" y="403"/>
      <point x="82" y="327" type="curve" smooth="yes"/>
      <point x="55" y="316"/>
      <point x="47" y="301"/>
      <point x="47" y="286" type="curve" smooth="yes"/>
      <point x="47" y="261"/>
      <point x="67" y="247"/>
      <point x="96" y="239" type="curve" smooth="yes"/>
      <point x="152" y="224"/>
      <point x="374" y="162"/>
      <point x="374" y="56" type="curve"/>
    </contour>
    <contour>
      <point x="78" y="481"/>
      <point x="64" y="494"/>
      <point x="64" y="512" type="curve" smooth="yes"/>
      <point x="64" y="530"/>
      <point x="78" y="544"/>
      <point x="95" y="544" type="curve" smooth="yes"/>
      <point x="113" y="544"/>
      <point x="127" y="530"/>
      <point x="127" y="512" type="curve" smooth="yes"/>
      <point x="127" y="494"/>
      <point x="113" y="481"/>
      <point x="95" y="481" type="curve" smooth="yes"/>
    </contour>
    <contour>
      <point x="545" y="98" type="line"/>
      <point x="545" y="201"/>
      <point x="435" y="202"/>
      <point x="435" y="312" type="curve"/>
      <point x="405" y="254" type="line"/>
      <point x="405" y="176"/>
      <point x="517" y="157"/>
      <point x="517" y="75" type="curve"/>
    </contour>
    <contour>
      <point x="422" y="-12"/>
      <point x="435" y="4"/>
      <point x="435" y="25" type="curve" smooth="yes"/>
      <point x="435" y="572" type="line" smooth="yes"/>
      <point x="435" y="593"/>
      <point x="422" y="609"/>
      <point x="405" y="609" type="curve" smooth="yes"/>
      <point x="387" y="609"/>
      <point x="374" y="592"/>
      <point x="374" y="571" type="curve" smooth="yes"/>
      <point x="374" y="25" type="line" smooth="yes"/>
      <point x="374" y="4"/>
      <point x="387" y="-12"/>
      <point x="405" y="-12" type="curve" smooth="yes"/>
    </contour>
    <contour>
      <point x="565" y="31"/>
      <point x="579" y="47"/>
      <point x="579" y="68" type="curve" smooth="yes"/>
      <point x="579" y="456" type="line" smooth="yes"/>
      <point x="579" y="524"/>
      <point x="583" y="534"/>
      <point x="617" y="534" type="curve" smooth="yes"/>
      <point x="666" y="534" type="line" smooth="yes"/>
      <point x="682" y="534"/>
      <point x="696" y="545"/>
      <point x="696" y="561" type="curve" smooth="yes"/>
      <point x="696" y="576"/>
      <point x="682" y="587"/>
      <point x="666" y="587" type="curve" smooth="yes"/>
      <point x="597" y="587" type="line" smooth="yes"/>
      <point x="547" y="587"/>
      <point x="517" y="553"/>
      <point x="517" y="480" type="curve" smooth="yes"/>
      <point x="517" y="68" type="line" smooth="yes"/>
      <point x="517" y="47"/>
      <point x="531" y="31"/>
      <point x="548" y="31" type="curve" smooth="yes"/>
    </contour>
  </outline>
</glyph>
<glyph name="uni0994" format="1">
  <advance width="660"/>
  <unicode hex="0994"/>
  <outline>
    <contour>
      <point x="468" y="292" type="line"/>
      <point x="540" y="292"/>
      <point x="641" y="367"/>
      <point x="641" y="487" type="curve" smooth="yes"/>
      <point x="641" y="635"/>
      <point x="525" y="685"/>
      <point x="404" y="735" type="curve"/>
      <point x="323" y="768"/>
      <point x="274" y="798"/>
      <point x="266" y="853" type="curve"/>
      <point x="263" y="872"/>
      <point x="262" y="900"/>
      <point x="239" y="900" type="curve" smooth="yes"/>
      <point x="221" y="900"/>
      <point x="212" y="882"/>
      <point x="212" y="856" type="curve" smooth="yes"/>
      <point x="212" y="775"/>
      <point x="277" y="725"/>
      <point x="373" y="684" type="curve" smooth="yes"/>
      <point x="484" y="637"/>
      <point x="588" y="605"/>
      <point x="588" y="492" type="curve" smooth="yes"/>
      <point x="588" y="422"/>
      <point x="526" y="357"/>
      <point x="457" y="357" type="curve"/>
    </contour>
    <contour>
      <point x="447" y="43"/>
      <point x="539" y="104"/>
      <point x="539" y="220" type="curve" smooth="yes"/>
      <point x="539" y="308"/>
      <point x="476" y="392"/>
      <point x="386" y="392" type="curve" smooth="yes"/>
      <point x="328" y="392"/>
      <point x="300" y="357"/>
      <point x="300" y="319" type="curve" smooth="yes"/>
      <point x="300" y="280"/>
      <point x="331" y="247"/>
      <point x="381" y="247" type="curve" smooth="yes"/>
      <point x="456" y="247"/>
      <point x="513" y="341"/>
      <point x="513" y="431" type="curve" smooth="yes"/>
      <point x="513" y="532"/>
      <point x="443" y="601"/>
      <point x="338" y="601" type="curve" smooth="yes"/>
      <point x="218" y="601"/>
      <point x="131" y="511"/>
      <point x="131" y="426" type="curve" smooth="yes"/>
      <point x="131" y="374"/>
      <point x="169" y="334"/>
      <point x="219" y="334" type="curve" smooth="yes"/>
      <point x="268" y="334"/>
      <point x="301" y="373"/>
      <point x="301" y="415" type="curve" smooth="yes"/>
      <point x="301" y="457"/>
      <point x="268" y="495"/>
      <point x="224" y="495" type="curve" smooth="yes"/>
      <point x="208" y="495"/>
      <point x="188" y="489"/>
      <point x="173" y="476" type="curve"/>
      <point x="213" y="471" type="line"/>
      <point x="235" y="512"/>
      <point x="292" y="543"/>
      <point x="346" y="543" type="curve" smooth="yes"/>
      <point x="404" y="543"/>
      <point x="457" y="508"/>
      <point x="457" y="430" type="curve" smooth="yes"/>
      <point x="457" y="368"/>
      <point x="424" y="300"/>
      <point x="376" y="300" type="curve" smooth="yes"/>
      <point x="359" y="300"/>
      <point x="348" y="307"/>
      <point x="348" y="318" type="curve" smooth="yes"/>
      <point x="348" y="330"/>
      <point x="360" y="341"/>
      <point x="384" y="341" type="curve" smooth="yes"/>
      <point x="429" y="341"/>
      <point x="481" y="295"/>
      <point x="481" y="235" type="curve" smooth="yes"/>
      <point x="481" y="161"/>
      <point x="420" y="113"/>
      <point x="338" y="113" type="curve" smooth="yes"/>
      <point x="155" y="113"/>
      <point x="79" y="383"/>
      <point x="64" y="450" type="curve" smooth="yes"/>
      <point x="59" y="473"/>
      <point x="52" y="485"/>
      <point x="38" y="485" type="curve" smooth="yes"/>
      <point x="24" y="485"/>
      <point x="12" y="476"/>
      <point x="12" y="447" type="curve" smooth="yes"/>
      <point x="12" y="375"/>
      <point x="116" y="43"/>
      <point x="348" y="43" type="curve" smooth="yes"/>
    </contour>
    <contour>
      <point x="203" y="389"/>
      <point x="185" y="403"/>
      <point x="185" y="423" type="curve" smooth="yes"/>
      <point x="185" y="445"/>
      <point x="203" y="458"/>
      <point x="220" y="458" type="curve" smooth="yes"/>
      <point x="237" y="458"/>
      <point x="254" y="445"/>
      <point x="254" y="423" type="curve" smooth="yes"/>
      <point x="254" y="403"/>
      <point x="237" y="389"/>
      <point x="220" y="389" type="curve" smooth="yes"/>
    </contour>
  </outline>
</glyph>
<glyph name="uni0997" format="1">
  <advance width="548"/>
  <unicode hex="0997"/>
  <outline>
    <contour>
      <point x="145" y="97"/>
      <point x="164" y="106"/>
      <point x="188" y="122" type="curve" smooth="yes"/>
      <point x="236" y="151"/>
      <point x="316" y="216"/>
      <point x="316" y="307" type="curve" smooth="yes"/>
      <point x="316" y="356"/>
      <point x="293" y="403"/>
      <point x="231" y="403" type="curve" smooth="yes"/>
      <point x="192" y="403"/>
      <point x="165" y="384"/>
      <point x="133" y="384" type="curve" smooth="yes"/>
      <point x="99" y="384"/>
      <point x="83" y="408"/>
      <point x="83" y="435" type="curve" smooth="yes"/>
      <point x="83" y="484"/>
      <point x="131" y="528"/>
      <point x="204" y="528" type="curve" smooth="yes"/>
      <point x="325" y="528"/>
      <point x="399" y="417"/>
      <point x="399" y="294" type="curve"/>
      <point x="421" y="356" type="line"/>
      <point x="421" y="508"/>
      <point x="313" y="590"/>
      <point x="198" y="590" type="curve" smooth="yes"/>
      <point x="90" y="590"/>
      <point x="16" y="517"/>
      <point x="16" y="434" type="curve" smooth="yes"/>
      <point x="16" y="375"/>
      <point x="54" y="324"/>
      <point x="121" y="324" type="curve" smooth="yes"/>
      <point x="166" y="324"/>
      <point x="197" y="347"/>
      <point x="225" y="347" type="curve" smooth="yes"/>
      <point x="249" y="347"/>
      <point x="261" y="330"/>
      <point x="261" y="305" type="curve" smooth="yes"/>
      <point x="261" y="241"/>
      <point x="179" y="194"/>
      <point x="131" y="166" type="curve" smooth="yes"/>
      <point x="111" y="154"/>
      <point x="98" y="143"/>
      <point x="98" y="125" type="curve" smooth="yes"/>
      <point x="98" y="111"/>
      <point x="108" y="97"/>
      <point x="130" y="97" type="curve" smooth="yes"/>
    </contour>
    <contour>
      <point x="447" y="-12"/>
      <point x="461" y="4"/>
      <point x="461" y="25" type="curve" smooth="yes"/>
      <point x="461" y="470" type="line" smooth="yes"/>
      <point x="461" y="524"/>
      <point x="462" y="534"/>
      <point x="499" y="534" type="curve" smooth="yes"/>
      <point x="548" y="534" type="line" smooth="yes"/>
      <point x="565" y="534"/>
      <point x="578" y="545"/>
      <point x="578" y="561" type="curve" smooth="yes"/>
      <point x="578" y="576"/>
      <point x="565" y="587"/>
      <point x="548" y="587" type="curve" smooth="yes"/>
      <point x="479" y="587" type="line" smooth="yes"/>
      <point x="430" y="587"/>
      <point x="399" y="558"/>
      <point x="399" y="492" type="curve" smooth="yes"/>
      <point x="399" y="25" type="line" smooth="yes"/>
      <point x="399" y="4"/>
      <point x="413" y="-12"/>
      <point x="430" y="-12" type="curve" smooth="yes"/>
    </contour>
  </outline>
</glyph>
<glyph name="uni0998" format="1">
  <advance width="524"/>
  <unicode hex="0998"/>
  <outline>
    <contour>
      <point x="423" y="-12"/>
      <point x="437" y="4"/>
      <point x="437" y="25" type="curve" smooth="yes"/>
      <point x="437" y="456" type="line" smooth="yes"/>
      <point x="437" y="524"/>
      <point x="441" y="534"/>
      <point x="475" y="534" type="curve" smooth="yes"/>
      <point x="524" y="534" type="line" smooth="yes"/>
      <point x="541" y="534"/>
      <point x="554" y="545"/>
      <point x="554" y="561" type="curve" smooth="yes"/>
      <point x="554" y="576"/>
      <point x="541" y="587"/>
      <point x="524" y="587" type="curve" smooth="yes"/>
      <point x="459" y="587" type="line" smooth="yes"/>
      <point x="415" y="587"/>
      <point x="383" y="564"/>
      <point x="383" y="500" type="curve"/>
      <point x="403" y="510" type="line"/>
      <point x="403" y="567"/>
      <point x="369" y="587"/>
      <point x="319" y="587" type="curve" smooth="yes"/>
      <point x="0" y="587" type="line" smooth="yes"/>
      <point x="-17" y="587"/>
      <point x="-30" y="576"/>
      <point x="-30" y="561" type="curve" smooth="yes"/>
      <point x="-30" y="545"/>
      <point x="-17" y="534"/>
      <point x="0" y="534" type="curve" smooth="yes"/>
      <point x="321" y="534" type="line" smooth="yes"/>
      <point x="368" y="534"/>
      <point x="375" y="515"/>
      <point x="375" y="463" type="curve" smooth="yes"/>
      <point x="375" y="25" type="line" smooth="yes"/>
      <point x="375" y="4"/>
      <point x="389" y="-12"/>
      <point x="406" y="-12" type="curve" smooth="yes"/>
    </contour>
    <contour>
      <point x="412" y="73" type="line"/>
      <point x="388" y="177"/>
      <point x="217" y="256"/>
      <point x="133" y="276" type="curve"/>
      <point x="142" y="252" type="line"/>
      <point x="270" y="339" type="line" smooth="yes"/>
      <point x="294" y="355"/>
      <point x="309" y="368"/>
      <point x="309" y="387" type="curve" smooth="yes"/>
      <point x="309" y="405"/>
      <point x="296" y="413"/>
      <point x="281" y="413" type="curve" smooth="yes"/>
      <point x="261" y="413"/>
      <point x="244" y="393"/>
      <point x="203" y="393" type="curve" smooth="yes"/>
      <point x="161" y="393"/>
      <point x="121" y="413"/>
      <point x="121" y="459" type="curve" smooth="yes"/>
      <point x="121" y="497"/>
      <point x="147" y="535"/>
      <point x="211" y="534" type="curve"/>
      <point x="161" y="572" type="line"/>
      <point x="79" y="572"/>
      <point x="51" y="509"/>
      <point x="51" y="461" type="curve" smooth="yes"/>
      <point x="51" y="388"/>
      <point x="113" y="348"/>
      <point x="172" y="348" type="curve" smooth="yes"/>
      <point x="191" y="348"/>
      <point x="220" y="355"/>
      <point x="235" y="368" type="curve"/>
      <point x="212" y="373" type="line"/>
      <point x="85" y="291" type="line" smooth="yes"/>
      <point x="72" y="283"/>
      <point x="61" y="271"/>
      <point x="61" y="256" type="curve" smooth="yes"/>
      <point x="61" y="242"/>
      <point x="74" y="227"/>
      <point x="94" y="222" type="curve" smooth="yes"/>
      <point x="185" y="197"/>
      <point x="376" y="124"/>
      <point x="376" y="45" type="curve"/>
    </contour>
  </outline>
</glyph>
<glyph name="uni099A" format="1">
  <advance width="465"/>
  <unicode hex="099A"/>
  <outline>
    <contour>
      <point x="297" y="-12"/>
      <point x="438" y="188"/>
      <point x="438" y="283" type="curve" smooth="yes"/>
      <point x="438" y="339"/>
      <point x="402" y="357"/>
      <point x="324" y="373" type="curve" smooth="yes"/>
      <point x="220" y="393"/>
      <point x="158" y="415"/>
      <point x="158" y="485" type="curve" smooth="yes"/>
      <point x="158" y="528"/>
      <point x="181" y="535"/>
      <point x="217" y="535" type="curve" smooth="yes"/>
      <point x="465" y="534" type="line" smooth="yes"/>
      <point x="482" y="534"/>
      <point x="495" y="546"/>
      <point x="495" y="561" type="curve" smooth="yes"/>
      <point x="495" y="576"/>
      <point x="482" y="587"/>
      <point x="465" y="587" type="curve" smooth="yes"/>
      <point x="182" y="587" type="line" smooth="yes"/>
      <point x="133" y="587"/>
      <point x="104" y="556"/>
      <point x="104" y="517" type="curve"/>
      <point x="116" y="527" type="line"/>
      <point x="111" y="555"/>
      <point x="79" y="587"/>
      <point x="35" y="587" type="curve" smooth="yes"/>
      <point x="0" y="587" type="line" smooth="yes"/>
      <point x="-17" y="587"/>
      <point x="-30" y="576"/>
      <point x="-30" y="561" type="curve" smooth="yes"/>
      <point x="-30" y="546"/>
      <point x="-17" y="534"/>
      <point x="0" y="534" type="curve" smooth="yes"/>
      <point x="33" y="534" type="line" smooth="yes"/>
      <point x="89" y="534"/>
      <point x="97" y="486"/>
      <point x="97" y="430" type="curve" smooth="yes"/>
      <point x="95" y="128" type="line" smooth="yes"/>
      <point x="95" y="38"/>
      <point x="117" y="-12"/>
      <point x="184" y="-12" type="curve" smooth="yes"/>
    </contour>
    <contour>
      <point x="157" y="59"/>
      <point x="157" y="106"/>
      <point x="157" y="136" type="curve" smooth="yes"/>
      <point x="157" y="416" type="line"/>
      <point x="139" y="402" type="line"/>
      <point x="163" y="352"/>
      <point x="239" y="332"/>
      <point x="312" y="318" type="curve" smooth="yes"/>
      <point x="351" y="312"/>
      <point x="369" y="298"/>
      <point x="369" y="273" type="curve" smooth="yes"/>
      <point x="369" y="214"/>
      <point x="257" y="59"/>
      <point x="193" y="59" type="curve" smooth="yes"/>
    </contour>
  </outline>
</glyph>
<glyph name="uni09A1" format="1">
  <advance width="594"/>
  <unicode hex="09A1"/>
  <outline>
    <contour>
      <point x="481" y="23"/>
      <point x="565" y="108"/>
      <point x="565" y="226" type="curve" smooth="yes"/>
      <point x="566" y="315"/>
      <point x="517" y="398"/>
      <point x="474" y="398" type="curve" smooth="yes"/>
      <point x="449" y="398"/>
      <point x="451" y="372"/>
      <point x="451" y="355" type="curve" smooth="yes"/>
      <point x="451" y="318"/>
      <point x="424" y="280"/>
      <point x="378" y="280" type="curve" smooth="yes"/>
      <point x="331" y="280"/>
      <point x="296" y="323"/>
      <point x="296" y="396" type="curve" smooth="yes"/>
      <point x="296" y="485"/>
      <point x="327" y="534"/>
      <point x="385" y="534" type="curve" smooth="yes"/>
      <point x="594" y="534" type="line" smooth="yes"/>
      <point x="610" y="534"/>
      <point x="624" y="546"/>
      <point x="624" y="561" type="curve" smooth="yes"/>
      <point x="624" y="576"/>
      <point x="610" y="587"/>
      <point x="594" y="587" type="curve" smooth="yes"/>
      <point x="367" y="587" type="line" smooth="yes"/>
      <point x="314" y="587"/>
      <point x="264" y="548"/>
      <point x="264" y="514" type="curve"/>
      <point x="288" y="514" type="line"/>
      <point x="288" y="559"/>
      <point x="253" y="587"/>
      <point x="192" y="587" type="curve" smooth="yes"/>
      <point x="0" y="587" type="line" smooth="yes"/>
      <point x="-17" y="587"/>
      <point x="-30" y="576"/>
      <point x="-30" y="561" type="curve" smooth="yes"/>
      <point x="-30" y="546"/>
      <point x="-17" y="534"/>
      <point x="0" y="534" type="curve" smooth="yes"/>
      <point x="190" y="534" type="line" smooth="yes"/>
      <point x="231" y="534"/>
      <point x="251" y="523"/>
      <point x="251" y="498" type="curve" smooth="yes"/>
      <point x="251" y="477"/>
      <point x="236" y="440"/>
      <point x="236" y="387" type="curve" smooth="yes"/>
      <point x="236" y="285"/>
      <point x="293" y="214"/>
      <point x="376" y="214" type="curve" smooth="yes"/>
      <point x="473" y="214"/>
      <point x="499" y="313"/>
      <point x="492" y="343" type="curve"/>
      <point x="477" y="337" type="line"/>
      <point x="502" y="301"/>
      <point x="508" y="263"/>
      <point x="508" y="236" type="curve" smooth="yes"/>
      <point x="508" y="156"/>
      <point x="450" y="92"/>
      <point x="362" y="92" type="curve" smooth="yes"/>
      <point x="197" y="92"/>
      <point x="112" y="279"/>
      <point x="92" y="428" type="curve" smooth="yes"/>
      <point x="89" y="444"/>
      <point x="82" y="462"/>
      <point x="63" y="462" type="curve" smooth="yes"/>
      <point x="41" y="462"/>
      <point x="37" y="443"/>
      <point x="37" y="425" type="curve" smooth="yes"/>
      <point x="37" y="309"/>
      <point x="146" y="23"/>
      <point x="365" y="23" type="curve" smooth="yes"/>
    </contour>
  </outline>
</glyph>
<glyph name="uni09A2" format="1">
  <advance width="488"/>
  <unicode hex="09A2"/>
  <outline>
    <contour>
      <point x="317" y="-12"/>
      <point x="438" y="192"/>
      <point x="438" y="311" type="curve" smooth="yes"/>
      <point x="438" y="368"/>
      <point x="407" y="425"/>
      <point x="340" y="425" type="curve" smooth="yes"/>
      <point x="290" y="425"/>
      <point x="247" y="389"/>
      <point x="247" y="335" type="curve" smooth="yes"/>
      <point x="247" y="277"/>
      <point x="295" y="247"/>
      <point x="337" y="247" type="curve" smooth="yes"/>
      <point x="370" y="247"/>
      <point x="403" y="270"/>
      <point x="412" y="306" type="curve"/>
      <point x="371" y="284" type="line"/>
      <point x="368" y="188"/>
      <point x="256" y="52"/>
      <point x="192" y="52" type="curve" smooth="yes"/>
      <point x="151" y="52"/>
      <point x="148" y="92"/>
      <point x="148" y="140" type="curve" smooth="yes"/>
      <point x="148" y="479" type="line" smooth="yes"/>
      <point x="148" y="533"/>
      <point x="168" y="534"/>
      <point x="208" y="534" type="curve" smooth="yes"/>
      <point x="488" y="534" type="line" smooth="yes"/>
      <point x="505" y="534"/>
      <point x="518" y="546"/>
      <point x="518" y="561" type="curve" smooth="yes"/>
      <point x="518" y="576"/>
      <point x="505" y="587"/>
      <point x="488" y="587" type="curve" smooth="yes"/>
      <point x="161" y="587" type="line" smooth="yes"/>
      <point x="116" y="587"/>
      <point x="93" y="565"/>
      <point x="93" y="515" type="curve"/>
      <point x="102" y="530" type="line"/>
      <point x="102" y="559"/>
      <point x="67" y="587"/>
      <point x="23" y="587" type="curve" smooth="yes"/>
      <point x="0" y="587" type="line" smooth="yes"/>
      <point x="-17" y="587"/>
      <point x="-30" y="576"/>
      <point x="-30" y="561" type="curve" smooth="yes"/>
      <point x="-30" y="546"/>
      <point x="-17" y="534"/>
      <point x="0" y="534" type="curve" smooth="yes"/>
      <point x="28" y="534" type="line" smooth="yes"/>
      <point x="70" y="534"/>
      <point x="87" y="510"/>
      <point x="87" y="459" type="curve" smooth="yes"/>
      <point x="87" y="125" type="line" smooth="yes"/>
      <point x="87" y="80"/>
      <point x="89" y="-12"/>
      <point x="187" y="-12" type="curve" smooth="yes"/>
    </contour>
    <contour>
      <point x="319" y="294"/>
      <point x="303" y="310"/>
      <point x="303" y="329" type="curve" smooth="yes"/>
      <point x="303" y="349"/>
      <point x="319" y="365"/>
      <point x="339" y="365" type="curve" smooth="yes"/>
      <point x="359" y="365"/>
      <point x="375" y="349"/>
      <point x="375" y="329" type="curve" smooth="yes"/>
      <point x="375" y="310"/>
      <point x="359" y="294"/>
      <point x="339" y="294" type="curve" smooth="yes"/>
    </contour>
  </outline>
</glyph>
<glyph name="uni09A4" format="1">
  <advance width="567"/>
  <unicode hex="09A4"/>
  <outline>
    <contour>
      <point x="454" y="43"/>
      <point x="525" y="144"/>
      <point x="525" y="250" type="curve" smooth="yes"/>
      <point x="525" y="365"/>
      <point x="438" y="460"/>
      <point x="325" y="460" type="curve" smooth="yes"/>
      <point x="257" y="460"/>
      <point x="204" y="420"/>
      <point x="204" y="361" type="curve" smooth="yes"/>
      <point x="204" y="305"/>
      <point x="249" y="265"/>
      <point x="302" y="265" type="curve" smooth="yes"/>
      <point x="355" y="265"/>
      <point x="390" y="308"/>
      <point x="390" y="353" type="curve" smooth="yes"/>
      <point x="390" y="385"/>
      <point x="372" y="417"/>
      <point x="330" y="428" type="curve"/>
      <point x="318" y="414" type="line"/>
      <point x="412" y="407"/>
      <point x="466" y="338"/>
      <point x="466" y="256" type="curve" smooth="yes"/>
      <point x="466" y="171"/>
      <point x="404" y="111"/>
      <point x="321" y="111" type="curve" smooth="yes"/>
      <point x="192" y="111"/>
      <point x="110" y="250"/>
      <point x="76" y="407" type="curve" smooth="yes"/>
      <point x="72" y="424"/>
      <point x="65" y="439"/>
      <point x="48" y="439" type="curve" smooth="yes"/>
      <point x="32" y="439"/>
      <point x="22" y="425"/>
      <point x="22" y="406" type="curve" smooth="yes"/>
      <point x="22" y="339"/>
      <point x="106" y="43"/>
      <point x="331" y="43" type="curve" smooth="yes"/>
    </contour>
    <contour>
      <point x="284" y="326"/>
      <point x="268" y="341"/>
      <point x="268" y="363" type="curve" smooth="yes"/>
      <point x="268" y="381"/>
      <point x="284" y="398"/>
      <point x="303" y="398" type="curve" smooth="yes"/>
      <point x="323" y="398"/>
      <point x="339" y="381"/>
      <point x="339" y="363" type="curve" smooth="yes"/>
      <point x="339" y="341"/>
      <point x="323" y="326"/>
      <point x="303" y="326" type="curve" smooth="yes"/>
    </contour>
    <contour>
      <point x="567" y="534" type="line" smooth="yes"/>
      <point x="584" y="534"/>
      <point x="597" y="546"/>
      <point x="597" y="561" type="curve" smooth="yes"/>
      <point x="597" y="576"/>
      <point x="584" y="587"/>
      <point x="567" y="587" type="curve" smooth="yes"/>
      <point x="0" y="587" type="line" smooth="yes"/>
      <point x="-17" y="587"/>
      <point x="-30" y="576"/>
      <point x="-30" y="561" type="curve" smooth="yes"/>
      <point x="-30" y="546"/>
      <point x="-17" y="534"/>
      <point x="0" y="534" type="curve" smooth="yes"/>
    </contour>
  </outline>
</glyph>
<glyph name="uni09A5" format="1">
  <advance width="522"/>
  <unicode hex="09A5"/>
  <outline>
    <contour>
      <point x="412" y="83" type="line"/>
      <point x="377" y="190"/>
      <point x="204" y="280"/>
      <point x="119" y="280" type="curve"/>
      <point x="146" y="258" type="line"/>
      <point x="240" y="272"/>
      <point x="324" y="338"/>
      <point x="324" y="435" type="curve" smooth="yes"/>
      <point x="324" y="539"/>
      <point x="243" y="590"/>
      <point x="167" y="590" type="curve" smooth="yes"/>
      <point x="88" y="590"/>
      <point x="17" y="536"/>
      <point x="17" y="472" type="curve" smooth="yes"/>
      <point x="17" y="429"/>
      <point x="50" y="391"/>
      <point x="101" y="391" type="curve" smooth="yes"/>
      <point x="152" y="391"/>
      <point x="183" y="429"/>
      <point x="183" y="467" type="curve" smooth="yes"/>
      <point x="183" y="503"/>
      <point x="155" y="543"/>
      <point x="103" y="543" type="curve"/>
      <point x="87" y="514" type="line"/>
      <point x="113" y="532"/>
      <point x="142" y="541"/>
      <point x="169" y="541" type="curve" smooth="yes"/>
      <point x="227" y="541"/>
      <point x="268" y="499"/>
      <point x="268" y="439" type="curve" smooth="yes"/>
      <point x="268" y="348"/>
      <point x="166" y="311"/>
      <point x="100" y="311" type="curve" smooth="yes"/>
      <point x="75" y="311"/>
      <point x="54" y="301"/>
      <point x="54" y="275" type="curve" smooth="yes"/>
      <point x="54" y="256"/>
      <point x="68" y="246"/>
      <point x="86" y="240" type="curve" smooth="yes"/>
      <point x="160" y="214"/>
      <point x="373" y="143"/>
      <point x="373" y="47" type="curve"/>
    </contour>
    <contour>
      <point x="89" y="442"/>
      <point x="71" y="454"/>
      <point x="71" y="475" type="curve" smooth="yes"/>
      <point x="71" y="493"/>
      <point x="86" y="507"/>
      <point x="104" y="507" type="curve" smooth="yes"/>
      <point x="122" y="507"/>
      <point x="136" y="494"/>
      <point x="136" y="475" type="curve" smooth="yes"/>
      <point x="136" y="455"/>
      <point x="121" y="442"/>
      <point x="105" y="442" type="curve" smooth="yes"/>
    </contour>
    <contour>
      <point x="421" y="-12"/>
      <point x="435" y="4"/>
      <point x="435" y="25" type="curve" smooth="yes"/>
      <point x="435" y="456" type="line" smooth="yes"/>
      <point x="435" y="524"/>
      <point x="439" y="534"/>
      <point x="473" y="534" type="curve" smooth="yes"/>
      <point x="522" y="534" type="line" smooth="yes"/>
      <point x="539" y="534"/>
      <point x="552" y="545"/>
      <point x="552" y="561" type="curve" smooth="yes"/>
      <point x="552" y="576"/>
      <point x="539" y="587"/>
      <point x="522" y="587" type="curve" smooth="yes"/>
      <point x="457" y="587" type="line" smooth="yes"/>
      <point x="403" y="587"/>
      <point x="373" y="553"/>
      <point x="373" y="472" type="curve" smooth="yes"/>
      <point x="373" y="25" type="line" smooth="yes"/>
      <point x="373" y="4"/>
      <point x="387" y="-12"/>
      <point x="404" y="-12" type="curve" smooth="yes"/>
    </contour>
  </outline>
</glyph>
<glyph name="uni09A6" format="1">
  <advance width="528"/>
  <unicode hex="09A6"/>
  <outline>
    <contour>
      <point x="430" y="-24"/>
      <point x="441" y="-4"/>
      <point x="441" y="17" type="curve" smooth="yes"/>
      <point x="441" y="64" type="line" smooth="yes"/>
      <point x="441" y="158"/>
      <point x="428" y="201"/>
      <point x="428" y="255" type="curve" smooth="yes"/>
      <point x="428" y="324"/>
      <point x="456" y="382"/>
      <point x="456" y="412" type="curve" smooth="yes"/>
      <point x="456" y="427"/>
      <point x="449" y="442"/>
      <point x="430" y="442" type="curve" smooth="yes"/>
      <point x="386" y="442"/>
      <point x="226" y="337"/>
      <point x="126" y="230" type="curve"/>
      <point x="149" y="211" type="line"/>
      <point x="149" y="451" type="line" smooth="yes"/>
      <point x="149" y="495"/>
      <point x="149" y="534"/>
      <point x="198" y="534" type="curve" smooth="yes"/>
      <point x="528" y="534" type="line" smooth="yes"/>
      <point x="545" y="534"/>
      <point x="558" y="546"/>
      <point x="558" y="561" type="curve" smooth="yes"/>
      <point x="558" y="576"/>
      <point x="545" y="587"/>
      <point x="528" y="587" type="curve" smooth="yes"/>
      <point x="177" y="587" type="line" smooth="yes"/>
      <point x="133" y="587"/>
      <point x="102" y="558"/>
      <point x="101" y="520" type="curve"/>
      <point x="115" y="527" type="line"/>
      <point x="115" y="559"/>
      <point x="75" y="587"/>
      <point x="34" y="587" type="curve" smooth="yes"/>
      <point x="0" y="587" type="line" smooth="yes"/>
      <point x="-17" y="587"/>
      <point x="-30" y="576"/>
      <point x="-30" y="561" type="curve" smooth="yes"/>
      <point x="-30" y="546"/>
      <point x="-17" y="534"/>
      <point x="0" y="534" type="curve" smooth="yes"/>
      <point x="33" y="534" type="line" smooth="yes"/>
      <point x="92" y="534"/>
      <point x="88" y="482"/>
      <point x="88" y="445" type="curve" smooth="yes"/>
      <point x="88" y="188" type="line" smooth="yes"/>
      <point x="88" y="158"/>
      <point x="100" y="149"/>
      <point x="117" y="149" type="curve" smooth="yes"/>
      <point x="138" y="149"/>
      <point x="151" y="166"/>
      <point x="178" y="193" type="curve" smooth="yes"/>
      <point x="233" y="250"/>
      <point x="346" y="349"/>
      <point x="415" y="379" type="curve"/>
      <point x="409" y="393" type="line"/>
      <point x="376" y="349"/>
      <point x="369" y="296"/>
      <point x="369" y="258" type="curve" smooth="yes"/>
      <point x="369" y="201"/>
      <point x="379" y="165"/>
      <point x="379" y="70" type="curve" smooth="yes"/>
      <point x="379" y="16" type="line" smooth="yes"/>
      <point x="379" y="-7"/>
      <point x="392" y="-24"/>
      <point x="411" y="-24" type="curve" smooth="yes"/>
    </contour>
  </outline>
</glyph>
<glyph name="uni09AA" format="1">
  <advance width="558"/>
  <unicode hex="09AA"/>
  <outline>
    <contour>
      <point x="172" y="206"/>
      <point x="203" y="252"/>
      <point x="264" y="310" type="curve" smooth="yes"/>
      <point x="316" y="360"/>
      <point x="366" y="396"/>
      <point x="389" y="412" type="curve"/>
      <point x="351" y="455" type="line"/>
      <point x="311" y="430"/>
      <point x="278" y="405"/>
      <point x="234" y="369" type="curve" smooth="yes"/>
      <point x="213" y="353"/>
      <point x="177" y="344"/>
      <point x="146" y="344" type="curve" smooth="yes"/>
      <point x="94" y="344"/>
      <point x="68" y="374"/>
      <point x="68" y="411" type="curve" smooth="yes"/>
      <point x="68" y="467"/>
      <point x="126" y="508"/>
      <point x="205" y="508" type="curve" smooth="yes"/>
      <point x="323" y="508"/>
      <point x="409" y="409"/>
      <point x="409" y="280" type="curve"/>
      <point x="436" y="358" type="line"/>
      <point x="420" y="474"/>
      <point x="327" y="569"/>
      <point x="197" y="568" type="curve" smooth="yes"/>
      <point x="96" y="568"/>
      <point x="3" y="507"/>
      <point x="3" y="415" type="curve" smooth="yes"/>
      <point x="3" y="349"/>
      <point x="53" y="295"/>
      <point x="134" y="295" type="curve" smooth="yes"/>
      <point x="170" y="295"/>
      <point x="208" y="312"/>
      <point x="222" y="323" type="curve"/>
      <point x="195" y="331" type="line"/>
      <point x="165" y="301"/>
      <point x="125" y="252"/>
      <point x="125" y="229" type="curve" smooth="yes"/>
      <point x="125" y="215"/>
      <point x="134" y="206"/>
      <point x="146" y="206" type="curve" smooth="yes"/>
    </contour>
    <contour>
      <point x="457" y="-12"/>
      <point x="470" y="4"/>
      <point x="470" y="25" type="curve" smooth="yes"/>
      <point x="470" y="457" type="line" smooth="yes"/>
      <point x="470" y="517"/>
      <point x="474" y="534"/>
      <point x="508" y="534" type="curve" smooth="yes"/>
      <point x="558" y="534" type="line" smooth="yes"/>
      <point x="574" y="534"/>
      <point x="588" y="545"/>
      <point x="588" y="561" type="curve" smooth="yes"/>
      <point x="588" y="576"/>
      <point x="574" y="587"/>
      <point x="558" y="587" type="curve" smooth="yes"/>
      <point x="492" y="587" type="line" smooth="yes"/>
      <point x="438" y="587"/>
      <point x="409" y="554"/>
      <point x="409" y="477" type="curve" smooth="yes"/>
      <point x="409" y="25" type="line" smooth="yes"/>
      <point x="409" y="4"/>
      <point x="422" y="-12"/>
      <point x="439" y="-12" type="curve" smooth="yes"/>
    </contour>
  </outline>
</glyph>
<glyph name="uni09AB" format="1">
  <advance width="720"/>
  <unicode hex="09AB"/>
  <outline>
    <contour>
      <point x="413" y="84" type="line"/>
      <point x="389" y="188"/>
      <point x="232" y="268"/>
      <point x="135" y="289" type="curve"/>
      <point x="145" y="262" type="line"/>
      <point x="263" y="313" type="line" smooth="yes"/>
      <point x="296" y="329"/>
      <point x="303" y="349"/>
      <point x="303" y="364" type="curve" smooth="yes"/>
      <point x="303" y="405"/>
      <point x="251" y="422"/>
      <point x="196" y="444" type="curve" smooth="yes"/>
      <point x="143" y="466"/>
      <point x="119" y="483"/>
      <point x="119" y="549" type="curve"/>
      <point x="47" y="549" type="line"/>
      <point x="47" y="480"/>
      <point x="72" y="440"/>
      <point x="140" y="412" type="curve" smooth="yes"/>
      <point x="192" y="391"/>
      <point x="235" y="383"/>
      <point x="235" y="372" type="curve" smooth="yes"/>
      <point x="235" y="356"/>
      <point x="144" y="329"/>
      <point x="91" y="308" type="curve" smooth="yes"/>
      <point x="73" y="300"/>
      <point x="69" y="287"/>
      <point x="69" y="276" type="curve" smooth="yes"/>
      <point x="69" y="264"/>
      <point x="79" y="249"/>
      <point x="98" y="242" type="curve" smooth="yes"/>
      <point x="225" y="198"/>
      <point x="371" y="141"/>
      <point x="371" y="41" type="curve"/>
    </contour>
    <contour>
      <point x="419" y="-11"/>
      <point x="432" y="4"/>
      <point x="432" y="24" type="curve" smooth="yes"/>
      <point x="432" y="470" type="line" smooth="yes"/>
      <point x="432" y="490"/>
      <point x="419" y="505"/>
      <point x="402" y="505" type="curve" smooth="yes"/>
      <point x="385" y="505"/>
      <point x="371" y="490"/>
      <point x="371" y="470" type="curve" smooth="yes"/>
      <point x="371" y="24" type="line" smooth="yes"/>
      <point x="371" y="4"/>
      <point x="385" y="-11"/>
      <point x="402" y="-11" type="curve" smooth="yes"/>
    </contour>
    <contour>
      <point x="549" y="196"/>
      <point x="536" y="209"/>
      <point x="536" y="228" type="curve" smooth="yes"/>
      <point x="536" y="244"/>
      <point x="549" y="259"/>
      <point x="568" y="259" type="curve" smooth="yes"/>
      <point x="585" y="259"/>
      <point x="599" y="245"/>
      <point x="599" y="228" type="curve" smooth="yes"/>
      <point x="599" y="208"/>
      <point x="584" y="196"/>
      <point x="568" y="196" type="curve" smooth="yes"/>
    </contour>
    <contour>
      <point x="631" y="152"/>
      <point x="669" y="212"/>
      <point x="669" y="275" type="curve" smooth="yes"/>
      <point x="669" y="310"/>
      <point x="657" y="377"/>
      <point x="563" y="402" type="curve" smooth="yes"/>
      <point x="484" y="428"/>
      <point x="432" y="405"/>
      <point x="432" y="470" type="curve"/>
      <point x="396" y="426" type="line"/>
      <point x="421" y="354"/>
      <point x="499" y="367"/>
      <point x="561" y="346" type="curve" smooth="yes"/>
      <point x="607" y="332"/>
      <point x="628" y="305"/>
      <point x="628" y="274" type="curve" smooth="yes"/>
      <point x="628" y="251"/>
      <point x="617" y="229"/>
      <point x="601" y="214" type="curve"/>
      <point x="610" y="177" type="line"/>
      <point x="630" y="190"/>
      <point x="639" y="212"/>
      <point x="639" y="231" type="curve" smooth="yes"/>
      <point x="639" y="264"/>
      <point x="612" y="302"/>
      <point x="564" y="302" type="curve" smooth="yes"/>
      <point x="521" y="302"/>
      <point x="485" y="271"/>
      <point x="485" y="227" type="curve" smooth="yes"/>
      <point x="485" y="179"/>
      <point x="526" y="152"/>
      <point x="567" y="152" type="curve" smooth="yes"/>
    </contour>
    <contour>
      <point x="720" y="534" type="line" smooth="yes"/>
      <point x="731" y="534"/>
      <point x="748" y="542"/>
      <point x="748" y="561" type="curve" smooth="yes"/>
      <point x="748" y="579"/>
      <point x="732" y="587"/>
      <point x="720" y="587" type="curve" smooth="yes"/>
      <point x="0" y="587" type="line" smooth="yes"/>
      <point x="-14" y="587"/>
      <point x="-30" y="579"/>
      <point x="-30" y="561" type="curve" smooth="yes"/>
      <point x="-30" y="542"/>
      <point x="-14" y="534"/>
      <point x="0" y="534" type="curve" smooth="yes"/>
    </contour>
  </outline>
</glyph>
<glyph name="uni09AC" format="1">
  <advance width="485"/>
  <unicode hex="09AC"/>
  <outline>
    <contour>
      <point x="381" y="65" type="line"/>
      <point x="381" y="184"/>
      <point x="184" y="296"/>
      <point x="53" y="314" type="curve"/>
      <point x="72" y="295" type="line"/>
      <point x="305" y="385"/>
      <point x="370" y="437"/>
      <point x="370" y="502" type="curve" smooth="yes"/>
      <point x="370" y="549"/>
      <point x="330" y="587"/>
      <point x="262" y="587" type="curve" smooth="yes"/>
      <point x="0" y="587" type="line" smooth="yes"/>
      <point x="-11" y="587"/>
      <point x="-25" y="579"/>
      <point x="-25" y="561" type="curve" smooth="yes"/>
      <point x="-25" y="545"/>
      <point x="-13" y="534"/>
      <point x="0" y="534" type="curve" smooth="yes"/>
      <point x="251" y="534" type="line" smooth="yes"/>
      <point x="294" y="534"/>
      <point x="327" y="526"/>
      <point x="327" y="507" type="curve" smooth="yes"/>
      <point x="327" y="478"/>
      <point x="254" y="442"/>
      <point x="41" y="350" type="curve" smooth="yes"/>
      <point x="16" y="339"/>
      <point x="6" y="325"/>
      <point x="6" y="307" type="curve" smooth="yes"/>
      <point x="6" y="282"/>
      <point x="25" y="268"/>
      <point x="52" y="260" type="curve" smooth="yes"/>
      <point x="119" y="239"/>
      <point x="336" y="163"/>
      <point x="336" y="48" type="curve"/>
    </contour>
    <contour>
      <point x="384" y="-12"/>
      <point x="398" y="4"/>
      <point x="398" y="25" type="curve" smooth="yes"/>
      <point x="398" y="456" type="line" smooth="yes"/>
      <point x="398" y="524"/>
      <point x="402" y="534"/>
      <point x="436" y="534" type="curve" smooth="yes"/>
      <point x="485" y="534" type="line" smooth="yes"/>
      <point x="502" y="534"/>
      <point x="515" y="545"/>
      <point x="515" y="561" type="curve" smooth="yes"/>
      <point x="515" y="576"/>
      <point x="502" y="587"/>
      <point x="485" y="587" type="curve" smooth="yes"/>
      <point x="420" y="587" type="line" smooth="yes"/>
      <point x="366" y="587"/>
      <point x="336" y="553"/>
      <point x="336" y="472" type="curve" smooth="yes"/>
      <point x="336" y="25" type="line" smooth="yes"/>
      <point x="336" y="4"/>
      <point x="350" y="-12"/>
      <point x="367" y="-12" type="curve" smooth="yes"/>
    </contour>
  </outline>
</glyph>
<glyph name="uni09AD" format="1">
  <advance width="571"/>
  <unicode hex="09AD"/>
  <outline>
    <contour>
      <point x="461" y="43"/>
      <point x="533" y="145"/>
      <point x="533" y="250" type="curve" smooth="yes"/>
      <point x="533" y="321"/>
      <point x="498" y="407"/>
      <point x="460" y="407" type="curve" smooth="yes"/>
      <point x="444" y="407"/>
      <point x="436" y="394"/>
      <point x="433" y="370" type="curve" smooth="yes"/>
      <point x="425" y="331"/>
      <point x="388" y="289"/>
      <point x="325" y="289" type="curve" smooth="yes"/>
      <point x="294" y="289"/>
      <point x="262" y="303"/>
      <point x="236" y="332" type="curve"/>
      <point x="217" y="321" type="line"/>
      <point x="227" y="308"/>
      <point x="248" y="300"/>
      <point x="268" y="300" type="curve" smooth="yes"/>
      <point x="312" y="300"/>
      <point x="352" y="335"/>
      <point x="352" y="381" type="curve" smooth="yes"/>
      <point x="352" y="427"/>
      <point x="316" y="465"/>
      <point x="264" y="465" type="curve" smooth="yes"/>
      <point x="218" y="465"/>
      <point x="172" y="431"/>
      <point x="172" y="372" type="curve" smooth="yes"/>
      <point x="172" y="297"/>
      <point x="242" y="230"/>
      <point x="328" y="230" type="curve" smooth="yes"/>
      <point x="423" y="230"/>
      <point x="473" y="312"/>
      <point x="473" y="356" type="curve"/>
      <point x="458" y="346" type="line"/>
      <point x="472" y="324"/>
      <point x="479" y="295"/>
      <point x="479" y="267" type="curve" smooth="yes"/>
      <point x="479" y="190"/>
      <point x="428" y="112"/>
      <point x="324" y="112" type="curve" smooth="yes"/>
      <point x="189" y="112"/>
      <point x="102" y="278"/>
      <point x="75" y="405" type="curve" smooth="yes"/>
      <point x="70" y="425"/>
      <point x="60" y="439"/>
      <point x="43" y="439" type="curve" smooth="yes"/>
      <point x="27" y="439"/>
      <point x="20" y="421"/>
      <point x="20" y="410" type="curve" smooth="yes"/>
      <point x="20" y="325"/>
      <point x="116" y="43"/>
      <point x="329" y="43" type="curve" smooth="yes"/>
    </contour>
    <contour>
      <point x="243" y="339"/>
      <point x="225" y="352"/>
      <point x="225" y="375" type="curve" smooth="yes"/>
      <point x="225" y="398"/>
      <point x="244" y="410"/>
      <point x="260" y="410" type="curve" smooth="yes"/>
      <point x="278" y="410"/>
      <point x="296" y="398"/>
      <point x="296" y="374" type="curve" smooth="yes"/>
      <point x="296" y="350"/>
      <point x="276" y="339"/>
      <point x="260" y="339" type="curve" smooth="yes"/>
    </contour>
    <contour>
      <point x="571" y="534" type="line" smooth="yes"/>
      <point x="582" y="534"/>
      <point x="599" y="542"/>
      <point x="599" y="561" type="curve" smooth="yes"/>
      <point x="599" y="579"/>
      <point x="583" y="587"/>
      <point x="571" y="587" type="curve" smooth="yes"/>
      <point x="0" y="587" type="line" smooth="yes"/>
      <point x="-14" y="587"/>
      <point x="-30" y="579"/>
      <point x="-30" y="561" type="curve" smooth="yes"/>
      <point x="-30" y="542"/>
      <point x="-14" y="534"/>
      <point x="0" y="534" type="curve" smooth="yes"/>
    </contour>
  </outline>
</glyph>
<glyph name="uni09AE" format="1">
  <advance width="522"/>
  <unicode hex="09AE"/>
  <outline>
    <contour>
      <point x="421" y="-12"/>
      <point x="435" y="4"/>
      <point x="435" y="25" type="curve" smooth="yes"/>
      <point x="435" y="456" type="line" smooth="yes"/>
      <point x="435" y="524"/>
      <point x="439" y="534"/>
      <point x="473" y="534" type="curve" smooth="yes"/>
      <point x="522" y="534" type="line" smooth="yes"/>
      <point x="539" y="534"/>
      <point x="552" y="545"/>
      <point x="552" y="561" type="curve" smooth="yes"/>
      <point x="552" y="576"/>
      <point x="539" y="587"/>
      <point x="522" y="587" type="curve" smooth="yes"/>
      <point x="457" y="587" type="line" smooth="yes"/>
      <point x="413" y="587"/>
      <point x="381" y="564"/>
      <point x="381" y="500" type="curve"/>
      <point x="401" y="510" type="line"/>
      <point x="401" y="567"/>
      <point x="367" y="587"/>
      <point x="317" y="587" type="curve" smooth="yes"/>
      <point x="0" y="587" type="line" smooth="yes"/>
      <point x="-17" y="587"/>
      <point x="-30" y="576"/>
      <point x="-30" y="561" type="curve" smooth="yes"/>
      <point x="-30" y="545"/>
      <point x="-17" y="534"/>
      <point x="0" y="534" type="curve" smooth="yes"/>
      <point x="319" y="534" type="line" smooth="yes"/>
      <point x="366" y="534"/>
      <point x="373" y="515"/>
      <point x="373" y="463" type="curve" smooth="yes"/>
      <point x="373" y="25" type="line" smooth="yes"/>
      <point x="373" y="4"/>
      <point x="387" y="-12"/>
      <point x="404" y="-12" type="curve" smooth="yes"/>
    </contour>
    <contour>
      <point x="406" y="80" type="line"/>
      <point x="393" y="192"/>
      <point x="286" y="293"/>
      <point x="177" y="293" type="curve" smooth="yes"/>
      <point x="119" y="293"/>
      <point x="79" y="260"/>
      <point x="79" y="209" type="curve" smooth="yes"/>
      <point x="79" y="160"/>
      <point x="122" y="128"/>
      <point x="166" y="128" type="curve" smooth="yes"/>
      <point x="221" y="128"/>
      <point x="283" y="177"/>
      <point x="283" y="256" type="curve" smooth="yes"/>
      <point x="283" y="422"/>
      <point x="117" y="381"/>
      <point x="117" y="489" type="curve" smooth="yes"/>
      <point x="117" y="510"/>
      <point x="128" y="528"/>
      <point x="144" y="539" type="curve"/>
      <point x="86" y="554" type="line"/>
      <point x="62" y="543"/>
      <point x="49" y="515"/>
      <point x="49" y="489" type="curve" smooth="yes"/>
      <point x="49" y="351"/>
      <point x="233" y="382"/>
      <point x="233" y="264" type="curve" smooth="yes"/>
      <point x="233" y="214"/>
      <point x="199" y="181"/>
      <point x="166" y="181" type="curve" smooth="yes"/>
      <point x="144" y="181"/>
      <point x="133" y="193"/>
      <point x="133" y="206" type="curve" smooth="yes"/>
      <point x="133" y="220"/>
      <point x="147" y="235"/>
      <point x="178" y="235" type="curve" smooth="yes"/>
      <point x="263" y="235"/>
      <point x="374" y="142"/>
      <point x="373" y="48" type="curve"/>
    </contour>
  </outline>
</glyph>
<glyph name="uni09B2" format="1">
  <advance width="660"/>
  <unicode hex="09B2"/>
  <outline>
    <contour>
      <point x="559" y="-12"/>
      <point x="573" y="4"/>
      <point x="573" y="25" type="curve" smooth="yes"/>
      <point x="573" y="456" type="line" smooth="yes"/>
      <point x="573" y="524"/>
      <point x="577" y="534"/>
      <point x="611" y="534" type="curve" smooth="yes"/>
      <point x="660" y="534" type="line" smooth="yes"/>
      <point x="676" y="534"/>
      <point x="690" y="545"/>
      <point x="690" y="561" type="curve" smooth="yes"/>
      <point x="690" y="576"/>
      <point x="676" y="587"/>
      <point x="660" y="587" type="curve" smooth="yes"/>
      <point x="595" y="587" type="line" smooth="yes"/>
      <point x="551" y="587"/>
      <point x="519" y="564"/>
      <point x="519" y="500" type="curve"/>
      <point x="539" y="510" type="line"/>
      <point x="539" y="567"/>
      <point x="505" y="587"/>
      <point x="455" y="587" type="curve" smooth="yes"/>
      <point x="0" y="587" type="line" smooth="yes"/>
      <point x="-17" y="587"/>
      <point x="-30" y="576"/>
      <point x="-30" y="561" type="curve" smooth="yes"/>
      <point x="-30" y="545"/>
      <point x="-17" y="534"/>
      <point x="0" y="534" type="curve" smooth="yes"/>
      <point x="457" y="534" type="line" smooth="yes"/>
      <point x="504" y="534"/>
      <point x="511" y="515"/>
      <point x="511" y="463" type="curve" smooth="yes"/>
      <point x="511" y="25" type="line" smooth="yes"/>
      <point x="511" y="4"/>
      <point x="525" y="-12"/>
      <point x="542" y="-12" type="curve" smooth="yes"/>
    </contour>
    <contour>
      <point x="179" y="157"/>
      <point x="167" y="170"/>
      <point x="167" y="188" type="curve" smooth="yes"/>
      <point x="167" y="204"/>
      <point x="179" y="219"/>
      <point x="197" y="219" type="curve" smooth="yes"/>
      <point x="215" y="219"/>
      <point x="228" y="204"/>
      <point x="228" y="188" type="curve" smooth="yes"/>
      <point x="228" y="169"/>
      <point x="215" y="157"/>
      <point x="197" y="157" type="curve" smooth="yes"/>
    </contour>
    <contour>
      <point x="244" y="107"/>
      <point x="278" y="146"/>
      <point x="278" y="188" type="curve" smooth="yes"/>
      <point x="278" y="231"/>
      <point x="245" y="264"/>
      <point x="199" y="264" type="curve" smooth="yes"/>
      <point x="154" y="264"/>
      <point x="126" y="228"/>
      <point x="126" y="194" type="curve" smooth="yes"/>
      <point x="126" y="171"/>
      <point x="139" y="146"/>
      <point x="168" y="135" type="curve"/>
      <point x="169" y="155" type="line"/>
      <point x="129" y="176"/>
      <point x="96" y="215"/>
      <point x="96" y="269" type="curve" smooth="yes"/>
      <point x="96" y="326"/>
      <point x="142" y="381"/>
      <point x="223" y="381" type="curve" smooth="yes"/>
      <point x="295" y="381"/>
      <point x="352" y="342"/>
      <point x="352" y="306" type="curve" smooth="yes"/>
      <point x="352" y="293"/>
      <point x="346" y="280"/>
      <point x="336" y="280" type="curve" smooth="yes"/>
      <point x="328" y="280"/>
      <point x="318" y="289"/>
      <point x="318" y="308" type="curve" smooth="yes"/>
      <point x="318" y="344"/>
      <point x="357" y="381"/>
      <point x="412" y="381" type="curve" smooth="yes"/>
      <point x="476" y="381"/>
      <point x="511" y="328"/>
      <point x="511" y="268" type="curve"/>
      <point x="545" y="301" type="line"/>
      <point x="543" y="351"/>
      <point x="507" y="440"/>
      <point x="403" y="440" type="curve"/>
      <point x="327" y="440"/>
      <point x="266" y="381"/>
      <point x="266" y="314" type="curve" smooth="yes"/>
      <point x="266" y="268"/>
      <point x="297" y="236"/>
      <point x="337" y="236" type="curve" smooth="yes"/>
      <point x="376" y="236"/>
      <point x="401" y="267"/>
      <point x="401" y="307" type="curve" smooth="yes"/>
      <point x="401" y="382"/>
      <point x="312" y="443"/>
      <point x="217" y="443" type="curve" smooth="yes"/>
      <point x="112" y="443"/>
      <point x="33" y="379"/>
      <point x="33" y="280" type="curve" smooth="yes"/>
      <point x="33" y="185"/>
      <point x="105" y="107"/>
      <point x="191" y="107" type="curve" smooth="yes"/>
    </contour>
  </outline>
</glyph>
<glyph name="uni09BE" format="1">
  <advance width="220"/>
  <unicode hex="09BE"/>
  <outline>
    <contour>
      <point x="120" y="-12"/>
      <point x="133" y="4"/>
      <point x="133" y="25" type="curve" smooth="yes"/>
      <point x="133" y="456" type="line" smooth="yes"/>
      <point x="133" y="524"/>
      <point x="137" y="534"/>
      <point x="171" y="534" type="curve" smooth="yes"/>
      <point x="220" y="534" type="line" smooth="yes"/>
      <point x="237" y="534"/>
      <point x="250" y="545"/>
      <point x="250" y="561" type="curve" smooth="yes"/>
      <point x="250" y="576"/>
      <point x="237" y="587"/>
      <point x="220" y="587" type="curve" smooth="yes"/>
      <point x="155" y="587" type="line" smooth="yes"/>
      <point x="114" y="587"/>
      <point x="79" y="564"/>
      <point x="79" y="500" type="curve"/>
      <point x="100" y="510" type="line"/>
      <point x="100" y="567"/>
      <point x="65" y="587"/>
      <point x="23" y="587" type="curve" smooth="yes"/>
      <point x="0" y="587" type="line" smooth="yes"/>
      <point x="-17" y="587"/>
      <point x="-30" y="576"/>
      <point x="-30" y="561" type="curve" smooth="yes"/>
      <point x="-30" y="545"/>
      <point x="-17" y="534"/>
      <point x="0" y="534" type="curve" smooth="yes"/>
      <point x="26" y="534" type="line" smooth="yes"/>
      <point x="65" y="534"/>
      <point x="72" y="515"/>
      <point x="72" y="463" type="curve" smooth="yes"/>
      <point x="72" y="25" type="line" smooth="yes"/>
      <point x="72" y="4"/>
      <point x="85" y="-12"/>
      <point x="102" y="-12" type="curve" smooth="yes"/>
    </contour>
  </outline>
</glyph>
<glyph name="uni09C0" format="1">
  <advance width="220"/>
  <unicode hex="09C0"/>
  <outline>
    <contour>
      <point x="133" y="488" type="line"/>
      <point x="133" y="713"/>
      <point x="34" y="878"/>
      <point x="-217" y="878" type="curve" smooth="yes"/>
      <point x="-328" y="878"/>
      <point x="-436" y="832"/>
      <point x="-436" y="745" type="curve" smooth="yes"/>
      <point x="-436" y="695"/>
      <point x="-399" y="657"/>
      <point x="-339" y="657" type="curve" smooth="yes"/>
      <point x="-289" y="657"/>
      <point x="-241" y="683"/>
      <point x="-189" y="683" type="curve" smooth="yes"/>
      <point x="-141" y="683"/>
      <point x="-129" y="664"/>
      <point x="-115" y="644" type="curve" smooth="yes"/>
      <point x="-107" y="633"/>
      <point x="-100" y="625"/>
      <point x="-89" y="625" type="curve" smooth="yes"/>
      <point x="-74" y="625"/>
      <point x="-67" y="636"/>
      <point x="-67" y="649" type="curve" smooth="yes"/>
      <point x="-67" y="679"/>
      <point x="-105" y="733"/>
      <point x="-186" y="733" type="curve" smooth="yes"/>
      <point x="-232" y="733"/>
      <point x="-290" y="715"/>
      <point x="-326" y="715" type="curve" smooth="yes"/>
      <point x="-354" y="715"/>
      <point x="-374" y="726"/>
      <point x="-374" y="749" type="curve" smooth="yes"/>
      <point x="-374" y="802"/>
      <point x="-278" y="820"/>
      <point x="-207" y="820" type="curve" smooth="yes"/>
      <point x="-35" y="820"/>
      <point x="82" y="708"/>
      <point x="82" y="486" type="curve"/>
    </contour>
    <contour>
      <point x="120" y="-12"/>
      <point x="133" y="4"/>
      <point x="133" y="25" type="curve" smooth="yes"/>
      <point x="133" y="456" type="line" smooth="yes"/>
      <point x="133" y="524"/>
      <point x="137" y="534"/>
      <point x="171" y="534" type="curve" smooth="yes"/>
      <point x="220" y="534" type="line" smooth="yes"/>
      <point x="237" y="534"/>
      <point x="250" y="545"/>
      <point x="250" y="561" type="curve" smooth="yes"/>
      <point x="250" y="576"/>
      <point x="237" y="587"/>
      <point x="220" y="587" type="curve" smooth="yes"/>
      <point x="155" y="587" type="line" smooth="yes"/>
      <point x="114" y="587"/>
      <point x="83" y="564"/>
      <point x="83" y="500" type="curve"/>
      <point x="100" y="510" type="line"/>
      <point x="100" y="567"/>
      <point x="65" y="587"/>
      <point x="23" y="587" type="curve" smooth="yes"/>
      <point x="0" y="587" type="line" smooth="yes"/>
      <point x="-17" y="587"/>
      <point x="-30" y="576"/>
      <point x="-30" y="561" type="curve" smooth="yes"/>
      <point x="-30" y="545"/>
      <point x="-17" y="534"/>
      <point x="0" y="534" type="curve" smooth="yes"/>
      <point x="26" y="534" type="line" smooth="yes"/>
      <point x="65" y="534"/>
      <point x="72" y="515"/>
      <point x="72" y="463" type="curve" smooth="yes"/>
      <point x="72" y="25" type="line" smooth="yes"/>
      <point x="72" y="4"/>
      <point x="85" y="-12"/>
      <point x="102" y="-12" type="curve" smooth="yes"/>
    </contour>
  </outline>
</glyph>
